<svg width="247" height="56" viewBox="0 0 247 56" fill="none" xmlns="http://www.w3.org/2000/svg">
<path d="M77.1344 8.65586C76.6819 6.98271 75.7993 5.45737 74.5744 4.23176C73.3496 3.00615 71.8253 2.12303 70.1533 1.67034C64.0318 0 39.3974 0 39.3974 0C39.3974 0 14.7621 0.0506897 8.64157 1.72103C6.96964 2.17379 5.44541 3.05694 4.22066 4.28255C2.9959 5.50816 2.11336 7.03346 1.66093 8.70655C-0.19061 19.5903 -0.908936 36.1736 1.71158 46.6214C2.16402 48.2945 3.04656 49.8198 4.27131 51.0454C5.49606 52.2711 7.0203 53.1542 8.69222 53.607C14.8132 55.2773 39.4481 55.2773 39.4481 55.2773C39.4481 55.2773 64.0829 55.2773 70.2039 53.607C71.8758 53.1542 73.4001 52.2711 74.6248 51.0454C75.8496 49.8198 76.7321 48.2945 77.1846 46.6214C79.1369 35.7227 79.7395 19.1491 77.1344 8.65586Z" fill="white" fill-opacity="0.1"/>
<path d="M39.4483 55.0273C39.4482 55.0273 39.4481 55.0273 39.4481 55.2773C39.4481 55.0273 39.448 55.0273 39.4478 55.0273H39.447H39.4436L39.4303 55.0273L39.3775 55.0273L39.1705 55.0269C38.9887 55.0265 38.7213 55.0257 38.3788 55.0241C37.6936 55.0208 36.708 55.0143 35.5059 55.0012C33.1018 54.9751 29.8329 54.923 26.373 54.8186C22.9128 54.7143 19.2637 54.5578 16.0986 54.3233C12.9263 54.0883 10.2618 53.7762 8.75804 53.3658L8.75757 53.3657C7.12782 52.9243 5.64203 52.0634 4.44815 50.8687C3.2548 49.6746 2.39473 48.1885 1.95351 46.5584C-0.653264 36.1625 0.0580182 19.6285 1.90537 8.76033C2.34734 7.13387 3.20641 5.65118 4.39749 4.45927C5.59138 3.26455 7.07717 2.40367 8.70692 1.96234L8.70739 1.96221C10.2113 1.55179 12.8759 1.23653 16.0481 0.996735C19.2132 0.757479 22.8624 0.59469 26.3227 0.48401C29.7825 0.373344 33.0516 0.314837 35.4557 0.283999C36.6577 0.26858 37.6435 0.26008 38.3286 0.255435C38.6712 0.253112 38.9386 0.251753 39.1203 0.250975L39.3273 0.250195L39.3802 0.250042L39.3935 0.250009L39.3968 0.250002L39.3977 0.25L39.3985 0.25L39.4018 0.250001L39.4152 0.250006L39.468 0.250051L39.675 0.250407C39.8567 0.250815 40.1241 0.251629 40.4667 0.25326C41.1518 0.25652 42.1375 0.263041 43.3395 0.276084C45.7436 0.302172 49.0125 0.354346 52.4723 0.458679C55.9325 0.563025 59.5816 0.719485 62.7467 0.953993C65.919 1.18903 68.5835 1.50116 70.0874 1.91153L70.0879 1.91166C71.7178 2.35292 73.2036 3.21376 74.3976 4.40848C75.591 5.60258 76.4511 7.08856 76.8924 8.71858C79.4842 19.1616 78.8877 35.6873 76.9404 46.5666C76.4985 48.1935 75.6393 49.6766 74.448 50.8687C73.2541 52.0634 71.7683 52.9243 70.1386 53.3657L70.1381 53.3658C68.6343 53.7762 65.9698 54.0883 62.7976 54.3233C59.6325 54.5578 55.9833 54.7143 52.5231 54.8186C49.0633 54.923 45.7943 54.9751 43.3902 55.0012C42.1882 55.0143 41.2025 55.0208 40.5174 55.0241C40.1748 55.0257 39.9074 55.0265 39.7257 55.0269L39.5187 55.0273L39.4658 55.0273L39.4525 55.0273H39.4492H39.4483Z" stroke="white" stroke-opacity="0.3" stroke-width="0.5"/>
<path d="M31.5566 39.4839L51.993 27.6389L31.5566 15.7935V39.4839Z" fill="white" fill-opacity="0.3"/>
<path d="M236.983 16.0469C239.664 16.0469 241.687 16.5528 243.103 17.5145C244.52 18.4766 245.532 19.9949 246.139 22.0708C246.746 24.1461 246.999 26.9804 246.999 30.6252V36.5482H233.998V38.3701L234.201 43.3816C234.352 44.4954 234.606 45.3054 235.01 45.8114C235.415 46.3178 236.072 46.5708 236.932 46.5708C238.096 46.5708 238.905 46.1155 239.31 45.2045C239.765 44.2931 239.967 42.7743 240.018 40.699L246.746 41.104C246.796 41.4076 246.796 41.8127 246.796 42.3186C246.796 45.5077 245.936 47.8872 244.166 49.4562C242.395 51.0252 239.967 51.8352 236.78 51.8352C232.936 51.8352 230.255 50.6206 228.737 48.2416C227.22 45.8621 226.411 42.1159 226.411 37.1048V30.9796C226.582 22.3744 228.095 16.072 236.983 16.0469ZM143.451 16.7049V42.0657C143.451 43.5844 143.602 44.6981 143.957 45.3561C144.675 46.7634 146.537 46.4037 147.548 45.7105C148.132 45.3154 148.603 44.7746 148.914 44.1415V16.7044H156.653V51.2781H150.583L149.926 47.026H149.774C148.105 50.2151 145.626 51.8348 142.338 51.8348C137.277 51.8222 136.039 48.1735 135.744 44.4679L135.725 44.2067C135.689 43.6454 135.667 43.0833 135.661 42.5209V16.7049H143.451H143.451ZM183.363 16.7049V42.0657C183.363 43.5844 183.514 44.6981 183.868 45.3561C184.587 46.7634 186.448 46.4037 187.46 45.7105C188.044 45.3154 188.515 44.7746 188.826 44.1415V16.7044H196.565V51.2781H190.495L189.837 47.026H189.686C188.017 50.2151 185.538 51.8348 182.25 51.8348C177.189 51.8222 175.951 48.1735 175.656 44.4679L175.637 44.2067C175.6 43.6454 175.579 43.0833 175.573 42.5209V16.7049H183.363ZM120.991 16.0469C123.52 16.0469 125.594 16.5528 127.112 17.6159C128.629 18.6789 129.793 20.299 130.501 22.526C131.209 24.7534 131.563 27.7398 131.563 31.4353V36.4463C131.563 40.1419 131.209 43.078 130.501 45.305C129.793 47.5329 128.68 49.1525 127.112 50.2156C125.544 51.2279 123.419 51.7845 120.789 51.7845C118.057 51.8352 115.932 51.2786 114.364 50.2663C112.796 49.2032 111.683 47.5831 111.026 45.3561C110.368 43.1287 110.065 40.1925 110.065 36.4975V31.4855C110.065 27.79 110.419 24.753 111.177 22.5255C111.936 20.2479 113.099 18.6277 114.718 17.6159C116.337 16.603 118.411 16.0464 120.991 16.0464V16.0469ZM208.706 2.17676V20.3999H208.756C209.465 19.0839 210.375 18.0209 211.64 17.2108C212.821 16.4161 214.213 15.9931 215.636 15.9962C217.508 15.9962 218.924 16.5021 219.986 17.4638C221.049 18.4766 221.807 20.0456 222.262 22.2223C222.704 24.331 222.955 27.2474 222.97 30.925L222.971 31.2837V36.7505C222.971 41.8629 222.313 45.6598 221.099 48.0895C219.835 50.5192 217.912 51.7343 215.282 51.7343C213.815 51.7343 212.5 51.38 211.286 50.722C210.212 50.0959 209.322 49.1982 208.705 48.119L208.604 47.9374H208.453L207.644 51.2279H201.219V2.17724H208.706V2.17676ZM177.747 3.94848V10.2248H170.059V51.2781H162.471V10.2253H154.731V3.94896H177.748L177.747 3.94848ZM94.3323 3.94848L94.3371 3.96779C94.4109 4.29655 95.4336 8.84655 96.5586 14.1477L96.6474 14.5677L96.7815 15.2025L96.8713 15.6288L96.9161 15.8427L97.0059 16.2714L97.0507 16.4862L97.14 16.9163L97.2702 17.5454C98.03 21.2163 98.7551 24.8978 99.1888 27.5375H99.3914C99.8068 25.1696 100.41 22.1393 101.054 19.0453L101.223 18.2372C101.308 17.8326 101.393 17.4281 101.478 17.0245L101.611 16.3983C102.484 12.2982 103.385 8.20368 104.311 4.11503L104.325 4.04986L104.348 3.94848H112.088L103.134 35.8902V51.2279H95.4959V35.9404H95.4452L86.5928 3.948H94.3323V3.94848ZM120.839 21.4123C119.777 21.4123 119.068 21.9694 118.614 23.1338C118.158 24.2977 117.956 26.0694 117.956 28.5503V39.3323C117.956 41.8634 118.158 43.736 118.563 44.8502C118.968 45.9634 119.726 46.5205 120.839 46.5205C121.901 46.5205 122.66 45.9634 123.115 44.8502C123.571 43.736 123.773 41.8634 123.773 39.3323V28.5499C123.773 26.0694 123.57 24.247 123.115 23.1333C122.66 21.9694 121.901 21.4123 120.839 21.4123ZM210.072 22.4251C209.455 22.9948 209.016 23.6972 208.756 24.5753L208.706 24.7534V44.394C209.333 45.457 210.224 46.1657 211.791 46.2164C212.601 46.2164 213.258 45.9128 213.764 45.3054C214.27 44.6981 214.624 43.6853 214.826 42.2679C215.021 40.9075 215.122 39.0334 215.13 36.6467V31.8403C215.13 29.107 215.028 27.0316 214.877 25.5635C214.674 24.0954 214.422 23.0324 213.967 22.4251C213.086 21.1593 211.184 21.1748 210.072 22.4251ZM236.831 21.2607C235.971 21.3114 235.364 21.5643 235.01 22.0201C234.606 22.526 234.352 23.2854 234.201 24.3991C234.052 25.4901 234.001 29.3039 233.998 29.4565V31.9417H239.664V29.75V29.792C239.66 30.5581 239.644 29.3474 239.61 27.861L239.605 27.6611C239.573 26.3548 239.527 24.8983 239.462 24.3991C239.31 23.2347 239.056 22.4246 238.652 21.9694C238.247 21.5137 237.64 21.2607 236.831 21.2607H236.831Z" fill="white" fill-opacity="0.3"/>
</svg>
