<?xml version="1.0" encoding="UTF-8" standalone="no"?>
<!DOCTYPE svg PUBLIC "-//W3C//DTD SVG 1.1//EN" "http://www.w3.org/Graphics/SVG/1.1/DTD/svg11.dtd">
<svg width="100%" height="100%" viewBox="0 0 25 25" version="1.1" xmlns="http://www.w3.org/2000/svg" xmlns:xlink="http://www.w3.org/1999/xlink" xml:space="preserve" xmlns:serif="http://www.serif.com/" style="fill-rule:evenodd;clip-rule:evenodd;stroke-linejoin:round;stroke-miterlimit:2;">
    <g transform="matrix(1,0,0,1,-5.88219e-05,-4.6641e-05)">
        <path d="M12.5,0C5.596,0 0,5.596 0,12.5C0,19.404 5.596,25 12.5,25C19.404,25 25,19.404 25,12.5C25,5.596 19.404,0 12.5,0ZM13.803,13.049L13.803,19.85L10.989,19.85L10.989,13.049L9.583,13.049L9.583,10.706L10.989,10.706L10.989,9.299C10.989,7.387 11.783,6.25 14.038,6.25L15.916,6.25L15.916,8.594L14.742,8.594C13.864,8.594 13.806,8.921 13.806,9.533L13.803,10.706L15.929,10.706L15.68,13.049L13.803,13.049Z" style="fill:rgb(93,93,93);"/>
    </g>
</svg>
