<?xml version="1.0" encoding="UTF-8" standalone="no"?>
<!DOCTYPE svg PUBLIC "-//W3C//DTD SVG 1.1//EN" "http://www.w3.org/Graphics/SVG/1.1/DTD/svg11.dtd">
<svg width="100%" height="100%" viewBox="0 0 18 15" version="1.1" xmlns="http://www.w3.org/2000/svg" xmlns:xlink="http://www.w3.org/1999/xlink" xml:space="preserve" xmlns:serif="http://www.serif.com/" style="fill-rule:evenodd;clip-rule:evenodd;stroke-linejoin:round;stroke-miterlimit:2;">
    <g transform="matrix(1.13135,0,0,1.12695,-0.042539,-1.57148)">
        <g>
            <path d="M13.805,9.802C13.728,9.269 13.316,8.853 12.786,8.729C10.724,8.246 10.207,7.058 10.12,5.742C9.754,5.674 9.104,5.6 8,5.6C6.896,5.6 6.246,5.674 5.88,5.742C5.793,7.058 5.276,8.246 3.214,8.729C2.684,8.854 2.272,9.269 2.195,9.802L1.798,12.556C1.658,13.526 2.37,14.4 3.36,14.4L12.64,14.4C13.63,14.4 14.342,13.526 14.202,12.556L13.805,9.802ZM8,12.394C6.884,12.394 5.979,11.498 5.979,10.394C5.979,9.29 6.884,8.394 8,8.394C9.116,8.394 10.021,9.29 10.021,10.394C10.021,11.498 9.115,12.394 8,12.394ZM15.96,4.8C15.941,3.6 12.886,1.601 8,1.6C3.113,1.601 0.058,3.6 0.04,4.8C0.022,6 0.057,7.562 2.068,7.302C4.421,6.997 4.276,6.175 4.276,5.001C4.276,4.182 6.19,3.984 8,3.984C9.81,3.984 11.723,4.182 11.724,5.001C11.724,6.175 11.579,6.997 13.932,7.302C15.942,7.562 15.978,6 15.96,4.8Z" style="fill:rgb(93,93,93);fill-rule:nonzero;"/>
        </g>
    </g>
</svg>
