<?xml version="1.0" encoding="UTF-8" standalone="no"?>
<!DOCTYPE svg PUBLIC "-//W3C//DTD SVG 1.1//EN" "http://www.w3.org/Graphics/SVG/1.1/DTD/svg11.dtd">
<svg width="100%" height="100%" viewBox="0 0 25 25" version="1.1" xmlns="http://www.w3.org/2000/svg" xmlns:xlink="http://www.w3.org/1999/xlink" xml:space="preserve" xmlns:serif="http://www.serif.com/" style="fill-rule:evenodd;clip-rule:evenodd;stroke-linejoin:round;stroke-miterlimit:2;">
    <g transform="matrix(1,0,0,1,-0.00124016,-0.00221544)">
        <path d="M14.893,12.5C14.893,13.821 13.821,14.893 12.5,14.893C11.179,14.893 10.107,13.821 10.107,12.5C10.107,11.179 11.179,10.107 12.5,10.107C13.821,10.107 14.893,11.179 14.893,12.5Z" style="fill:rgb(93,93,93);fill-rule:nonzero;"/>
    </g>
    <g transform="matrix(1,0,0,1,-0.00124016,-0.00221544)">
        <path d="M18.095,8.267C17.98,7.955 17.797,7.673 17.558,7.442C17.327,7.203 17.045,7.02 16.733,6.905C16.48,6.806 16.1,6.689 15.4,6.658C14.643,6.623 14.416,6.616 12.5,6.616C10.583,6.616 10.356,6.623 9.599,6.657C8.899,6.689 8.519,6.806 8.267,6.905C7.955,7.02 7.673,7.203 7.441,7.442C7.203,7.673 7.019,7.955 6.904,8.267C6.806,8.52 6.689,8.9 6.657,9.6C6.623,10.357 6.615,10.584 6.615,12.5C6.615,14.417 6.623,14.644 6.657,15.401C6.689,16.101 6.806,16.48 6.904,16.733C7.019,17.045 7.203,17.327 7.441,17.559C7.673,17.797 7.955,17.981 8.266,18.096C8.519,18.194 8.899,18.311 9.599,18.343C10.356,18.377 10.583,18.385 12.5,18.385C14.416,18.385 14.644,18.377 15.4,18.343C16.1,18.311 16.48,18.194 16.733,18.096C17.359,17.854 17.854,17.359 18.095,16.733C18.193,16.48 18.31,16.101 18.342,15.401C18.377,14.644 18.384,14.417 18.384,12.5C18.384,10.584 18.377,10.357 18.342,9.6C18.311,8.9 18.194,8.52 18.095,8.267ZM12.5,16.186C10.464,16.186 8.814,14.536 8.814,12.5C8.814,10.464 10.464,8.814 12.5,8.814C14.535,8.814 16.186,10.464 16.186,12.5C16.186,14.536 14.535,16.186 12.5,16.186ZM16.331,9.53C15.856,9.53 15.47,9.144 15.47,8.669C15.47,8.193 15.856,7.807 16.331,7.807C16.807,7.807 17.193,8.193 17.193,8.669C17.192,9.144 16.807,9.53 16.331,9.53Z" style="fill:rgb(93,93,93);fill-rule:nonzero;"/>
    </g>
    <g transform="matrix(1,0,0,1,-0.00124016,-0.00221544)">
        <path d="M12.5,0C5.598,0 0,5.598 0,12.5C0,19.403 5.598,25 12.5,25C19.403,25 25,19.403 25,12.5C25,5.598 19.403,0 12.5,0ZM19.634,15.459C19.6,16.223 19.478,16.745 19.301,17.202C18.928,18.166 18.166,18.928 17.202,19.301C16.745,19.478 16.223,19.6 15.459,19.634C14.694,19.669 14.45,19.678 12.5,19.678C10.551,19.678 10.306,19.669 9.541,19.634C8.777,19.6 8.255,19.478 7.799,19.301C7.319,19.121 6.886,18.838 6.527,18.473C6.162,18.115 5.88,17.681 5.699,17.202C5.522,16.745 5.4,16.223 5.366,15.459C5.33,14.694 5.322,14.449 5.322,12.5C5.322,10.551 5.33,10.306 5.366,9.541C5.4,8.777 5.522,8.255 5.699,7.798C5.879,7.319 6.162,6.886 6.527,6.527C6.886,6.162 7.319,5.879 7.798,5.699C8.255,5.522 8.777,5.4 9.541,5.366C10.306,5.331 10.551,5.322 12.5,5.322C14.449,5.322 14.694,5.331 15.459,5.366C16.223,5.4 16.745,5.522 17.202,5.699C17.681,5.879 18.115,6.162 18.473,6.527C18.838,6.886 19.121,7.319 19.301,7.798C19.478,8.255 19.6,8.777 19.635,9.541C19.67,10.306 19.678,10.551 19.678,12.5C19.678,14.449 19.67,14.694 19.634,15.459Z" style="fill:rgb(93,93,93);fill-rule:nonzero;"/>
    </g>
</svg>
