<?xml version="1.0" encoding="UTF-8" standalone="no"?>
<!DOCTYPE svg PUBLIC "-//W3C//DTD SVG 1.1//EN" "http://www.w3.org/Graphics/SVG/1.1/DTD/svg11.dtd">
<svg width="100%" height="100%" viewBox="0 0 1149 170" version="1.1" xmlns="http://www.w3.org/2000/svg" xmlns:xlink="http://www.w3.org/1999/xlink" xml:space="preserve" xmlns:serif="http://www.serif.com/" style="fill-rule:evenodd;clip-rule:evenodd;stroke-linejoin:round;stroke-miterlimit:2;">
    <g transform="matrix(1,0,0,1,-88.5932,-165.314)">
        <g transform="matrix(1,0,0,1,404.37,232.141)">
            <path d="M0,-29.283L2.379,-29.283L2.379,-8.605C2.379,-5.974 1.596,-3.882 0.029,-2.33C-1.537,-0.777 -3.563,0 -6.047,0C-8.758,0 -10.898,-0.7 -12.471,-2.102C-14.043,-3.503 -14.797,-5.552 -14.731,-8.248L-14.691,-8.366L-12.471,-8.366C-12.471,-6.285 -11.916,-4.707 -10.806,-3.632C-9.695,-2.56 -8.109,-2.022 -6.047,-2.022C-4.289,-2.022 -2.842,-2.619 -1.705,-3.815C-0.569,-5.01 0,-6.612 0,-8.62L0,-29.283Z" style="fill:rgb(93,93,93);fill-rule:nonzero;"/>
        </g>
        <g transform="matrix(1,0,0,1,478.991,232.141)">
            <path d="M0,-29.283L0,-9.715C0,-6.569 -0.962,-4.163 -2.885,-2.498C-4.808,-0.833 -7.316,0 -10.409,0C-13.462,0 -15.935,-0.837 -17.824,-2.508C-19.713,-4.179 -20.659,-6.582 -20.659,-9.715L-20.659,-29.283L-18.279,-29.283L-18.279,-9.729C-18.279,-7.272 -17.552,-5.373 -16.099,-4.033C-14.646,-2.693 -12.748,-2.022 -10.409,-2.022C-8.029,-2.022 -6.093,-2.689 -4.6,-4.023C-3.106,-5.357 -2.359,-7.259 -2.359,-9.729L-2.359,-29.283L0,-29.283Z" style="fill:rgb(93,93,93);fill-rule:nonzero;"/>
        </g>
        <g transform="matrix(1,0,0,1,547.229,209.946)">
            <path d="M0,14.691C0,13.121 -0.589,11.836 -1.765,10.841C-2.94,9.843 -4.99,8.963 -7.911,8.198C-11.069,7.405 -13.462,6.374 -15.088,5.105C-16.714,3.836 -17.526,2.125 -17.526,-0.03C-17.526,-2.237 -16.618,-4.035 -14.801,-5.423C-12.982,-6.81 -10.646,-7.504 -7.792,-7.504C-4.818,-7.504 -2.419,-6.678 -0.595,-5.026C1.229,-3.374 2.115,-1.358 2.062,1.021L2.002,1.14L-0.179,1.14C-0.179,-0.789 -0.862,-2.375 -2.23,-3.619C-3.599,-4.862 -5.452,-5.482 -7.792,-5.482C-10.105,-5.482 -11.912,-4.967 -13.214,-3.935C-14.517,-2.905 -15.167,-1.622 -15.167,-0.089C-15.167,1.364 -14.566,2.577 -13.363,3.549C-12.159,4.52 -10.086,5.377 -7.138,6.116C-4.031,6.909 -1.67,7.98 -0.05,9.328C1.57,10.676 2.379,12.455 2.379,14.661C2.379,16.961 1.437,18.791 -0.446,20.153C-2.33,21.515 -4.732,22.195 -7.653,22.195C-10.534,22.195 -13.05,21.471 -15.197,20.024C-17.344,18.577 -18.385,16.465 -18.319,13.69L-18.28,13.571L-16.099,13.571C-16.099,15.811 -15.261,17.473 -13.581,18.551C-11.901,19.633 -9.927,20.173 -7.653,20.173C-5.367,20.173 -3.52,19.671 -2.111,18.668C-0.704,17.665 0,16.34 0,14.691" style="fill:rgb(93,93,93);fill-rule:nonzero;"/>
        </g>
        <g transform="matrix(1,0,0,1,619.134,229.703)">
            <path d="M0,-24.823L-9.934,-24.823L-9.934,2.022L-12.313,2.022L-12.313,-24.823L-22.245,-24.823L-22.245,-26.845L0,-26.845L0,-24.823Z" style="fill:rgb(93,93,93);fill-rule:nonzero;"/>
        </g>
        <g transform="matrix(1,0,0,1,677.318,215.686)">
            <path d="M0,3.211L8.942,-12.828L11.698,-12.828L1.17,5.491L1.17,16.039L-1.189,16.039L-1.189,5.352L-11.638,-12.828L-8.882,-12.828L0,3.211Z" style="fill:rgb(93,93,93);fill-rule:nonzero;"/>
        </g>
        <g transform="matrix(1,0,0,1,759.394,202.858)">
            <path d="M0,28.867L-2.359,28.867L-18.755,4.045L-18.874,4.064L-18.874,28.867L-21.253,28.867L-21.253,0L-18.874,0L-2.479,24.783L-2.359,24.763L-2.359,0L0,0L0,28.867Z" style="fill:rgb(93,93,93);fill-rule:nonzero;"/>
        </g>
        <g transform="matrix(1,0,0,1,815.062,213.029)">
            <path d="M0,8.525L11.657,8.525L5.908,-7.098L5.789,-7.098L0,8.525ZM12.431,10.647L-0.793,10.647L-3.768,18.696L-6.226,18.696L4.738,-10.171L6.979,-10.171L17.863,18.696L15.404,18.696L12.431,10.647Z" style="fill:rgb(93,93,93);fill-rule:nonzero;"/>
        </g>
        <g transform="matrix(1,0,0,1,942.873,216.419)">
            <path d="M0,1.745L-3.966,1.745L-3.966,15.306L-6.325,15.306L-6.325,-13.561L-3.966,-13.561L-3.966,-0.277L-0.021,-0.277L11.34,-13.561L14.017,-13.561L14.057,-13.462L2.121,0.644L14.909,15.207L14.869,15.306L12.054,15.306L0,1.745Z" style="fill:rgb(93,93,93);fill-rule:nonzero;"/>
        </g>
        <g transform="matrix(1,0,0,1,1009.44,217.946)">
            <path d="M0,-1.289L7.118,-1.289C9.721,-1.289 11.624,-1.814 12.828,-2.865C14.031,-3.916 14.632,-5.333 14.632,-7.118C14.632,-9.021 14.033,-10.484 12.838,-11.509C11.642,-12.535 9.834,-13.046 7.415,-13.046L0,-13.046L0,-1.289ZM0,0.733L0,13.779L-2.359,13.779L-2.359,-15.068L7.415,-15.068C10.508,-15.068 12.881,-14.39 14.532,-13.036C16.185,-11.682 17.011,-9.701 17.011,-7.098C17.011,-5.565 16.568,-4.194 15.683,-2.984C14.796,-1.775 13.547,-0.893 11.936,-0.337C13.72,0.113 15.005,0.916 15.792,2.071C16.579,3.227 16.972,4.679 16.972,6.423L16.972,9.139C16.972,10.038 17.076,10.844 17.288,11.558C17.501,12.272 17.85,12.853 18.339,13.303L18.339,13.779L15.921,13.779C15.431,13.303 15.088,12.635 14.89,11.776C14.691,10.918 14.592,10.025 14.592,9.1L14.592,6.463C14.592,4.692 14.021,3.294 12.877,2.27C11.733,1.245 10.138,0.733 8.089,0.733L0,0.733Z" style="fill:rgb(93,93,93);fill-rule:nonzero;"/>
        </g>
        <g transform="matrix(1,0,0,1,1086.09,215.686)">
            <path d="M0,3.211L8.941,-12.828L11.697,-12.828L1.17,5.491L1.17,16.039L-1.189,16.039L-1.189,5.352L-11.638,-12.828L-8.882,-12.828L0,3.211Z" style="fill:rgb(93,93,93);fill-rule:nonzero;"/>
        </g>
        <g transform="matrix(1,0,0,1,1147.84,204.88)">
            <path d="M0,24.822L17.705,24.822L17.705,26.844L-2.835,26.844L-2.835,25.003L14.176,0L-2.3,0L-2.3,-2.022L17.07,-2.022L17.07,-0.298L0,24.822Z" style="fill:rgb(93,93,93);fill-rule:nonzero;"/>
        </g>
        <g transform="matrix(1,0,0,1,1219.17,213.029)">
            <path d="M0,8.525L11.658,8.525L5.908,-7.098L5.79,-7.098L0,8.525ZM12.432,10.647L-0.793,10.647L-3.767,18.696L-6.225,18.696L4.739,-10.171L6.979,-10.171L17.863,18.696L15.405,18.696L12.432,10.647Z" style="fill:rgb(93,93,93);fill-rule:nonzero;"/>
        </g>
        <g transform="matrix(1,0,0,1,605.56,289.925)">
            <path d="M0,0.417L3.787,0.417C4.977,0.417 5.87,0.113 6.469,-0.489C7.065,-1.096 7.365,-1.857 7.365,-2.775C7.365,-3.701 7.068,-4.468 6.473,-5.081C5.878,-5.691 4.982,-5.997 3.787,-5.997L0,-5.997L0,0.417ZM0,1.428L0,7.425L-1.18,7.425L-1.18,-7.008L3.787,-7.008C5.3,-7.008 6.471,-6.624 7.302,-5.854C8.131,-5.083 8.545,-4.064 8.545,-2.795C8.545,-1.512 8.131,-0.489 7.302,0.278C6.471,1.045 5.3,1.428 3.787,1.428L0,1.428Z" style="fill:rgb(93,93,93);fill-rule:nonzero;"/>
        </g>
        <g transform="matrix(1,0,0,1,638.874,289.906)">
            <path d="M0,0.456L-6.949,0.456L-6.949,6.434L1.012,6.434L1.012,7.445L-8.129,7.445L-8.129,-6.989L0.962,-6.989L0.962,-5.978L-6.949,-5.978L-6.949,-0.555L0,-0.555L0,0.456Z" style="fill:rgb(93,93,93);fill-rule:nonzero;"/>
        </g>
        <g transform="matrix(1,0,0,1,657.399,290.461)">
            <path d="M0,-0.644L3.557,-0.644C4.859,-0.644 5.812,-0.906 6.412,-1.433C7.015,-1.956 7.316,-2.666 7.316,-3.559C7.316,-4.51 7.015,-5.242 6.418,-5.755C5.821,-6.267 4.917,-6.522 3.708,-6.522L0,-6.522L0,-0.644ZM0,0.367L0,6.89L-1.182,6.89L-1.182,-7.534L3.708,-7.534C5.254,-7.534 6.439,-7.195 7.265,-6.517C8.091,-5.841 8.506,-4.852 8.506,-3.549C8.506,-2.781 8.283,-2.096 7.84,-1.493C7.397,-0.886 6.772,-0.446 5.968,-0.168C6.86,0.056 7.502,0.458 7.895,1.037C8.287,1.614 8.485,2.34 8.485,3.212L8.485,4.57C8.485,5.02 8.537,5.422 8.645,5.779C8.749,6.136 8.924,6.428 9.168,6.652L9.168,6.89L7.958,6.89C7.715,6.652 7.542,6.319 7.442,5.889C7.344,5.458 7.296,5.012 7.296,4.55L7.296,3.232C7.296,2.346 7.011,1.648 6.437,1.136C5.864,0.623 5.067,0.367 4.045,0.367L0,0.367Z" style="fill:rgb(93,93,93);fill-rule:nonzero;"/>
        </g>
        <g transform="matrix(1,0,0,1,684.974,297.351)">
            <path d="M0,-14.434L5.302,-1.725L5.361,-1.725L10.687,-14.434L12.253,-14.434L12.253,0L11.071,0L11.071,-6.374L11.17,-12.689L11.11,-12.709L5.75,0L4.925,0L-0.429,-12.649L-0.487,-12.64L-0.377,-6.374L-0.377,0L-1.559,0L-1.559,-14.434L0,-14.434Z" style="fill:rgb(93,93,93);fill-rule:nonzero;"/>
        </g>
        <g transform="matrix(1,0,0,1,716.533,288.002)">
            <path d="M0,4.263L5.828,4.263L2.953,-3.549L2.895,-3.549L0,4.263ZM6.215,5.324L-0.397,5.324L-1.884,9.348L-3.113,9.348L2.369,-5.085L3.489,-5.085L8.931,9.348L7.702,9.348L6.215,5.324Z" style="fill:rgb(93,93,93);fill-rule:nonzero;"/>
        </g>
        <g transform="matrix(1,0,0,1,752.106,282.917)">
            <path d="M0,14.434L-1.18,14.434L-9.378,2.023L-9.438,2.033L-9.438,14.434L-10.627,14.434L-10.627,0L-9.438,0L-1.239,12.392L-1.18,12.382L-1.18,0L0,0L0,14.434Z" style="fill:rgb(93,93,93);fill-rule:nonzero;"/>
        </g>
        <g transform="matrix(1,0,0,1,777.827,289.906)">
            <path d="M0,0.456L-6.949,0.456L-6.949,6.434L1.011,6.434L1.011,7.445L-8.129,7.445L-8.129,-6.989L0.961,-6.989L0.961,-5.978L-6.949,-5.978L-6.949,-0.555L0,-0.555L0,0.456Z" style="fill:rgb(93,93,93);fill-rule:nonzero;"/>
        </g>
        <g transform="matrix(1,0,0,1,805.827,282.917)">
            <path d="M0,14.434L-1.178,14.434L-9.376,2.023L-9.436,2.033L-9.436,14.434L-10.625,14.434L-10.625,0L-9.436,0L-1.237,12.392L-1.178,12.382L-1.178,0L0,0L0,14.434Z" style="fill:rgb(93,93,93);fill-rule:nonzero;"/>
        </g>
        <g transform="matrix(1,0,0,1,832.809,296.339)">
            <path d="M0,-12.411L-4.967,-12.411L-4.967,1.011L-6.156,1.011L-6.156,-12.411L-11.122,-12.411L-11.122,-13.422L0,-13.422L0,-12.411Z" style="fill:rgb(93,93,93);fill-rule:nonzero;"/>
        </g>
        <g transform="matrix(1,0,0,1,869.261,297.351)">
            <path d="M0,-14.434L5.304,-1.725L5.363,-1.725L10.687,-14.434L12.252,-14.434L12.252,0L11.072,0L11.072,-6.374L11.172,-12.689L11.112,-12.709L5.749,0L4.927,0L-0.427,-12.649L-0.486,-12.64L-0.377,-6.374L-0.377,0L-1.557,0L-1.557,-14.434L0,-14.434Z" style="fill:rgb(93,93,93);fill-rule:nonzero;"/>
        </g>
        <g transform="matrix(1,0,0,1,900.819,288.002)">
            <path d="M0,4.263L5.829,4.263L2.954,-3.549L2.895,-3.549L0,4.263ZM6.216,5.324L-0.396,5.324L-1.883,9.348L-3.112,9.348L2.369,-5.085L3.489,-5.085L8.932,9.348L7.703,9.348L6.216,5.324Z" style="fill:rgb(93,93,93);fill-rule:nonzero;"/>
        </g>
        <g transform="matrix(1,0,0,1,928.929,289.697)">
            <path d="M0,0.873L-1.982,0.873L-1.982,7.653L-3.162,7.653L-3.162,-6.78L-1.982,-6.78L-1.982,-0.138L-0.01,-0.138L5.671,-6.78L7.009,-6.78L7.028,-6.731L1.061,0.322L7.455,7.603L7.436,7.653L6.027,7.653L0,0.873Z" style="fill:rgb(93,93,93);fill-rule:nonzero;"/>
        </g>
        <g transform="matrix(1,0,0,1,960.669,289.906)">
            <path d="M0,0.456L-6.949,0.456L-6.949,6.434L1.011,6.434L1.011,7.445L-8.129,7.445L-8.129,-6.989L0.961,-6.989L0.961,-5.978L-6.949,-5.978L-6.949,-0.555L0,-0.555L0,0.456Z" style="fill:rgb(93,93,93);fill-rule:nonzero;"/>
        </g>
        <g transform="matrix(1,0,0,1,988.134,297.559)">
            <path d="M0,-14.642L0,-4.858C0,-3.286 -0.482,-2.082 -1.441,-1.249C-2.405,-0.416 -3.658,0 -5.204,0C-6.731,0 -7.967,-0.418 -8.912,-1.255C-9.857,-2.09 -10.33,-3.291 -10.33,-4.858L-10.33,-14.642L-9.14,-14.642L-9.14,-4.866C-9.14,-3.636 -8.777,-2.686 -8.05,-2.017C-7.322,-1.347 -6.374,-1.011 -5.204,-1.011C-4.015,-1.011 -3.048,-1.345 -2.3,-2.013C-1.553,-2.679 -1.18,-3.63 -1.18,-4.866L-1.18,-14.642L0,-14.642Z" style="fill:rgb(93,93,93);fill-rule:nonzero;"/>
        </g>
        <g transform="matrix(1,0,0,1,1006.65,289.925)">
            <path d="M0,0.417L3.786,0.417C4.976,0.417 5.87,0.113 6.467,-0.489C7.065,-1.096 7.365,-1.857 7.365,-2.775C7.365,-3.701 7.067,-4.468 6.473,-5.081C5.878,-5.691 4.981,-5.997 3.786,-5.997L0,-5.997L0,0.417ZM0,1.428L0,7.425L-1.18,7.425L-1.18,-7.008L3.786,-7.008C5.299,-7.008 6.471,-6.624 7.3,-5.854C8.13,-5.083 8.545,-4.064 8.545,-2.795C8.545,-1.512 8.13,-0.489 7.3,0.278C6.471,1.045 5.299,1.428 3.786,1.428L0,1.428Z" style="fill:rgb(93,93,93);fill-rule:nonzero;"/>
        </g>
        <g transform="matrix(1,0,0,1,292.822,279.274)">
            <path d="M0,55.412L-169.371,55.412L-169.371,0L-166.797,0L-166.797,52.837L-2.574,52.837L-2.574,12.453L0,12.453L0,55.412Z" style="fill:rgb(93,93,93);fill-rule:nonzero;"/>
        </g>
        <g transform="matrix(1,0,0,1,292.821,165.314)">
            <path d="M0,59.917L-2.575,59.917L-2.575,2.575L-166.795,2.575L-166.795,31.621L-169.37,31.621L-169.37,0L0,0L0,59.917Z" style="fill:rgb(93,93,93);fill-rule:nonzero;"/>
        </g>
        <g transform="matrix(1,0,0,1,209.186,202.911)">
            <path d="M0,93.195C2.362,92.638 4.474,92.539 6.337,92.896C8.2,93.253 9.835,93.858 11.239,94.709C12.643,95.556 13.804,96.536 14.719,97.642C15.635,98.751 16.312,99.768 16.754,100.695C17.194,101.624 17.385,102.345 17.321,102.86C17.259,103.375 16.974,103.469 16.468,103.144C15.215,102.588 13.429,102.289 11.112,102.248C8.795,102.206 6.132,102.328 3.121,102.611C0.112,102.895 -3.11,103.299 -6.546,103.829C-9.979,104.356 -13.431,104.965 -16.896,105.651C-20.362,106.339 -23.717,107.033 -26.962,107.739C-30.206,108.443 -33.143,109.101 -35.776,109.717C-38.409,110.334 -40.604,110.854 -42.363,111.277C-44.12,111.703 -45.25,111.971 -45.751,112.081C-48.319,112.682 -50.515,112.799 -52.337,112.431C-54.157,112.067 -55.668,111.49 -56.862,110.705C-58.058,109.918 -58.946,109.077 -59.532,108.181C-60.12,107.284 -60.458,106.628 -60.548,106.213C-60.639,105.795 -60.639,105.339 -60.552,104.841C-60.464,104.341 -60.353,103.903 -60.216,103.527C-60.058,103.056 -59.852,102.6 -59.601,102.15C-58.399,102.674 -56.974,103.018 -55.326,103.184C-53.679,103.348 -51.846,103.363 -49.827,103.229C-50.628,102.751 -51.286,102.229 -51.801,101.666C-52.314,101.103 -52.64,100.509 -52.775,99.885C-52.847,99.552 -52.714,98.412 -52.373,96.467C-52.034,94.519 -51.589,92.059 -51.036,89.087C-50.485,86.115 -49.874,82.812 -49.201,79.182C-48.53,75.553 -47.789,71.913 -47.302,68.217C-46.879,64.996 -46.226,61.51 -45.792,57.569C-45.424,54.183 -44.278,48.607 -43.663,46.11C-42.294,40.975 -32.323,48.744 -32.231,49.169C-32.202,49.293 -32.423,50.343 -32.888,52.316C-33.353,54.289 -33.936,56.812 -34.642,59.884C-35.347,62.956 -36.087,66.416 -36.862,70.263C-37.637,74.114 -38.315,77.963 -38.896,81.812C-39.476,85.663 -39.872,89.353 -40.086,92.883C-40.298,96.413 -40.206,99.399 -39.808,101.838C-36.295,101.164 -32.665,100.429 -28.916,99.637C-25.168,98.845 -21.526,98.067 -17.989,97.299C-14.456,96.53 -11.134,95.788 -8.021,95.068C-4.912,94.348 -2.237,93.726 0,93.195M-84.37,29.163C-84.176,28.859 -83.738,28.362 -83.06,27.67C-82.384,26.979 -81.624,26.116 -80.781,25.082C-79.938,24.051 -79.097,22.91 -78.259,21.661C-77.419,20.412 -76.737,19.078 -76.221,17.658C-76.804,17.176 -77.413,16.828 -78.048,16.617C-78.681,16.407 -79.309,16.37 -79.933,16.506C-82.179,16.993 -84.497,17.799 -86.886,18.929C-89.278,20.057 -91.571,21.481 -93.768,23.2C-95.964,24.918 -98.002,26.918 -99.88,29.197C-101.759,31.477 -103.306,33.98 -104.521,36.707C-105.737,39.432 -106.534,42.38 -106.911,45.554C-107.289,48.731 -107.096,52.085 -106.327,55.621C-106.083,56.745 -105.7,57.597 -105.184,58.183C-104.663,58.765 -104.075,59.173 -103.415,59.4C-102.757,59.625 -102.034,59.698 -101.245,59.615C-100.458,59.53 -99.669,59.402 -98.88,59.231C-96.01,58.608 -93.422,57.578 -91.121,56.141C-88.819,54.705 -86.776,53.085 -84.991,51.284C-83.205,49.479 -81.659,47.619 -80.354,45.702C-79.05,43.785 -77.964,42.025 -77.091,40.42C-76.22,38.815 -75.55,37.495 -75.078,36.455C-74.606,35.416 -74.308,34.884 -74.185,34.854C-73.976,34.81 -73.72,34.94 -73.413,35.243C-73.107,35.549 -72.807,35.929 -72.513,36.388C-72.218,36.845 -71.958,37.335 -71.737,37.852C-71.515,38.371 -71.409,38.805 -71.419,39.156C-71.451,40.818 -71.778,42.673 -72.399,44.726C-73.022,46.777 -73.864,48.865 -74.927,50.992C-75.989,53.117 -77.222,55.215 -78.624,57.282C-80.026,59.349 -81.525,61.222 -83.122,62.897C-84.718,64.573 -86.368,65.999 -88.073,67.174C-89.777,68.35 -91.441,69.114 -93.063,69.466C-93.937,69.656 -95.144,69.667 -96.683,69.501C-98.222,69.334 -99.909,68.982 -101.745,68.445C-103.585,67.907 -105.481,67.186 -107.44,66.283C-109.403,65.382 -111.236,64.256 -112.945,62.905C-114.653,61.556 -116.146,60.007 -117.415,58.258C-118.688,56.508 -119.565,54.532 -120.045,52.327C-120.794,48.876 -120.776,45.399 -119.989,41.895C-119.204,38.392 -117.925,35.012 -116.149,31.752C-114.374,28.492 -112.233,25.411 -109.726,22.518C-107.22,19.62 -104.642,17.046 -101.993,14.793C-99.349,12.542 -96.757,10.685 -94.224,9.218C-91.689,7.753 -89.484,6.818 -87.613,6.412C-86.323,6.132 -85.068,6.143 -83.849,6.443C-82.63,6.744 -81.49,7.228 -80.432,7.892C-79.372,8.554 -78.427,9.349 -77.593,10.281C-76.76,11.209 -76.043,12.154 -75.442,13.112C-75.427,12.586 -75.472,12.071 -75.582,11.574C-75.642,11.283 -75.325,11.147 -74.624,11.171C-73.921,11.193 -73.103,11.404 -72.165,11.812C-71.229,12.218 -70.302,12.868 -69.39,13.757C-68.478,14.647 -67.862,15.821 -67.547,17.277C-67.276,18.525 -67.495,19.879 -68.199,21.341C-68.908,22.799 -69.836,24.187 -70.987,25.506C-72.139,26.822 -73.391,27.978 -74.743,28.967C-76.099,29.957 -77.313,30.569 -78.396,30.803C-78.895,30.914 -79.509,30.939 -80.241,30.877C-80.972,30.821 -81.674,30.7 -82.347,30.518C-83.016,30.339 -83.554,30.118 -83.959,29.857C-84.364,29.596 -84.502,29.367 -84.37,29.163M71.567,-0.387C71.929,-0.727 72.31,-0.831 72.708,-0.7C73.106,-0.57 73.484,-0.335 73.84,0.003C74.195,0.338 74.472,0.703 74.665,1.096C74.86,1.491 74.936,1.778 74.887,1.963C74.615,2.719 74.146,3.824 73.481,5.273C72.817,6.723 72.023,8.334 71.1,10.103C70.179,11.871 69.136,13.686 67.972,15.55C66.81,17.417 65.615,19.145 64.394,20.739C63.722,21.617 63.039,22.425 62.354,23.162C62.458,23.18 62.575,23.204 62.702,23.228C63.273,23.344 63.938,23.506 64.702,23.71C65.466,23.914 66.271,24.166 67.118,24.459C67.966,24.753 68.733,25.078 69.42,25.428C70.105,25.781 70.664,26.149 71.097,26.535C71.528,26.921 71.697,27.298 71.603,27.666C71.435,28.487 71.242,29.411 71.03,30.434C70.817,31.463 70.622,32.474 70.445,33.47C70.271,34.467 70.147,35.397 70.073,36.262C70,37.129 70.013,37.79 70.111,38.248C69.821,38.311 69.128,38.275 68.031,38.144C66.937,38.01 65.783,37.77 64.575,37.424C63.367,37.077 62.247,36.633 61.218,36.094C60.186,35.556 59.593,34.935 59.439,34.227C59.259,33.396 59.282,32.398 59.509,31.24C59.735,30.079 60.021,28.94 60.366,27.82C60.711,26.699 61.028,25.704 61.32,24.837C61.431,24.505 61.517,24.212 61.575,23.964C61.275,24.259 60.976,24.544 60.673,24.812C59.413,25.936 58.202,26.624 57.036,26.877C55.624,27.182 54.023,27.291 52.239,27.201C50.456,27.107 48.721,26.734 47.032,26.077C45.341,25.418 43.845,24.439 42.538,23.133C41.493,22.091 40.72,20.788 40.218,19.227L40.136,19.44C39.551,20.961 38.971,22.448 38.393,23.901C37.813,25.357 37.281,26.658 36.79,27.808C36.3,28.963 35.882,29.892 35.534,30.598C35.418,30.835 35.314,31.032 35.224,31.193C35.56,31.224 36.01,31.288 36.576,31.383C37.638,31.567 38.769,31.856 39.964,32.25C41.16,32.643 42.273,33.155 43.303,33.778C44.331,34.405 44.934,35.135 45.116,35.966C45.198,36.34 45.075,37.279 44.749,38.79C44.425,40.298 43.989,42.156 43.445,44.365C42.903,46.573 42.302,49.022 41.644,51.713C40.985,54.405 40.366,57.119 39.786,59.86C40.798,57.897 41.849,55.969 42.94,54.079C44.032,52.186 45.124,50.491 46.213,48.991C47.303,47.491 48.332,46.255 49.296,45.282C50.26,44.312 51.095,43.748 51.806,43.593C52.552,43.432 53.331,43.612 54.14,44.132C54.952,44.654 55.698,45.275 56.377,45.999C57.032,46.688 57.688,47.452 58.347,48.291C58.434,47.82 58.52,47.363 58.602,46.921C58.905,45.308 59.159,43.968 59.362,42.901C59.567,41.833 59.649,41.216 59.614,41.05C59.737,41.022 60.085,41.067 60.655,41.182C61.226,41.297 61.891,41.459 62.655,41.664C63.417,41.867 64.224,42.119 65.071,42.413C65.919,42.708 66.687,43.031 67.372,43.382C68.058,43.734 68.618,44.102 69.05,44.487C69.481,44.874 69.651,45.253 69.556,45.621C69.434,46.255 69.196,47.364 68.843,48.943C68.486,50.523 68.146,52.363 67.817,54.459C67.487,56.555 67.221,58.779 67.013,61.133C66.806,63.489 66.761,65.739 66.878,67.892L74.402,51.522C74.892,48.787 75.638,46.317 76.645,44.111C77.692,41.816 78.899,39.901 80.263,38.36C81.628,36.824 82.888,35.909 84.044,35.615C84.377,35.541 84.993,35.572 85.891,35.703C86.792,35.834 87.772,36.035 88.833,36.305C89.894,36.574 90.923,36.907 91.924,37.3C92.924,37.692 93.711,38.11 94.286,38.55C94.577,38.489 94.948,38.494 95.401,38.57C95.854,38.647 96.321,38.849 96.806,39.178C97.292,39.509 97.762,40.017 98.214,40.703C98.669,41.389 99.024,42.313 99.277,43.477C99.483,44.827 99.49,46.22 99.3,47.654C99.11,49.09 98.694,50.434 98.053,51.682C97.409,52.931 96.517,54.041 95.374,55.006C94.236,55.974 92.813,56.642 91.108,57.011C89.237,57.418 87.745,57.427 86.638,57.036C85.529,56.645 84.708,56.028 84.177,55.184C84.151,55.67 84.118,56.113 84.074,56.513C84.031,56.916 84.007,57.302 83.999,57.674C83.993,58.045 84.004,58.446 84.032,58.876C84.061,59.304 84.114,59.816 84.202,60.408C84.351,61.288 84.646,62.053 85.09,62.696C85.535,63.341 86.081,63.852 86.731,64.235C87.38,64.617 88.075,64.857 88.815,64.958C89.556,65.059 90.296,65.006 91.036,64.804C91.858,64.58 92.741,64.029 93.682,63.149C94.623,62.27 95.595,61.177 96.597,59.87C97.597,58.565 98.58,57.122 99.543,55.54C100.507,53.96 101.413,52.368 102.263,50.766C103.112,49.169 103.89,47.628 104.593,46.145C105.294,44.665 105.853,43.377 106.269,42.285C106.631,41.946 107.011,41.841 107.41,41.972C107.81,42.105 108.186,42.338 108.543,42.675C108.897,43.01 109.175,43.376 109.368,43.77C109.563,44.164 109.635,44.452 109.588,44.635C109.318,45.392 108.848,46.495 108.185,47.946C107.519,49.399 106.726,51.007 105.804,52.775C104.881,54.546 103.837,56.36 102.674,58.225C101.511,60.089 100.317,61.816 99.096,63.413C97.875,65.006 96.633,66.365 95.376,67.485C94.116,68.608 92.905,69.296 91.739,69.55C90.326,69.857 88.726,69.966 86.942,69.873C85.158,69.782 83.422,69.405 81.733,68.75C80.046,68.093 78.548,67.11 77.239,65.806C76.195,64.763 75.423,63.462 74.919,61.9L74.835,62.113C74.253,63.634 73.671,65.122 73.096,66.575C72.517,68.028 71.983,69.332 71.493,70.483C71.001,71.634 70.583,72.565 70.235,73.272C69.889,73.978 69.653,74.346 69.528,74.373C69.194,74.445 68.856,74.432 68.509,74.335C68.159,74.234 67.796,74.117 67.417,73.982C66.79,73.899 65.903,73.678 64.759,73.317C63.612,72.956 62.46,72.511 61.3,71.98C60.138,71.447 59.108,70.864 58.209,70.232C57.31,69.6 56.791,68.972 56.655,68.347C56.394,67.143 56.286,65.641 56.331,63.845C56.377,62.049 56.514,60.167 56.741,58.204C56.964,56.238 57.257,54.268 57.613,52.297C57.803,51.248 57.983,50.251 58.158,49.304C55.874,51.204 53.993,53.004 52.518,54.709C50.917,56.56 49.656,58.174 48.735,59.55C47.651,61.179 46.846,62.682 46.317,64.06C46.498,64.891 47.006,65.979 47.843,67.323C48.679,68.665 49.731,70.103 50.998,71.634C52.269,73.166 53.667,74.691 55.194,76.211C56.722,77.73 58.257,79.085 59.801,80.274C61.345,81.465 62.85,82.38 64.317,83.017C65.784,83.658 67.061,83.859 68.14,83.625C68.472,83.552 68.581,83.801 68.466,84.371C68.35,84.94 68.052,85.614 67.565,86.395C67.083,87.175 66.438,87.924 65.636,88.643C64.833,89.363 63.912,89.834 62.874,90.059C61.418,90.379 60.007,90.345 58.64,89.969C57.272,89.589 55.963,88.981 54.715,88.14C53.466,87.301 52.287,86.284 51.177,85.087C50.069,83.889 49.048,82.652 48.116,81.374C45.938,78.363 43.946,74.809 42.144,70.714C41.817,71.221 41.493,71.988 41.173,73.015C40.853,74.045 40.552,75.122 40.274,76.249C39.997,77.378 39.753,78.464 39.545,79.511C39.337,80.557 39.183,81.354 39.083,81.898C39.12,82.065 39.157,82.187 39.196,82.265C39.235,82.345 39.264,82.425 39.279,82.509C39.3,82.592 39.339,82.67 39.398,82.747C39.065,82.816 38.313,82.762 37.142,82.582C35.97,82.4 34.739,82.1 33.451,81.685C32.163,81.267 30.979,80.729 29.899,80.071C28.819,79.412 28.187,78.645 27.995,77.772C27.663,76.233 27.637,74.062 27.92,71.256L27.923,71.215C26.333,72.388 24.679,73.263 22.96,73.836C22.415,75.347 21.779,76.878 21.05,78.43C20.32,79.983 19.476,81.41 18.517,82.707C17.556,84.002 16.501,85.114 15.353,86.04C14.202,86.964 12.962,87.57 11.632,87.858C10.591,88.085 9.339,87.977 7.868,87.533C6.4,87.089 4.961,86.477 3.55,85.693C2.14,84.912 0.893,84.038 -0.187,83.077C-1.269,82.114 -1.944,81.203 -2.216,80.349C-2.536,79.354 -2.78,78.339 -2.948,77.304C-3.166,77.487 -3.388,77.666 -3.611,77.842C-5.326,79.172 -7.116,80.149 -8.985,80.772C-9.528,82.284 -10.163,83.817 -10.894,85.369C-11.624,86.921 -12.471,88.345 -13.43,89.643C-14.387,90.94 -15.442,92.052 -16.593,92.975C-17.742,93.901 -18.983,94.507 -20.312,94.797C-21.354,95.022 -22.606,94.913 -24.075,94.468C-25.545,94.026 -26.982,93.414 -28.396,92.633C-29.806,91.848 -31.052,90.976 -32.132,90.012C-33.213,89.049 -33.89,88.14 -34.161,87.284C-34.97,84.758 -35.296,82.108 -35.14,79.33C-34.978,76.551 -34.484,73.961 -33.656,71.56C-32.828,69.158 -31.729,67.103 -30.358,65.389C-28.988,63.674 -27.511,62.647 -25.933,62.304C-25.266,62.16 -24.37,62.216 -23.247,62.471C-22.125,62.731 -20.976,63.067 -19.795,63.486C-18.616,63.905 -17.528,64.344 -16.536,64.802C-15.543,65.264 -14.849,65.602 -14.452,65.822C-13.802,65.812 -13.147,65.864 -12.491,65.984C-11.832,66.104 -11.192,66.354 -10.562,66.742C-9.933,67.128 -9.349,67.664 -8.806,68.353C-8.265,69.041 -7.806,69.953 -7.429,71.092C-7.11,72.155 -7.223,73.944 -7.767,76.458C-7.336,76.233 -6.962,75.999 -6.644,75.757C-6.327,75.513 -6.015,75.293 -5.709,75.095C-4.896,74.439 -4.126,73.663 -3.404,72.766C-3.338,72.678 -3.268,72.592 -3.198,72.507L-3.194,72.394C-3.034,69.614 -2.54,67.025 -1.712,64.623C-0.883,62.221 0.217,60.166 1.586,58.453C2.956,56.741 4.433,55.71 6.014,55.368C6.679,55.222 7.573,55.28 8.695,55.538C9.817,55.794 10.97,56.132 12.149,56.551C13.331,56.968 14.416,57.409 15.409,57.87C16.401,58.327 17.097,58.667 17.489,58.885C18.142,58.877 18.798,58.929 19.454,59.048C20.111,59.167 20.755,59.418 21.382,59.804C22.013,60.19 22.596,60.729 23.137,61.417C23.679,62.106 24.138,63.017 24.517,64.153C24.834,65.217 24.723,67.008 24.179,69.52C24.609,69.296 24.983,69.062 25.3,68.82C25.616,68.578 25.928,68.357 26.236,68.159C27.051,67.504 27.819,66.726 28.538,65.829L28.631,65.713C28.813,64.52 29.019,63.289 29.246,62.017C29.847,58.664 30.515,55.231 31.257,51.715C31.868,48.806 32.433,46.094 32.951,43.578L32.864,43.722C32.38,44.501 31.738,45.253 30.934,45.97C30.133,46.69 29.211,47.162 28.171,47.388C26.718,47.705 25.304,47.672 23.937,47.295C22.569,46.916 21.262,46.306 20.012,45.467C18.764,44.63 17.585,43.609 16.475,42.413C15.364,41.216 14.345,39.979 13.415,38.7C11.237,35.691 9.245,32.136 7.441,28.042C7.117,28.548 6.792,29.315 6.471,30.343C6.15,31.371 5.851,32.45 5.572,33.575C5.294,34.705 5.053,35.793 4.844,36.838C4.636,37.884 4.479,38.68 4.381,39.224C4.417,39.391 4.456,39.514 4.494,39.592C4.532,39.672 4.562,39.754 4.579,39.836C4.599,39.92 4.636,39.998 4.695,40.072C4.362,40.143 3.612,40.089 2.438,39.908C1.267,39.727 0.038,39.427 -1.251,39.011C-2.54,38.594 -3.724,38.056 -4.802,37.396C-5.881,36.739 -6.517,35.974 -6.706,35.1C-7.042,33.563 -7.065,31.388 -6.782,28.582L-6.778,28.541C-8.368,29.716 -10.024,30.588 -11.743,31.163C-12.286,32.674 -12.921,34.206 -13.653,35.757C-14.381,37.311 -15.226,38.735 -16.187,40.033C-17.147,41.33 -18.2,42.441 -19.349,43.366C-20.501,44.29 -21.739,44.898 -23.071,45.187C-24.11,45.414 -25.364,45.302 -26.833,44.862C-28.3,44.419 -29.741,43.803 -31.152,43.022C-32.563,42.24 -33.809,41.366 -34.89,40.402C-35.97,39.439 -36.646,38.532 -36.919,37.675C-37.237,36.68 -37.482,35.667 -37.651,34.632C-37.87,34.814 -38.089,34.994 -38.313,35.169C-40.028,36.499 -41.819,37.477 -43.688,38.1C-44.229,39.611 -44.866,41.143 -45.597,42.693C-46.328,44.248 -47.171,45.673 -48.132,46.97C-49.092,48.267 -50.146,49.378 -51.296,50.302C-52.444,51.227 -53.685,51.835 -55.017,52.124C-56.056,52.349 -57.31,52.241 -58.778,51.799C-60.246,51.353 -61.686,50.739 -63.098,49.962C-64.508,49.174 -65.754,48.303 -66.835,47.34C-67.914,46.377 -68.591,45.467 -68.864,44.613C-69.675,42.087 -69.998,39.434 -69.841,36.657C-69.681,33.879 -69.188,31.288 -68.359,28.887C-67.529,26.485 -66.431,24.427 -65.06,22.716C-63.69,21.002 -62.214,19.974 -60.634,19.631C-59.968,19.487 -59.075,19.543 -57.951,19.799C-56.827,20.057 -55.677,20.394 -54.498,20.813C-53.315,21.232 -52.23,21.672 -51.238,22.13C-50.247,22.591 -49.551,22.931 -49.155,23.149C-48.505,23.138 -47.851,23.192 -47.191,23.31C-46.536,23.43 -45.892,23.681 -45.264,24.068C-44.636,24.454 -44.051,24.992 -43.511,25.68C-42.969,26.368 -42.507,27.282 -42.13,28.42C-41.812,29.481 -41.925,31.271 -42.468,33.783C-42.039,33.559 -41.663,33.325 -41.347,33.081C-41.03,32.84 -40.718,32.621 -40.412,32.423C-39.596,31.766 -38.829,30.989 -38.109,30.092C-38.04,30.007 -37.972,29.918 -37.901,29.833L-37.896,29.719C-37.736,26.943 -37.243,24.352 -36.413,21.95C-35.584,19.549 -34.485,17.49 -33.117,15.777C-31.745,14.066 -30.271,13.037 -28.69,12.694C-28.023,12.549 -27.13,12.605 -26.007,12.863C-24.884,13.12 -23.731,13.458 -22.554,13.878C-21.372,14.295 -20.286,14.735 -19.294,15.194C-18.3,15.655 -17.607,15.993 -17.21,16.214C-16.561,16.202 -15.905,16.256 -15.249,16.374C-14.59,16.492 -13.948,16.746 -13.319,17.132C-12.692,17.517 -12.105,18.055 -11.565,18.744C-11.021,19.431 -10.563,20.343 -10.187,21.48C-9.868,22.547 -9.981,24.333 -10.524,26.848C-10.094,26.624 -9.718,26.391 -9.401,26.147C-9.085,25.903 -8.774,25.683 -8.467,25.486C-7.653,24.829 -6.884,24.054 -6.165,23.157L-6.071,23.039C-5.89,21.845 -5.685,20.613 -5.456,19.345C-4.856,15.989 -4.187,12.556 -3.446,9.042C-2.708,5.527 -2.035,2.299 -1.434,-0.642C-0.831,-3.58 -0.374,-6.042 -0.063,-8.027C0.245,-10.008 0.235,-11.161 -0.097,-11.48C0.153,-11.535 0.811,-11.471 1.873,-11.289C2.937,-11.106 4.065,-10.817 5.263,-10.423C6.458,-10.031 7.57,-9.522 8.6,-8.895C9.628,-8.268 10.233,-7.54 10.413,-6.707C10.495,-6.334 10.374,-5.394 10.046,-3.884C9.722,-2.375 9.287,-0.518 8.741,1.691C8.197,3.9 7.599,6.35 6.94,9.04C6.286,11.731 5.665,14.446 5.085,17.185C6.094,15.224 7.147,13.298 8.238,11.406C9.331,9.512 10.421,7.817 11.511,6.315C12.601,4.817 13.629,3.582 14.593,2.609C15.558,1.637 16.396,1.075 17.101,0.923C17.851,0.758 18.632,0.937 19.44,1.461C20.249,1.98 20.995,2.602 21.673,3.325C22.331,4.013 22.986,4.778 23.644,5.616C23.731,5.146 23.816,4.689 23.901,4.248C24.204,2.634 24.458,1.295 24.659,0.227C24.863,-0.84 24.948,-1.458 24.911,-1.624C25.036,-1.651 25.384,-1.607 25.954,-1.492C26.524,-1.374 27.189,-1.215 27.951,-1.009C28.715,-0.807 29.521,-0.554 30.369,-0.259C31.217,0.033 31.984,0.358 32.672,0.71C33.356,1.061 33.914,1.429 34.349,1.815C34.78,2.201 34.948,2.577 34.854,2.948C34.731,3.583 34.493,4.691 34.14,6.27C33.786,7.851 33.444,9.688 33.115,11.786C32.786,13.882 32.517,16.105 32.311,18.462C32.103,20.814 32.06,23.066 32.177,25.219L39.7,8.85C40.189,6.114 40.937,3.645 41.943,1.44C42.99,-0.857 44.197,-2.773 45.563,-4.312C46.925,-5.849 48.187,-6.765 49.342,-7.06C49.675,-7.132 50.292,-7.102 51.19,-6.97C52.091,-6.839 53.07,-6.639 54.13,-6.368C55.192,-6.097 56.224,-5.765 57.22,-5.373C58.221,-4.98 59.01,-4.564 59.584,-4.12C59.876,-4.186 60.247,-4.179 60.698,-4.103C61.15,-4.028 61.619,-3.824 62.104,-3.494C62.591,-3.162 63.06,-2.656 63.515,-1.971C63.965,-1.284 64.322,-0.36 64.574,0.805C64.778,2.155 64.788,3.546 64.599,4.981C64.411,6.417 63.993,7.758 63.349,9.009C62.708,10.259 61.815,11.368 60.675,12.333C59.534,13.301 58.112,13.969 56.406,14.339C54.534,14.746 53.044,14.753 51.937,14.361C50.826,13.972 50.009,13.354 49.478,12.513C49.45,12.996 49.415,13.439 49.373,13.841C49.327,14.242 49.304,14.629 49.298,15C49.29,15.372 49.302,15.772 49.329,16.201C49.358,16.632 49.414,17.141 49.499,17.732C49.646,18.616 49.942,19.381 50.39,20.022C50.833,20.666 51.38,21.181 52.029,21.562C52.678,21.944 53.374,22.184 54.112,22.285C54.853,22.384 55.594,22.333 56.334,22.128C57.156,21.906 58.038,21.356 58.98,20.476C59.921,19.598 60.895,18.503 61.894,17.198C62.895,15.89 63.877,14.448 64.839,12.867C65.805,11.287 66.71,9.694 67.56,8.093C68.411,6.493 69.187,4.955 69.89,3.472C70.591,1.991 71.151,0.707 71.567,-0.387M34.817,31.702C34.487,31.771 34.149,31.758 33.804,31.662C33.457,31.562 33.095,31.445 32.716,31.309C32.089,31.226 31.202,31.006 30.057,30.645C28.911,30.283 27.757,29.839 26.599,29.304C25.437,28.774 24.406,28.191 23.507,27.558C22.607,26.925 22.091,26.299 21.954,25.674C21.692,24.467 21.585,22.967 21.63,21.172C21.675,19.377 21.812,17.496 22.036,15.53C22.265,13.564 22.555,11.594 22.912,9.623C23.101,8.575 23.283,7.578 23.456,6.631C21.171,8.529 19.292,10.331 17.815,12.035C16.214,13.886 14.953,15.501 14.032,16.877C12.948,18.507 12.142,20.009 11.616,21.388C11.795,22.219 12.305,23.306 13.14,24.648C13.976,25.993 15.026,27.43 16.298,28.961C17.567,30.493 18.965,32.018 20.492,33.539C22.019,35.057 23.557,36.412 25.101,37.603C26.643,38.79 28.147,39.706 29.614,40.343C31.083,40.985 32.356,41.186 33.437,40.952C33.456,40.946 33.474,40.945 33.491,40.944C33.985,38.479 34.368,36.382 34.637,34.647C34.855,33.257 34.915,32.274 34.817,31.702M57.996,-2.405C57.581,-2.314 56.992,-1.97 56.229,-1.368C55.468,-0.767 54.667,0.061 53.828,1.114C52.989,2.168 52.192,3.461 51.437,4.997C50.681,6.533 50.128,8.299 49.776,10.29C50.032,10.452 50.358,10.556 50.759,10.6C51.161,10.644 51.653,10.602 52.234,10.476C53.44,10.213 54.476,9.608 55.336,8.659C56.196,7.71 56.902,6.598 57.453,5.325C58.005,4.049 58.415,2.731 58.685,1.366C58.954,0.001 59.108,-1.209 59.14,-2.262C58.836,-2.456 58.454,-2.503 57.996,-2.405M35.409,-4.427C35.118,-4.364 34.425,-4.398 33.328,-4.53C32.233,-4.661 31.081,-4.902 29.872,-5.248C28.665,-5.598 27.546,-6.039 26.514,-6.576C25.482,-7.115 24.89,-7.74 24.735,-8.446C24.556,-9.279 24.578,-10.274 24.806,-11.433C25.035,-12.593 25.319,-13.733 25.665,-14.854C26.01,-15.975 26.327,-16.968 26.618,-17.837C26.908,-18.707 27.021,-19.286 26.958,-19.576C27.083,-19.604 27.429,-19.56 28.001,-19.445C28.571,-19.329 29.236,-19.168 29.999,-18.963C30.763,-18.76 31.567,-18.509 32.415,-18.214C33.264,-17.92 34.031,-17.596 34.716,-17.244C35.403,-16.893 35.962,-16.525 36.394,-16.139C36.825,-15.752 36.995,-15.377 36.902,-15.008C36.729,-14.187 36.538,-13.262 36.328,-12.238C36.113,-11.209 35.921,-10.199 35.745,-9.201C35.569,-8.204 35.444,-7.277 35.371,-6.41C35.297,-5.544 35.311,-4.883 35.409,-4.427M-24.933,41.735C-24.265,41.591 -23.62,41.201 -22.997,40.563C-22.373,39.927 -21.781,39.134 -21.226,38.186C-20.672,37.237 -20.15,36.169 -19.67,34.973C-19.188,33.782 -18.757,32.556 -18.378,31.297C-19.031,31.09 -19.706,30.802 -20.396,30.429C-21.089,30.055 -21.745,29.632 -22.368,29.158C-22.792,28.813 -23.228,28.42 -23.673,27.972C-24.119,27.523 -24.534,27.015 -24.919,26.446C-25.817,28.729 -26.405,31.08 -26.688,33.492C-26.97,35.905 -26.79,38.09 -26.148,40.041C-26.12,40.165 -26.075,40.329 -26.009,40.531C-25.942,40.737 -25.856,40.935 -25.749,41.13C-25.641,41.325 -25.521,41.483 -25.384,41.606C-25.249,41.728 -25.097,41.772 -24.933,41.735M-16.802,20.501C-17.135,19.572 -17.601,18.976 -18.202,18.716C-18.804,18.454 -19.384,18.341 -19.943,18.373C-20.931,19.241 -21.862,20.466 -22.737,22.05C-22.775,22.277 -22.775,22.483 -22.734,22.671C-22.692,22.858 -22.649,23.056 -22.604,23.263C-22.446,23.796 -22.169,24.313 -21.778,24.816C-21.386,25.317 -20.952,25.766 -20.472,26.166C-19.993,26.561 -19.494,26.912 -18.972,27.212C-18.447,27.511 -17.952,27.741 -17.483,27.901C-17.099,26.25 -16.836,24.755 -16.689,23.417C-16.546,22.079 -16.582,21.106 -16.802,20.501M-56.874,48.672C-56.21,48.528 -55.565,48.135 -54.94,47.501C-54.317,46.863 -53.727,46.073 -53.171,45.124C-52.614,44.175 -52.094,43.104 -51.614,41.912C-51.132,40.717 -50.702,39.491 -50.322,38.232C-50.978,38.025 -51.649,37.738 -52.341,37.366C-53.031,36.992 -53.688,36.568 -54.314,36.094C-54.737,35.752 -55.172,35.355 -55.618,34.909C-56.063,34.46 -56.479,33.953 -56.864,33.382C-57.763,35.666 -58.353,38.017 -58.631,40.429C-58.915,42.843 -58.735,45.024 -58.093,46.977C-58.065,47.101 -58.019,47.263 -57.954,47.469C-57.888,47.674 -57.8,47.872 -57.693,48.067C-57.586,48.26 -57.464,48.42 -57.329,48.542C-57.193,48.664 -57.042,48.709 -56.874,48.672M-48.746,27.438C-49.079,26.508 -49.545,25.913 -50.146,25.651C-50.749,25.389 -51.327,25.277 -51.887,25.311C-52.875,26.178 -53.807,27.404 -54.681,28.989C-54.72,29.214 -54.718,29.421 -54.679,29.607C-54.638,29.795 -54.595,29.991 -54.549,30.202C-54.39,30.732 -54.116,31.25 -53.723,31.753C-53.33,32.257 -52.895,32.705 -52.416,33.101C-51.938,33.5 -51.437,33.846 -50.915,34.148C-50.394,34.447 -49.897,34.678 -49.427,34.838C-49.044,33.186 -48.78,31.692 -48.638,30.352C-48.491,29.015 -48.526,28.044 -48.746,27.438M92.698,40.268C92.282,40.359 91.693,40.703 90.932,41.305C90.169,41.906 89.368,42.733 88.53,43.787C87.692,44.839 86.895,46.133 86.142,47.672C85.384,49.206 84.83,50.971 84.479,52.964C84.733,53.128 85.06,53.229 85.462,53.273C85.862,53.316 86.354,53.275 86.937,53.147C88.145,52.887 89.177,52.282 90.038,51.332C90.899,50.383 91.604,49.27 92.156,47.997C92.708,46.724 93.116,45.404 93.388,44.04C93.655,42.674 93.808,41.465 93.841,40.413C93.538,40.216 93.157,40.168 92.698,40.268M-22.174,91.345C-21.509,91.201 -20.862,90.809 -20.238,90.175C-19.614,89.538 -19.024,88.745 -18.468,87.797C-17.911,86.849 -17.393,85.776 -16.911,84.585C-16.431,83.391 -15.999,82.166 -15.619,80.908C-16.274,80.701 -16.946,80.41 -17.638,80.039C-18.329,79.665 -18.986,79.243 -19.613,78.767C-20.034,78.425 -20.47,78.03 -20.915,77.582C-21.36,77.133 -21.776,76.626 -22.161,76.053C-23.06,78.341 -23.647,80.69 -23.931,83.104C-24.212,85.517 -24.032,87.699 -23.392,89.65C-23.363,89.774 -23.317,89.94 -23.251,90.142C-23.186,90.344 -23.099,90.545 -22.991,90.739C-22.882,90.933 -22.763,91.092 -22.626,91.215C-22.491,91.339 -22.34,91.382 -22.174,91.345M-14.044,70.111C-14.375,69.18 -14.844,68.585 -15.446,68.324C-16.045,68.063 -16.626,67.951 -17.185,67.985C-18.174,68.851 -19.104,70.079 -19.979,71.662C-20.019,71.885 -20.019,72.092 -19.976,72.281C-19.935,72.467 -19.892,72.666 -19.847,72.874C-19.688,73.406 -19.412,73.923 -19.019,74.426C-18.628,74.929 -18.193,75.379 -17.714,75.774C-17.237,76.174 -16.735,76.521 -16.214,76.821C-15.691,77.122 -15.194,77.351 -14.724,77.511C-14.341,75.86 -14.079,74.366 -13.934,73.027C-13.789,71.689 -13.825,70.716 -14.044,70.111M9.771,84.409C10.438,84.263 11.081,83.875 11.706,83.237C12.329,82.602 12.921,81.808 13.477,80.86C14.031,79.912 14.552,78.841 15.032,77.647C15.515,76.456 15.944,75.229 16.326,73.969C15.669,73.764 14.997,73.474 14.306,73.103C13.616,72.727 12.958,72.305 12.332,71.832C11.909,71.487 11.475,71.092 11.03,70.645C10.584,70.197 10.167,69.688 9.783,69.118C8.886,71.402 8.296,73.754 8.015,76.165C7.733,78.579 7.911,80.761 8.555,82.714C8.581,82.837 8.626,83.002 8.692,83.205C8.759,83.409 8.847,83.607 8.952,83.802C9.061,83.997 9.183,84.155 9.319,84.279C9.454,84.402 9.605,84.445 9.771,84.409M17.899,63.174C17.567,62.244 17.102,61.648 16.499,61.387C15.897,61.126 15.319,61.012 14.759,61.047C13.772,61.917 12.841,63.141 11.964,64.724C11.927,64.951 11.929,65.158 11.97,65.343C12.011,65.532 12.054,65.729 12.098,65.935C12.257,66.468 12.532,66.987 12.924,67.49C13.317,67.992 13.752,68.442 14.229,68.84C14.71,69.236 15.208,69.585 15.731,69.885C16.255,70.186 16.751,70.415 17.222,70.574C17.603,68.922 17.866,67.428 18.012,66.09C18.157,64.751 18.119,63.781 17.899,63.174" style="fill:rgb(93,93,93);fill-rule:nonzero;"/>
        </g>
    </g>
</svg>
