<?xml version="1.0" encoding="UTF-8" standalone="no"?><!DOCTYPE svg PUBLIC "-//W3C//DTD SVG 1.1//EN" "http://www.w3.org/Graphics/SVG/1.1/DTD/svg11.dtd"><svg width="100%" height="100%" viewBox="0 0 2615 1695" version="1.1" xmlns="http://www.w3.org/2000/svg" xmlns:xlink="http://www.w3.org/1999/xlink" xml:space="preserve" xmlns:serif="http://www.serif.com/" style="fill-rule:evenodd;clip-rule:evenodd;stroke-linejoin:round;stroke-miterlimit:2;"><rect id="Page-3" serif:id="Page 3" x="0" y="0" width="2614.91" height="1694.56" style="fill:none;"/><clipPath id="_clip1"><rect x="0" y="0" width="2614.91" height="1694.56"/></clipPath><g clip-path="url(#_clip1)"><g id="Warstwa-1" serif:id="Warstwa 1"><path d="M1909.46,1233.39l-1233.32,0l0,-403.5l18.75,0l0,384.75l1195.82,0l-0,-294.069l18.75,0l-0,312.819Z" style="fill:#5d5d5d;fill-rule:nonzero;"/><path d="M1909.45,436.372l-18.75,0l0,-417.55l-1195.81,0l0,211.507l-18.75,-0l0,-230.257l1233.31,0l0,436.3Z" style="fill:#5d5d5d;fill-rule:nonzero;"/><path d="M47.09,1403.6l7.325,-0l0,63.662c0,8.094 -2.412,14.538 -7.231,19.313c-4.825,4.781 -11.062,7.175 -18.712,7.175c-8.338,-0 -14.932,-2.156 -19.775,-6.469c-4.838,-4.319 -7.157,-10.625 -6.957,-18.925l0.125,-0.362l6.832,-0c-0,6.406 1.712,11.262 5.131,14.575c3.419,3.3 8.3,4.956 14.644,4.956c5.418,-0 9.875,-1.838 13.368,-5.519c3.5,-3.681 5.25,-8.612 5.25,-14.794l0,-63.612Z" style="fill:#5d5d5d;fill-rule:nonzero;"/><path d="M276.815,1403.6l-0,60.244c-0,9.681 -2.963,17.087 -8.882,22.212c-5.918,5.131 -13.643,7.694 -23.162,7.694c-9.4,-0 -17.013,-2.575 -22.825,-7.725c-5.819,-5.144 -8.731,-12.538 -8.731,-22.181l-0,-60.244l7.325,-0l-0,60.2c-0,7.562 2.237,13.406 6.712,17.537c4.475,4.125 10.319,6.188 17.519,6.188c7.325,-0 13.287,-2.05 17.881,-6.163c4.6,-4.106 6.9,-9.956 6.9,-17.562l0,-60.2l7.263,-0Z" style="fill:#5d5d5d;fill-rule:nonzero;"/><path d="M486.885,1470.64c0,-4.832 -1.812,-8.788 -5.431,-11.85c-3.619,-3.075 -9.931,-5.782 -18.919,-8.138c-9.725,-2.444 -17.093,-5.619 -22.1,-9.525c-5,-3.906 -7.506,-9.169 -7.506,-15.806c0,-6.794 2.794,-12.331 8.394,-16.6c5.594,-4.275 12.787,-6.413 21.575,-6.413c9.156,0 16.544,2.55 22.156,7.632c5.613,5.087 8.344,11.293 8.181,18.618l-0.187,0.363l-6.713,-0c0,-5.938 -2.106,-10.819 -6.318,-14.65c-4.207,-3.825 -9.919,-5.738 -17.119,-5.738c-7.125,0 -12.681,1.588 -16.694,4.763c-4.006,3.175 -6.012,7.125 -6.012,11.844c-0,4.475 1.85,8.206 5.556,11.2c3.706,2.987 10.087,5.625 19.162,7.9c9.569,2.443 16.838,5.737 21.825,9.887c4.982,4.15 7.475,9.625 7.475,16.419c0,7.081 -2.9,12.719 -8.7,16.906c-5.793,4.194 -13.193,6.288 -22.187,6.288c-8.863,-0 -16.613,-2.225 -23.219,-6.682c-6.612,-4.456 -9.819,-10.956 -9.612,-19.5l0.118,-0.368l6.713,-0c-0,6.9 2.581,12.012 7.756,15.331c5.169,3.337 11.244,4.994 18.244,4.994c7.037,-0 12.731,-1.544 17.062,-4.632c4.332,-3.087 6.5,-7.168 6.5,-12.243" style="fill:#5d5d5d;fill-rule:nonzero;"/><path d="M708.248,1409.82l-30.581,0l-0,82.644l-7.319,0l-0,-82.644l-30.581,0l-0,-6.225l68.481,0l-0,6.225Z" style="fill:#5d5d5d;fill-rule:nonzero;"/><path d="M887.373,1452.97l27.525,-49.375l8.488,0l-32.413,56.394l0,32.469l-7.262,-0l-0,-32.894l-32.163,-55.969l8.482,0l27.343,49.375Z" style="fill:#5d5d5d;fill-rule:nonzero;"/><path d="M1140.05,1492.46l-7.262,-0l-50.475,-76.419l-0.369,0.062l-0,76.357l-7.325,-0l-0,-88.869l7.325,-0l50.475,76.294l0.369,-0.057l-0,-76.237l7.262,-0l0,88.869Z" style="fill:#5d5d5d;fill-rule:nonzero;"/><path d="M1311.42,1461.15l35.887,0l-17.7,-48.094l-0.362,0l-17.825,48.094Zm38.268,6.531l-40.712,0l-9.15,24.782l-7.569,-0l33.75,-88.869l6.9,-0l33.506,88.869l-7.568,-0l-9.157,-24.782Z" style="fill:#5d5d5d;fill-rule:nonzero;"/><path d="M1704.89,1450.72l-12.206,0l-0,41.75l-7.263,0l0,-88.869l7.263,0l-0,40.894l12.143,0l34.975,-40.894l8.238,0l0.125,0.307l-36.744,43.425l39.369,44.831l-0.125,0.306l-8.669,0l-37.106,-41.75Z" style="fill:#5d5d5d;fill-rule:nonzero;"/><path d="M1909.84,1446.08l21.912,0c8.013,0 13.875,-1.618 17.575,-4.85c3.706,-3.237 5.556,-7.6 5.556,-13.093c0,-5.863 -1.843,-10.363 -5.525,-13.519c-3.681,-3.156 -9.243,-4.731 -16.693,-4.731l-22.825,-0l-0,36.193Zm-0,6.225l-0,40.163l-7.263,-0l0,-88.806l30.088,-0c9.525,-0 16.831,2.087 21.912,6.256c5.088,4.169 7.631,10.262 7.631,18.281c0,4.719 -1.362,8.938 -4.087,12.663c-2.731,3.725 -6.575,6.437 -11.538,8.15c5.494,1.381 9.45,3.856 11.869,7.412c2.425,3.563 3.631,8.025 3.631,13.4l0,8.363c0,2.762 0.325,5.25 0.982,7.443c0.65,2.2 1.725,3.988 3.231,5.369l-0,1.469l-7.444,-0c-1.506,-1.469 -2.562,-3.525 -3.175,-6.163c-0.612,-2.643 -0.919,-5.393 -0.919,-8.243l0,-8.119c0,-5.45 -1.756,-9.75 -5.275,-12.906c-3.525,-3.157 -8.437,-4.732 -14.743,-4.732l-24.9,0Z" style="fill:#5d5d5d;fill-rule:nonzero;"/><path d="M2145.78,1452.97l27.525,-49.375l8.488,0l-32.413,56.394l0,32.469l-7.262,-0l-0,-32.894l-32.163,-55.969l8.481,0l27.344,49.375Z" style="fill:#5d5d5d;fill-rule:nonzero;"/><path d="M2335.9,1486.24l54.506,-0l-0,6.225l-63.231,-0l-0,-5.669l52.362,-76.975l-50.719,-0l0,-6.225l59.632,-0l-0,5.312l-52.55,77.332Z" style="fill:#5d5d5d;fill-rule:nonzero;"/><path d="M2555.49,1461.15l35.888,0l-17.7,-48.094l-0.363,0l-17.825,48.094Zm38.269,6.531l-40.713,0l-9.15,24.782l-7.568,-0l33.75,-88.869l6.9,-0l33.506,88.869l-7.569,-0l-9.156,-24.782Z" style="fill:#5d5d5d;fill-rule:nonzero;"/><path d="M666.463,1672.92l11.656,-0c3.663,-0 6.419,-0.932 8.263,-2.788c1.831,-1.869 2.756,-4.212 2.756,-7.037c-0,-2.85 -0.919,-5.213 -2.75,-7.1c-1.825,-1.882 -4.588,-2.819 -8.269,-2.819l-11.656,-0l-0,19.744Zm-0,3.112l-0,18.463l-3.631,-0l-0,-44.432l15.287,0c4.656,0 8.269,1.182 10.825,3.55c2.55,2.375 3.825,5.513 3.825,9.419c0,3.95 -1.275,7.1 -3.825,9.463c-2.556,2.362 -6.169,3.537 -10.825,3.537l-11.656,0Z" style="fill:#5d5d5d;fill-rule:nonzero;"/><path d="M769.02,1672.98l-21.393,-0l-0,18.4l24.506,-0l-0,3.112l-28.138,0l0,-44.431l27.988,0l-0,3.113l-24.356,-0l-0,16.693l21.393,0l0,3.113Z" style="fill:#5d5d5d;fill-rule:nonzero;"/><path d="M826.052,1671.3l10.95,0c4.012,0 6.937,-0.806 8.787,-2.431c1.856,-1.606 2.788,-3.794 2.788,-6.544c-0,-2.925 -0.932,-5.181 -2.769,-6.762c-1.838,-1.575 -4.619,-2.363 -8.344,-2.363l-11.412,0l-0,18.1Zm-0,3.113l-0,20.081l-3.638,-0l0,-44.406l15.05,-0c4.763,-0 8.413,1.043 10.95,3.131c2.544,2.081 3.819,5.131 3.819,9.137c-0,2.363 -0.681,4.475 -2.05,6.332c-1.356,1.868 -3.281,3.225 -5.763,4.075c2.75,0.693 4.725,1.931 5.938,3.712c1.206,1.775 1.819,4.013 1.819,6.694l-0,4.181c-0,1.388 0.156,2.625 0.487,3.725c0.325,1.1 0.863,1.994 1.613,2.688l-0,0.731l-3.725,-0c-0.75,-0.731 -1.282,-1.756 -1.588,-3.081c-0.306,-1.325 -0.45,-2.7 -0.45,-4.119l0,-4.063c0,-2.725 -0.881,-4.875 -2.644,-6.45c-1.762,-1.581 -4.218,-2.368 -7.368,-2.368l-12.45,-0Z" style="fill:#5d5d5d;fill-rule:nonzero;"/><path d="M910.939,1650.06l16.319,39.125l0.187,0l16.394,-39.125l4.819,0l-0,44.431l-3.638,0l0,-19.618l0.307,-19.444l-0.182,-0.056l-16.506,39.118l-2.537,0l-16.482,-38.937l-0.181,0.031l0.338,19.288l-0,19.618l-3.638,0l0,-44.431l4.8,0Z" style="fill:#5d5d5d;fill-rule:nonzero;"/><path d="M1008.1,1678.84l17.944,0l-8.85,-24.05l-0.181,0l-8.913,24.05Zm19.138,3.263l-20.356,-0l-4.582,12.393l-3.781,0l16.875,-44.431l3.45,0l16.75,44.431l-3.781,0l-4.575,-12.393Z" style="fill:#5d5d5d;fill-rule:nonzero;"/><path d="M1117.61,1694.5l-3.631,0l-25.237,-38.206l-0.182,0.031l0,38.175l-3.662,0l-0,-44.431l3.662,-0l25.238,38.144l0.181,-0.032l0,-38.112l3.631,-0l0,44.431Z" style="fill:#5d5d5d;fill-rule:nonzero;"/><path d="M1196.79,1672.98l-21.394,-0l-0,18.4l24.506,-0l0,3.112l-28.137,0l-0,-44.431l27.987,0l0,3.113l-24.356,-0l-0,16.693l21.394,0l-0,3.113Z" style="fill:#5d5d5d;fill-rule:nonzero;"/><path d="M1282.99,1694.5l-3.625,0l-25.238,-38.206l-0.181,0.031l-0,38.175l-3.663,0l0,-44.431l3.663,-0l25.237,38.144l0.182,-0.032l-0,-38.112l3.625,-0l-0,44.431Z" style="fill:#5d5d5d;fill-rule:nonzero;"/><path d="M1366.05,1653.18l-15.287,-0l-0,41.318l-3.663,0l0,-41.318l-15.294,-0l0,-3.113l34.244,0l0,3.113Z" style="fill:#5d5d5d;fill-rule:nonzero;"/><path d="M1478.27,1650.06l16.325,39.125l0.188,0l16.387,-39.125l4.819,0l0,44.431l-3.631,0l-0,-19.618l0.306,-19.444l-0.181,-0.056l-16.513,39.118l-2.531,0l-16.481,-38.937l-0.181,0.031l0.331,19.288l-0,19.618l-3.631,0l-0,-44.431l4.793,0Z" style="fill:#5d5d5d;fill-rule:nonzero;"/><path d="M1575.43,1678.84l17.944,0l-8.85,-24.05l-0.181,0l-8.913,24.05Zm19.138,3.263l-20.357,-0l-4.581,12.393l-3.781,0l16.875,-44.431l3.45,0l16.75,44.431l-3.781,0l-4.575,-12.393Z" style="fill:#5d5d5d;fill-rule:nonzero;"/><path d="M1661.97,1673.62l-6.107,0l0,20.875l-3.631,0l0,-44.437l3.631,-0l0,20.45l6.075,-0l17.488,-20.45l4.119,-0l0.062,0.156l-18.375,21.713l19.688,22.412l-0.063,0.156l-4.331,0l-18.556,-20.875Z" style="fill:#5d5d5d;fill-rule:nonzero;"/><path d="M1759.68,1672.98l-21.394,-0l0,18.4l24.506,-0l0,3.112l-28.137,0l-0,-44.431l27.987,0l0,3.113l-24.356,-0l0,16.693l21.394,0l-0,3.113Z" style="fill:#5d5d5d;fill-rule:nonzero;"/><path d="M1844.23,1650.06l-0,30.119c-0,4.844 -1.481,8.55 -4.438,11.112c-2.968,2.563 -6.825,3.844 -11.581,3.844c-4.7,0 -8.506,-1.287 -11.419,-3.862c-2.906,-2.569 -4.362,-6.269 -4.362,-11.094l-0,-30.119l3.662,0l0,30.094c0,3.787 1.119,6.712 3.357,8.775c2.243,2.062 5.156,3.094 8.762,3.094c3.656,-0 6.638,-1.025 8.938,-3.082c2.3,-2.05 3.45,-4.981 3.45,-8.787l-0,-30.094l3.631,0Z" style="fill:#5d5d5d;fill-rule:nonzero;"/><path d="M1901.22,1672.92l11.656,-0c3.663,-0 6.419,-0.932 8.257,-2.788c1.837,-1.869 2.762,-4.212 2.762,-7.037c0,-2.85 -0.919,-5.213 -2.75,-7.1c-1.825,-1.882 -4.587,-2.819 -8.269,-2.819l-11.656,-0l0,19.744Zm0,3.112l0,18.463l-3.631,-0l-0,-44.432l15.287,0c4.657,0 8.269,1.182 10.819,3.55c2.556,2.375 3.831,5.513 3.831,9.419c0,3.95 -1.275,7.1 -3.831,9.463c-2.55,2.362 -6.162,3.537 -10.819,3.537l-11.656,0Z" style="fill:#5d5d5d;fill-rule:nonzero;"/><path d="M1300.44,952.467c17.206,-4.05 32.581,-4.781 46.15,-2.181c13.562,2.6 25.469,7.006 35.694,13.2c10.212,6.175 18.668,13.306 25.331,21.369c6.675,8.069 11.606,15.475 14.825,22.219c3.206,6.768 4.594,12.018 4.131,15.775c-0.462,3.743 -2.537,4.431 -6.212,2.068c-9.125,-4.062 -22.132,-6.231 -39,-6.531c-16.875,-0.306 -36.269,0.581 -58.188,2.644c-21.906,2.069 -45.375,5.012 -70.394,8.869c-25.006,3.837 -50.131,8.268 -75.368,13.268c-25.244,5.007 -49.669,10.063 -73.294,15.2c-23.619,5.132 -45.006,9.925 -64.194,14.413c-19.162,4.487 -35.15,8.275 -47.956,11.35c-12.794,3.1 -21.025,5.062 -24.669,5.856c-18.706,4.381 -34.694,5.238 -47.956,2.55c-13.263,-2.65 -24.256,-6.856 -32.95,-12.569c-8.706,-5.737 -15.181,-11.856 -19.444,-18.375c-4.281,-6.537 -6.744,-11.318 -7.394,-14.337c-0.662,-3.038 -0.662,-6.363 -0.037,-9.994c0.65,-3.631 1.462,-6.819 2.45,-9.562c1.15,-3.425 2.656,-6.75 4.481,-10.019c8.75,3.812 19.131,6.312 31.125,7.525c12,1.194 25.344,1.306 40.038,0.325c-5.825,-3.481 -10.619,-7.281 -14.369,-11.381c-3.738,-4.1 -6.106,-8.425 -7.094,-12.963c-0.519,-2.431 0.444,-10.731 2.925,-24.887c2.475,-14.188 5.719,-32.1 9.738,-53.75c4.018,-21.638 8.468,-45.688 13.362,-72.119c4.888,-26.425 10.281,-52.938 13.831,-79.844c3.082,-23.456 7.844,-48.837 10.988,-77.544c2.687,-24.65 11.025,-65.25 15.512,-83.437c9.969,-37.394 82.569,19.181 83.232,22.269c0.212,0.912 -1.382,8.556 -4.775,22.925c-3.375,14.362 -7.625,32.731 -12.769,55.106c-5.138,22.369 -10.525,47.562 -16.169,75.575c-5.644,28.044 -10.587,56.069 -14.812,84.094c-4.219,28.043 -7.107,54.912 -8.663,80.625c-1.544,25.7 -0.881,47.443 2.025,65.2c25.581,-4.907 52.006,-10.25 79.313,-16.019c27.293,-5.769 53.812,-11.438 79.562,-17.038c25.731,-5.593 49.919,-10.993 72.581,-16.237c22.644,-5.238 42.125,-9.775 58.413,-13.638m-614.363,-466.268c1.419,-2.213 4.6,-5.832 9.544,-10.875c4.925,-5.019 10.45,-11.307 16.594,-18.838c6.137,-7.506 12.269,-15.819 18.362,-24.912c6.125,-9.094 11.082,-18.813 14.844,-29.15c-4.244,-3.507 -8.675,-6.044 -13.306,-7.582c-4.606,-1.531 -9.175,-1.8 -13.719,-0.812c-16.362,3.55 -33.237,9.419 -50.637,17.656c-17.419,8.213 -34.119,18.575 -50.107,31.094c-16,12.506 -30.837,27.069 -44.506,43.669c-13.687,16.606 -24.944,34.831 -33.8,54.687c-8.85,19.844 -14.656,41.306 -17.406,64.425c-2.75,23.131 -1.338,47.556 4.256,73.3c1.775,8.181 4.563,14.388 8.325,18.656c3.794,4.244 8.069,7.207 12.881,8.863c4.788,1.637 10.057,2.169 15.794,1.562c5.731,-0.618 11.481,-1.55 17.231,-2.793c20.9,-4.538 39.738,-12.038 56.494,-22.5c16.763,-10.463 31.631,-22.25 44.638,-35.369c13.006,-13.144 24.262,-26.694 33.762,-40.644c9.5,-13.956 17.413,-26.775 23.769,-38.462c6.337,-11.688 11.219,-21.307 14.65,-28.875c3.437,-7.563 5.612,-11.438 6.506,-11.657c1.519,-0.318 3.388,0.625 5.619,2.825c2.225,2.238 4.419,5.007 6.562,8.344c2.144,3.331 4.038,6.894 5.644,10.663c1.619,3.775 2.388,6.943 2.313,9.493c-0.232,12.107 -2.613,25.613 -7.144,40.557c-4.525,14.937 -10.656,30.143 -18.394,45.631c-7.737,15.475 -16.719,30.744 -26.925,45.8c-10.206,15.056 -21.125,28.694 -32.756,40.887c-11.613,12.207 -23.638,22.582 -36.044,31.15c-12.419,8.563 -24.531,14.119 -36.344,16.688c-6.356,1.381 -15.15,1.462 -26.356,0.256c-11.206,-1.225 -23.494,-3.781 -36.862,-7.694c-13.394,-3.918 -27.213,-9.168 -41.475,-15.743c-14.288,-6.563 -27.638,-14.763 -40.082,-24.6c-12.437,-9.819 -23.3,-21.1 -32.543,-33.832c-9.275,-12.743 -15.663,-27.137 -19.15,-43.193c-5.45,-25.132 -5.325,-50.45 0.4,-75.963c5.718,-25.506 15.037,-50.119 27.968,-73.862c12.919,-23.738 28.513,-46.169 46.775,-67.238c18.238,-21.1 37.013,-39.85 56.3,-56.25c19.263,-16.394 38.132,-29.912 56.582,-40.594c18.45,-10.668 34.506,-17.475 48.131,-20.431c9.394,-2.05 18.531,-1.962 27.419,0.225c8.868,2.188 17.168,5.719 24.875,10.55c7.712,4.825 14.6,10.613 20.675,17.394c6.062,6.756 11.281,13.637 15.656,20.612c0.112,-3.825 -0.213,-7.575 -1.019,-11.2c-0.437,-2.118 1.869,-3.106 6.981,-2.931c5.113,0.163 11.075,1.7 17.907,4.675c6.818,2.956 13.562,7.681 20.206,14.156c6.637,6.482 11.119,15.038 13.419,25.638c1.968,9.081 0.375,18.937 -4.75,29.581c-5.163,10.625 -11.919,20.738 -20.307,30.338c-8.381,9.581 -17.5,18 -27.343,25.206c-9.869,7.2 -18.719,11.662 -26.594,13.369c-3.638,0.8 -8.113,0.987 -13.438,0.537c-5.331,-0.412 -10.437,-1.294 -15.331,-2.612c-4.881,-1.313 -8.8,-2.919 -11.744,-4.819c-2.95,-1.9 -3.956,-3.569 -3,-5.056m1135.5,-215.169c2.632,-2.481 5.407,-3.238 8.3,-2.281c2.907,0.95 5.657,2.65 8.244,5.118c2.588,2.432 4.606,5.094 6.013,7.957c1.425,2.875 1.968,4.968 1.612,6.312c-1.975,5.513 -5.387,13.55 -10.231,24.106c-4.838,10.563 -10.619,22.288 -17.344,35.169c-6.706,12.875 -14.306,26.094 -22.781,39.669c-8.463,13.587 -17.156,26.175 -26.05,37.781c-4.9,6.388 -9.869,12.281 -14.85,17.638c0.756,0.143 1.6,0.306 2.531,0.487c4.163,0.844 9,2.019 14.563,3.506c5.556,1.482 11.418,3.319 17.587,5.457c6.181,2.137 11.763,4.506 16.769,7.062c4.994,2.563 9.056,5.244 12.206,8.05c3.15,2.813 4.375,5.556 3.688,8.238c-1.225,5.981 -2.625,12.712 -4.169,20.162c-1.55,7.488 -2.975,14.856 -4.263,22.106c-1.268,7.257 -2.168,14.032 -2.7,20.332c-0.537,6.306 -0.45,11.118 0.275,14.456c-2.118,0.462 -7.168,0.2 -15.15,-0.756c-7.975,-0.975 -16.368,-2.719 -25.168,-5.25c-8.794,-2.519 -16.95,-5.744 -24.45,-9.675c-7.513,-3.913 -11.832,-8.438 -12.944,-13.594c-1.313,-6.056 -1.15,-13.319 0.506,-21.756c1.644,-8.45 3.731,-16.744 6.244,-24.9c2.506,-8.169 4.819,-15.413 6.944,-21.732c0.806,-2.412 1.431,-4.543 1.856,-6.35c-2.181,2.157 -4.363,4.225 -6.575,6.175c-9.169,8.188 -17.981,13.194 -26.475,15.032c-10.281,2.231 -21.944,3.018 -34.938,2.362c-12.975,-0.681 -25.612,-3.4 -37.912,-8.181c-12.313,-4.8 -23.213,-11.925 -32.725,-21.438c-7.6,-7.593 -13.238,-17.075 -16.9,-28.443l-0.588,1.55c-4.262,11.075 -8.487,21.906 -12.7,32.487c-4.206,10.6 -8.087,20.075 -11.662,28.45c-3.575,8.406 -6.613,15.175 -9.15,20.313c-0.844,1.725 -1.594,3.162 -2.256,4.337c2.443,0.225 5.718,0.688 9.843,1.381c7.732,1.338 15.969,3.444 24.669,6.307c8.713,2.868 16.819,6.593 24.313,11.131c7.487,4.569 11.881,9.881 13.206,15.931c0.594,2.725 -0.294,9.569 -2.669,20.563c-2.369,10.981 -5.537,24.512 -9.5,40.6c-3.95,16.081 -8.331,33.912 -13.119,53.506c-4.787,19.606 -9.3,39.362 -13.525,59.325c7.369,-14.294 15.025,-28.331 22.969,-42.094c7.95,-13.781 15.9,-26.131 23.831,-37.056c7.932,-10.919 15.432,-19.919 22.45,-27c7.019,-7.063 13.1,-11.175 18.269,-12.3c5.444,-1.175 11.113,0.131 17,3.919c5.919,3.8 11.356,8.325 16.294,13.6c4.769,5.012 9.544,10.575 14.344,16.687c0.631,-3.431 1.256,-6.756 1.85,-9.975c2.218,-11.744 4.068,-21.506 5.543,-29.275c1.488,-7.775 2.094,-12.275 1.838,-13.475c0.9,-0.206 3.425,0.125 7.575,0.956c4.15,0.838 8.994,2.019 14.562,3.513c5.55,1.475 11.425,3.312 17.594,5.456c6.175,2.144 11.763,4.5 16.756,7.063c4.994,2.556 9.075,5.237 12.219,8.037c3.138,2.813 4.375,5.581 3.681,8.256c-0.887,4.619 -2.618,12.694 -5.193,24.188c-2.594,11.512 -5.069,24.906 -7.463,40.169c-2.4,15.268 -4.35,31.456 -5.862,48.606c-1.507,17.15 -1.832,33.531 -0.975,49.212l54.787,-119.206c3.556,-19.912 8.994,-37.9 16.325,-53.962c7.631,-16.707 16.419,-30.657 26.35,-41.882c9.944,-11.181 19.113,-17.843 27.531,-19.987c2.425,-0.538 6.907,-0.313 13.444,0.644c6.569,0.95 13.713,2.412 21.425,4.387c7.719,1.956 15.225,4.381 22.513,7.244c7.281,2.85 13.012,5.894 17.2,9.106c2.118,-0.45 4.825,-0.412 8.112,0.138c3.3,0.562 6.706,2.037 10.238,4.431c3.537,2.412 6.956,6.112 10.256,11.106c3.306,5 5.894,11.725 7.737,20.2c1.494,9.825 1.55,19.975 0.163,30.413c-1.375,10.45 -4.413,20.243 -9.081,29.331c-4.688,9.1 -11.182,17.175 -19.5,24.2c-8.288,7.056 -18.65,11.919 -31.069,14.606c-13.625,2.956 -24.488,3.025 -32.55,0.175c-8.075,-2.844 -14.05,-7.337 -17.925,-13.481c-0.181,3.537 -0.419,6.762 -0.744,9.681c-0.312,2.925 -0.494,5.75 -0.544,8.444c-0.043,2.706 0.032,5.631 0.238,8.756c0.212,3.125 0.6,6.844 1.237,11.156c1.075,6.407 3.232,11.982 6.469,16.663c3.238,4.7 7.219,8.419 11.95,11.206c4.725,2.781 9.788,4.531 15.175,5.269c5.394,0.737 10.775,0.337 16.163,-1.125c5.993,-1.631 12.425,-5.638 19.268,-12.05c6.857,-6.4 13.938,-14.363 21.232,-23.875c7.281,-9.506 14.443,-20.013 21.456,-31.538c7.019,-11.506 13.612,-23.093 19.806,-34.756c6.181,-11.637 11.838,-22.856 16.956,-33.65c5.113,-10.781 9.182,-20.156 12.213,-28.106c2.631,-2.469 5.406,-3.231 8.312,-2.281c2.907,0.968 5.644,2.662 8.244,5.125c2.588,2.437 4.6,5.093 6.013,7.968c1.412,2.863 1.937,4.963 1.6,6.3c-1.969,5.513 -5.394,13.544 -10.225,24.107c-4.844,10.581 -10.619,22.287 -17.332,35.162c-6.725,12.894 -14.325,26.106 -22.793,39.688c-8.469,13.568 -17.157,26.15 -26.057,37.775c-8.887,11.593 -17.931,21.493 -27.087,29.656c-9.169,8.175 -17.988,13.181 -26.475,15.037c-10.294,2.238 -21.944,3.025 -34.931,2.344c-12.994,-0.656 -25.638,-3.406 -37.925,-8.175c-12.294,-4.775 -23.207,-11.944 -32.732,-21.431c-7.606,-7.594 -13.231,-17.075 -16.9,-28.444l-0.606,1.55c-4.237,11.081 -8.475,21.906 -12.669,32.488c-4.212,10.587 -8.1,20.075 -11.668,28.462c-3.575,8.381 -6.632,15.156 -9.157,20.306c-2.525,5.138 -4.237,7.825 -5.143,8.013c-2.438,0.525 -4.9,0.437 -7.432,-0.281c-2.543,-0.732 -5.193,-1.582 -7.943,-2.563c-4.575,-0.6 -11.025,-2.206 -19.363,-4.837c-8.35,-2.632 -16.737,-5.875 -25.187,-9.744c-8.463,-3.881 -15.963,-8.125 -22.507,-12.725c-6.55,-4.6 -10.325,-9.175 -11.306,-13.725c-1.912,-8.769 -2.694,-19.706 -2.362,-32.775c0.331,-13.081 1.325,-26.788 2.975,-41.088c1.625,-14.318 3.762,-28.656 6.356,-43.012c1.381,-7.638 2.7,-14.9 3.969,-21.788c-16.632,13.825 -30.325,26.938 -41.069,39.35c-11.656,13.482 -20.838,25.232 -27.55,35.263c-7.888,11.856 -13.756,22.8 -17.606,32.837c1.318,6.044 5.018,13.969 11.106,23.75c6.087,9.775 13.756,20.25 22.981,31.4c9.25,11.15 19.431,22.257 30.563,33.325c11.118,11.057 22.293,20.932 33.537,29.588c11.244,8.669 22.2,15.325 32.888,19.975c10.681,4.669 19.975,6.131 27.837,4.425c2.413,-0.525 3.206,1.287 2.375,5.431c-0.85,4.144 -3.025,9.05 -6.562,14.738c-3.519,5.681 -8.207,11.131 -14.044,16.368c-5.85,5.244 -12.556,8.675 -20.119,10.319c-10.6,2.325 -20.881,2.081 -30.837,-0.662c-9.95,-2.769 -19.488,-7.194 -28.575,-13.319c-9.094,-6.1 -17.675,-13.519 -25.763,-22.231c-8.069,-8.719 -15.5,-17.725 -22.281,-27.032c-15.863,-21.925 -30.369,-47.806 -43.494,-77.625c-2.375,3.688 -4.731,9.275 -7.069,16.757c-2.331,7.493 -4.525,15.337 -6.537,23.543c-2.025,8.219 -3.806,16.132 -5.319,23.763c-1.512,7.606 -2.637,13.412 -3.362,17.375c0.268,1.212 0.537,2.106 0.825,2.675c0.287,0.581 0.487,1.162 0.606,1.775c0.15,0.6 0.431,1.169 0.862,1.725c-2.425,0.506 -7.893,0.119 -16.437,-1.194c-8.525,-1.325 -17.481,-3.512 -26.863,-6.531c-9.381,-3.038 -18.006,-6.963 -25.862,-11.756c-7.869,-4.8 -12.475,-10.382 -13.869,-16.738c-2.425,-11.206 -2.612,-27.012 -0.55,-47.456l0.025,-0.294c-11.575,8.55 -23.625,14.913 -36.144,19.081c-3.962,11.013 -8.593,22.157 -13.906,33.463c-5.312,11.3 -11.469,21.694 -18.45,31.137c-6.994,9.432 -14.669,17.532 -23.031,24.269c-8.381,6.725 -17.406,11.144 -27.1,13.244c-7.575,1.65 -16.7,0.869 -27.4,-2.369c-10.694,-3.231 -21.175,-7.687 -31.45,-13.4c-10.275,-5.687 -19.35,-12.05 -27.213,-19.05c-7.881,-7.012 -12.8,-13.65 -14.768,-19.862c-2.338,-7.244 -4.107,-14.644 -5.338,-22.175c-1.581,1.337 -3.194,2.637 -4.825,3.918c-12.487,9.682 -25.525,16.807 -39.131,21.338c-3.963,11.006 -8.581,22.169 -13.894,33.475c-5.325,11.294 -11.487,21.675 -18.469,31.119c-6.975,9.443 -14.662,17.543 -23.037,24.262c-8.369,6.744 -17.406,11.156 -27.081,13.269c-7.588,1.637 -16.707,0.844 -27.4,-2.394c-10.707,-3.219 -21.175,-7.675 -31.457,-13.362c-10.281,-5.713 -19.35,-12.063 -27.212,-19.082c-7.869,-7.018 -12.794,-13.637 -14.781,-19.868c-5.882,-18.388 -8.257,-37.694 -7.113,-57.919c1.169,-20.238 4.763,-39.1 10.794,-56.575c6.031,-17.494 14.037,-32.456 24.012,-44.938c9.982,-12.487 20.732,-19.968 32.232,-22.462c4.85,-1.05 11.368,-0.65 19.55,1.212c8.175,1.894 16.55,4.338 25.143,7.394c8.588,3.05 16.507,6.25 23.725,9.581c7.238,3.363 12.288,5.832 15.175,7.425c4.744,-0.068 9.5,0.307 14.282,1.182c4.8,0.875 9.462,2.693 14.043,5.518c4.588,2.807 8.838,6.713 12.788,11.732c3.944,5.006 7.281,11.65 10.037,19.95c2.319,7.731 1.494,20.756 -2.462,39.062c3.131,-1.631 5.856,-3.337 8.181,-5.1c2.3,-1.775 4.569,-3.381 6.8,-4.819c5.925,-4.781 11.525,-10.431 16.781,-16.962c0.482,-0.631 0.994,-1.263 1.494,-1.888l0.038,-0.818c1.162,-20.244 4.756,-39.094 10.793,-56.588c6.038,-17.487 14.044,-32.456 24.013,-44.931c9.975,-12.469 20.725,-19.975 32.244,-22.463c4.843,-1.056 11.35,-0.643 19.525,1.238c8.168,1.862 16.556,4.319 25.15,7.381c8.6,3.038 16.506,6.244 23.737,9.6c7.225,3.331 12.288,5.8 15.15,7.394c4.75,-0.063 9.525,0.319 14.306,1.187c4.788,0.863 9.475,2.688 14.038,5.507c4.587,2.806 8.837,6.737 12.775,11.743c3.95,5.013 7.287,11.65 10.044,19.919c2.318,7.75 1.506,20.788 -2.457,39.088c3.138,-1.638 5.863,-3.338 8.169,-5.1c2.306,-1.769 4.569,-3.369 6.813,-4.813c5.937,-4.775 11.525,-10.431 16.762,-16.969l0.675,-0.85c1.331,-8.675 2.825,-17.65 4.481,-26.9c4.375,-24.418 9.238,-49.418 14.638,-75.025c4.456,-21.181 8.562,-40.925 12.344,-59.256l-0.632,1.056c-3.531,5.675 -8.2,11.144 -14.062,16.369c-5.831,5.244 -12.544,8.675 -20.113,10.331c-10.587,2.3 -20.881,2.063 -30.837,-0.687c-9.95,-2.756 -19.481,-7.194 -28.581,-13.3c-9.088,-6.106 -17.675,-13.531 -25.757,-22.244c-8.081,-8.719 -15.506,-17.725 -22.281,-27.037c-15.856,-21.913 -30.362,-47.8 -43.494,-77.613c-2.362,3.688 -4.725,9.275 -7.068,16.756c-2.332,7.488 -4.519,15.344 -6.544,23.538c-2.025,8.225 -3.781,16.144 -5.3,23.756c-1.525,7.625 -2.65,13.419 -3.375,17.381c0.262,1.213 0.544,2.113 0.825,2.682c0.281,0.575 0.487,1.168 0.625,1.768c0.131,0.613 0.406,1.182 0.844,1.719c-2.425,0.519 -7.894,0.125 -16.444,-1.194c-8.519,-1.312 -17.475,-3.5 -26.863,-6.525c-9.381,-3.037 -18.006,-6.956 -25.85,-11.768c-7.862,-4.782 -12.487,-10.35 -13.862,-16.719c-2.45,-11.194 -2.625,-27.025 -0.563,-47.463l0.032,-0.3c-11.575,8.557 -23.638,14.913 -36.157,19.1c-3.95,11 -8.575,22.15 -13.9,33.457c-5.306,11.312 -11.456,21.681 -18.456,31.131c-6.994,9.444 -14.662,17.531 -23.025,24.269c-8.387,6.725 -17.406,11.156 -27.1,13.256c-7.569,1.656 -16.706,0.844 -27.394,-2.369c-10.681,-3.225 -21.175,-7.7 -31.456,-13.394c-10.269,-5.693 -19.344,-12.062 -27.212,-19.075c-7.863,-7.012 -12.788,-13.625 -14.782,-19.856c-2.318,-7.244 -4.1,-14.625 -5.325,-22.162c-1.593,1.325 -3.193,2.631 -4.825,3.912c-12.493,9.681 -25.531,16.806 -39.131,21.344c-3.95,11 -8.581,22.156 -13.906,33.444c-5.325,11.325 -11.463,21.693 -18.456,31.15c-6.988,9.437 -14.669,17.525 -23.044,24.256c-8.363,6.737 -17.394,11.162 -27.088,13.262c-7.568,1.644 -16.7,0.857 -27.393,-2.362c-10.688,-3.244 -21.169,-7.719 -31.457,-13.381c-10.262,-5.725 -19.337,-12.075 -27.206,-19.094c-7.862,-7.013 -12.794,-13.625 -14.781,-19.856c-5.9,-18.394 -8.256,-37.707 -7.106,-57.925c1.156,-20.232 4.756,-39.1 10.781,-56.582c6.044,-17.493 14.05,-32.475 24.025,-44.937c9.975,-12.481 20.725,-19.963 32.231,-22.469c4.856,-1.044 11.356,-0.644 19.531,1.231c8.188,1.882 16.569,4.338 25.15,7.382c8.607,3.05 16.507,6.256 23.738,9.587c7.219,3.356 12.287,5.838 15.162,7.425c4.738,-0.081 9.507,0.306 14.307,1.175c4.762,0.875 9.456,2.7 14.037,5.513c4.569,2.812 8.831,6.731 12.763,11.743c3.943,5.007 7.312,11.663 10.05,19.944c2.318,7.731 1.493,20.769 -2.463,39.056c3.125,-1.625 5.863,-3.337 8.169,-5.112c2.306,-1.756 4.587,-3.35 6.806,-4.794c5.944,-4.775 11.531,-10.437 16.769,-16.969c0.506,-0.618 1.006,-1.275 1.519,-1.887l0.037,-0.825c1.156,-20.213 4.75,-39.088 10.794,-56.581c6.037,-17.475 14.037,-32.469 24,-44.944c9.994,-12.456 20.731,-19.956 32.237,-22.45c4.857,-1.056 11.363,-0.65 19.538,1.231c8.181,1.869 16.569,4.331 25.15,7.388c8.6,3.037 16.506,6.243 23.731,9.587c7.238,3.35 12.281,5.819 15.175,7.425c4.731,-0.087 9.5,0.3 14.281,1.163c4.8,0.862 9.475,2.712 14.044,5.525c4.575,2.8 8.844,6.718 12.775,11.731c3.963,5.012 7.294,11.65 10.05,19.925c2.313,7.762 1.488,20.775 -2.462,39.087c3.131,-1.637 5.868,-3.325 8.175,-5.1c2.306,-1.775 4.562,-3.381 6.806,-4.818c5.925,-4.782 11.525,-10.425 16.756,-16.957l0.688,-0.856c1.318,-8.694 2.812,-17.662 4.481,-26.9c4.369,-24.437 9.244,-49.431 14.625,-75.025c5.387,-25.6 10.281,-49.094 14.662,-70.512c4.388,-21.4 7.713,-39.325 9.975,-53.782c2.25,-14.425 2.175,-22.825 -0.237,-25.143c1.819,-0.407 6.6,0.068 14.344,1.393c7.743,1.332 15.956,3.438 24.681,6.3c8.694,2.863 16.8,6.569 24.3,11.138c7.487,4.562 11.894,9.862 13.2,15.919c0.606,2.718 -0.288,9.568 -2.669,20.568c-2.369,10.975 -5.531,24.507 -9.5,40.594c-3.962,16.081 -8.325,33.919 -13.119,53.506c-4.768,19.6 -9.281,39.369 -13.512,59.313c7.35,-14.275 15.019,-28.306 22.969,-42.081c7.95,-13.788 15.887,-26.132 23.825,-37.069c7.937,-10.913 15.425,-19.906 22.443,-26.988c7.025,-7.075 13.125,-11.168 18.263,-12.281c5.456,-1.194 11.144,0.113 17.031,3.919c5.894,3.787 11.325,8.312 16.263,13.575c4.793,5.019 9.562,10.581 14.35,16.681c0.637,-3.419 1.256,-6.744 1.875,-9.962c2.2,-11.75 4.05,-21.5 5.518,-29.269c1.488,-7.781 2.1,-12.281 1.832,-13.488c0.912,-0.193 3.443,0.125 7.593,0.969c4.15,0.85 9,2.013 14.544,3.513c5.563,1.468 11.438,3.306 17.613,5.456c6.168,2.131 11.762,4.5 16.762,7.056c4.981,2.563 9.05,5.244 12.213,8.05c3.137,2.806 4.368,5.55 3.681,8.244c-0.894,4.631 -2.625,12.7 -5.206,24.2c-2.575,11.506 -5.057,24.887 -7.457,40.156c-2.4,15.275 -4.356,31.463 -5.856,48.619c-1.519,17.131 -1.831,33.525 -0.981,49.206l54.787,-119.2c3.563,-19.919 9,-37.9 16.332,-53.956c7.625,-16.725 16.412,-30.681 26.356,-41.888c9.925,-11.193 19.112,-17.856 27.519,-20.006c2.425,-0.531 6.918,-0.306 13.468,0.656c6.544,0.95 13.682,2.413 21.4,4.382c7.732,1.968 15.244,4.393 22.5,7.243c7.288,2.863 13.032,5.9 17.213,9.119c2.131,-0.475 4.831,-0.419 8.119,0.131c3.287,0.55 6.7,2.038 10.231,4.432c3.544,2.412 6.962,6.106 10.275,11.093c3.275,5.007 5.875,11.732 7.712,20.213c1.494,9.831 1.557,19.956 0.182,30.412c-1.369,10.45 -4.413,20.219 -9.1,29.332c-4.669,9.1 -11.169,17.175 -19.482,24.2c-8.3,7.05 -18.656,11.918 -31.075,14.606c-13.631,2.969 -24.481,3.012 -32.55,0.162c-8.081,-2.831 -14.037,-7.331 -17.906,-13.456c-0.194,3.519 -0.45,6.744 -0.762,9.669c-0.325,2.925 -0.5,5.737 -0.538,8.437c-0.056,2.713 0.019,5.625 0.225,8.75c0.206,3.132 0.613,6.85 1.238,11.144c1.068,6.438 3.225,12.006 6.481,16.681c3.231,4.682 7.206,8.438 11.937,11.213c4.725,2.775 9.794,4.531 15.169,5.262c5.394,0.725 10.788,0.344 16.181,-1.143c5.988,-1.619 12.407,-5.619 19.269,-12.032c6.85,-6.387 13.938,-14.362 21.213,-23.868c7.287,-9.519 14.443,-20.025 21.45,-31.538c7.031,-11.506 13.625,-23.1 19.812,-34.756c6.194,-11.656 11.844,-22.856 16.969,-33.65c5.1,-10.788 9.175,-20.144 12.212,-28.1m-267.612,233.656c-2.394,0.513 -4.863,0.413 -7.369,-0.287c-2.531,-0.732 -5.169,-1.575 -7.931,-2.575c-4.563,-0.594 -11.013,-2.207 -19.356,-4.832c-8.338,-2.637 -16.75,-5.868 -25.188,-9.762c-8.456,-3.863 -15.956,-8.1 -22.512,-12.713c-6.544,-4.612 -10.307,-9.168 -11.3,-13.718c-1.913,-8.788 -2.694,-19.713 -2.369,-32.788c0.331,-13.075 1.325,-26.769 2.969,-41.081c1.65,-14.313 3.768,-28.656 6.368,-43.013c1.375,-7.637 2.707,-14.893 3.969,-21.787c-16.644,13.819 -30.325,26.937 -41.075,39.35c-11.662,13.481 -20.844,25.231 -27.55,35.256c-7.894,11.869 -13.769,22.806 -17.6,32.85c1.306,6.056 5.019,13.969 11.106,23.744c6.075,9.787 13.738,20.256 22.988,31.394c9.244,11.156 19.425,22.275 30.544,33.337c11.118,11.063 22.312,20.925 33.556,29.594c11.231,8.644 22.187,15.319 32.869,19.962c10.693,4.669 19.962,6.132 27.837,4.425c0.138,-0.037 0.269,-0.05 0.394,-0.056c3.6,-17.944 6.387,-33.219 8.337,-45.85c1.594,-10.125 2.038,-17.281 1.313,-21.45m168.787,-248.35c-3.025,0.663 -7.312,3.163 -12.856,7.544c-5.55,4.381 -11.387,10.406 -17.494,18.075c-6.106,7.669 -11.912,17.087 -17.412,28.275c-5.5,11.181 -9.531,24.044 -12.094,38.537c1.863,1.188 4.238,1.944 7.156,2.269c2.932,0.313 6.513,0.006 10.744,-0.906c8.788,-1.925 16.325,-6.325 22.588,-13.231c6.268,-6.919 11.406,-15.007 15.418,-24.282c4.013,-9.287 7,-18.881 8.969,-28.825c1.963,-9.943 3.075,-18.75 3.306,-26.418c-2.206,-1.413 -4.987,-1.757 -8.325,-1.038m-164.468,-14.725c-2.119,0.463 -7.169,0.213 -15.157,-0.75c-7.968,-0.962 -16.362,-2.706 -25.162,-5.231c-8.794,-2.55 -16.938,-5.763 -24.456,-9.675c-7.513,-3.919 -11.825,-8.469 -12.957,-13.606c-1.306,-6.069 -1.137,-13.319 0.519,-21.757c1.669,-8.45 3.744,-16.743 6.256,-24.912c2.513,-8.156 4.819,-15.394 6.938,-21.719c2.119,-6.337 2.937,-10.556 2.475,-12.669c0.919,-0.2 3.431,0.125 7.594,0.963c4.15,0.837 9,2.012 14.55,3.5c5.562,1.481 11.425,3.306 17.6,5.456c6.175,2.144 11.762,4.506 16.75,7.063c5.006,2.562 9.068,5.243 12.212,8.05c3.144,2.812 4.381,5.55 3.706,8.237c-1.256,5.981 -2.65,12.713 -4.181,20.175c-1.562,7.481 -2.962,14.844 -4.244,22.106c-1.281,7.257 -2.193,14.013 -2.725,20.325c-0.537,6.307 -0.437,11.119 0.282,14.444m-439.394,336.138c4.856,-1.044 9.55,-3.888 14.094,-8.532c4.543,-4.637 8.85,-10.406 12.9,-17.312c4.031,-6.906 7.825,-14.688 11.325,-23.394c3.506,-8.681 6.643,-17.6 9.406,-26.769c-4.756,-1.506 -9.669,-3.6 -14.694,-6.318c-5.037,-2.725 -9.819,-5.807 -14.362,-9.257c-3.088,-2.512 -6.257,-5.381 -9.5,-8.637c-3.25,-3.269 -6.269,-6.963 -9.069,-11.119c-6.544,16.638 -10.831,33.75 -12.888,51.313c-2.043,17.575 -0.743,33.481 3.932,47.681c0.2,0.912 0.531,2.1 1.018,3.575c0.482,1.5 1.113,2.944 1.894,4.362c0.788,1.419 1.669,2.569 2.663,3.469c0.975,0.888 2.081,1.206 3.281,0.938m59.206,-154.625c-2.425,-6.763 -5.819,-11.1 -10.2,-12.994c-4.381,-1.913 -8.606,-2.738 -12.675,-2.5c-7.194,6.325 -13.975,15.244 -20.344,26.775c-0.281,1.656 -0.281,3.156 0.019,4.519c0.306,1.368 0.613,2.806 0.944,4.318c1.156,3.882 3.169,7.644 6.019,11.307c2.862,3.65 6.018,6.918 9.512,9.825c3.488,2.881 7.119,5.431 10.925,7.618c3.819,2.188 7.419,3.85 10.838,5.025c2.793,-12.031 4.712,-22.912 5.781,-32.656c1.044,-9.744 0.781,-16.825 -0.819,-21.237m-291.8,205.137c4.838,-1.05 9.538,-3.906 14.081,-8.531c4.538,-4.638 8.838,-10.394 12.894,-17.306c4.044,-6.907 7.838,-14.707 11.331,-23.388c3.513,-8.7 6.644,-17.625 9.407,-26.794c-4.775,-1.506 -9.669,-3.6 -14.7,-6.312c-5.025,-2.719 -9.813,-5.806 -14.369,-9.25c-3.081,-2.5 -6.244,-5.388 -9.5,-8.638c-3.238,-3.275 -6.269,-6.962 -9.069,-11.125c-6.544,16.638 -10.831,33.757 -12.869,51.319c-2.068,17.581 -0.756,33.463 3.925,47.681c0.2,0.907 0.532,2.088 1.007,3.588c0.487,1.487 1.125,2.925 1.9,4.35c0.781,1.406 1.675,2.569 2.656,3.456c0.981,0.888 2.081,1.219 3.306,0.95m59.188,-154.619c-2.425,-6.768 -5.819,-11.112 -10.194,-13.012c-4.388,-1.906 -8.606,-2.725 -12.675,-2.475c-7.2,6.312 -13.975,15.244 -20.344,26.775c-0.287,1.637 -0.275,3.144 0.019,4.506c0.294,1.363 0.612,2.794 0.937,4.325c1.163,3.869 3.157,7.631 6.019,11.3c2.856,3.669 6.031,6.931 9.519,9.819c3.475,2.9 7.125,5.425 10.931,7.625c3.794,2.175 7.4,3.856 10.831,5.019c2.788,-12.025 4.707,-22.907 5.75,-32.663c1.063,-9.731 0.807,-16.812 -0.793,-21.219m1029.96,93.425c-3.031,0.657 -7.319,3.169 -12.869,7.55c-5.55,4.375 -11.381,10.4 -17.481,18.075c-6.106,7.657 -11.912,17.088 -17.4,28.282c-5.512,11.175 -9.544,24.031 -12.1,38.537c1.85,1.194 4.225,1.938 7.15,2.25c2.925,0.319 6.5,0.019 10.744,-0.912c8.794,-1.894 16.312,-6.3 22.581,-13.219c6.269,-6.906 11.413,-15.013 15.425,-24.281c4.019,-9.275 6.994,-18.888 8.969,-28.825c1.944,-9.938 3.056,-18.75 3.3,-26.407c-2.206,-1.431 -4.975,-1.781 -8.319,-1.05m-836.469,371.932c4.844,-1.05 9.55,-3.9 14.094,-8.525c4.538,-4.644 8.838,-10.413 12.888,-17.319c4.056,-6.9 7.831,-14.713 11.343,-23.388c3.488,-8.687 6.632,-17.618 9.407,-26.768c-4.769,-1.513 -9.669,-3.632 -14.707,-6.332c-5.025,-2.731 -9.812,-5.8 -14.381,-9.262c-3.069,-2.488 -6.237,-5.369 -9.481,-8.631c-3.244,-3.269 -6.269,-6.963 -9.069,-11.132c-6.544,16.663 -10.831,33.769 -12.887,51.344c-2.044,17.575 -0.738,33.463 3.925,47.663c0.206,0.912 0.543,2.112 1.018,3.587c0.482,1.475 1.113,2.931 1.9,4.344c0.794,1.412 1.663,2.575 2.657,3.462c0.981,0.907 2.087,1.219 3.293,0.957m59.2,-154.625c-2.412,-6.775 -5.825,-11.113 -10.206,-13.019c-4.362,-1.888 -8.594,-2.706 -12.662,-2.463c-7.207,6.313 -13.975,15.244 -20.357,26.775c-0.275,1.632 -0.275,3.138 0.032,4.507c0.293,1.362 0.606,2.8 0.937,4.318c1.156,3.875 3.169,7.638 6.031,11.307c2.85,3.662 6.013,6.931 9.494,9.812c3.481,2.906 7.138,5.438 10.931,7.625c3.807,2.188 7.425,3.856 10.857,5.025c2.781,-12.025 4.693,-22.9 5.75,-32.65c1.05,-9.75 0.793,-16.831 -0.807,-21.237m173.419,104.118c4.856,-1.062 9.531,-3.893 14.088,-8.543c4.531,-4.619 8.843,-10.4 12.887,-17.3c4.044,-6.913 7.831,-14.707 11.331,-23.4c3.513,-8.675 6.638,-17.607 9.419,-26.775c-4.781,-1.5 -9.675,-3.613 -14.706,-6.313c-5.031,-2.737 -9.813,-5.812 -14.375,-9.262c-3.081,-2.507 -6.244,-5.382 -9.481,-8.632c-3.25,-3.268 -6.282,-6.975 -9.082,-11.125c-6.525,16.632 -10.825,33.757 -12.875,51.313c-2.05,17.581 -0.75,33.475 3.932,47.687c0.193,0.9 0.525,2.1 1.006,3.575c0.481,1.494 1.119,2.932 1.887,4.357c0.794,1.412 1.682,2.568 2.669,3.462c0.988,0.9 2.088,1.219 3.3,0.956m59.181,-154.637c-2.412,-6.769 -5.806,-11.106 -10.187,-13.006c-4.388,-1.9 -8.594,-2.725 -12.681,-2.482c-7.182,6.338 -13.963,15.25 -20.357,26.782c-0.262,1.65 -0.256,3.156 0.044,4.512c0.3,1.369 0.613,2.806 0.938,4.306c1.156,3.882 3.162,7.657 6.018,11.319c2.863,3.656 6.025,6.931 9.507,9.831c3.493,2.888 7.125,5.425 10.937,7.613c3.806,2.187 7.425,3.856 10.844,5.019c2.775,-12.032 4.694,-22.913 5.756,-32.657c1.056,-9.75 0.781,-16.818 -0.819,-21.237" style="fill:#5d5d5d;fill-rule:nonzero;"/></g></g></svg>