<?xml version="1.0" encoding="UTF-8" standalone="no"?>
<!DOCTYPE svg PUBLIC "-//W3C//DTD SVG 1.1//EN" "http://www.w3.org/Graphics/SVG/1.1/DTD/svg11.dtd">
<svg width="100%" height="100%" viewBox="0 0 2615 1695" version="1.1" xmlns="http://www.w3.org/2000/svg" xmlns:xlink="http://www.w3.org/1999/xlink" xml:space="preserve" xmlns:serif="http://www.serif.com/" style="fill-rule:evenodd;clip-rule:evenodd;stroke-linejoin:round;stroke-miterlimit:2;">
    <rect id="Page-3" serif:id="Page 3" x="0" y="0" width="2614.91" height="1694.56" style="fill:none;"/>
    <g>
        <g id="Warstwa-1" serif:id="Warstwa 1">
            <path d="M1909.46,1233.39L676.14,1233.39L676.14,829.89L694.89,829.89L694.89,1214.64L1890.71,1214.64L1890.71,920.571L1909.46,920.571L1909.46,1233.39Z" style="fill:rgb(213,213,213);fill-rule:nonzero;"/>
            <path d="M1909.45,436.372L1890.7,436.372L1890.7,18.822L694.89,18.822L694.89,230.329L676.14,230.329L676.14,0.072L1909.45,0.072L1909.45,436.372Z" style="fill:rgb(213,213,213);fill-rule:nonzero;"/>
            <path d="M47.09,1403.6L54.415,1403.6L54.415,1467.26C54.415,1475.36 52.003,1481.8 47.184,1486.58C42.359,1491.36 36.122,1493.75 28.472,1493.75C20.134,1493.75 13.54,1491.59 8.697,1487.28C3.859,1482.96 1.54,1476.66 1.74,1468.36L1.865,1467.99L8.697,1467.99C8.697,1474.4 10.409,1479.26 13.828,1482.57C17.247,1485.87 22.128,1487.53 28.472,1487.53C33.89,1487.53 38.347,1485.69 41.84,1482.01C45.34,1478.33 47.09,1473.39 47.09,1467.21L47.09,1403.6Z" style="fill:rgb(213,213,213);fill-rule:nonzero;"/>
            <path d="M276.815,1403.6L276.815,1463.84C276.815,1473.53 273.852,1480.93 267.933,1486.06C262.015,1491.19 254.29,1493.75 244.771,1493.75C235.371,1493.75 227.758,1491.17 221.946,1486.03C216.127,1480.88 213.215,1473.49 213.215,1463.84L213.215,1403.6L220.54,1403.6L220.54,1463.8C220.54,1471.36 222.777,1477.21 227.252,1481.34C231.727,1485.46 237.571,1487.53 244.771,1487.53C252.096,1487.53 258.058,1485.48 262.652,1481.36C267.252,1477.26 269.552,1471.41 269.552,1463.8L269.552,1403.6L276.815,1403.6Z" style="fill:rgb(213,213,213);fill-rule:nonzero;"/>
            <path d="M486.885,1470.64C486.885,1465.81 485.073,1461.85 481.454,1458.79C477.835,1455.71 471.523,1453.01 462.535,1450.65C452.81,1448.21 445.442,1445.03 440.435,1441.13C435.435,1437.22 432.929,1431.96 432.929,1425.32C432.929,1418.53 435.723,1412.99 441.323,1408.72C446.917,1404.45 454.11,1402.31 462.898,1402.31C472.054,1402.31 479.442,1404.86 485.054,1409.94C490.667,1415.03 493.398,1421.23 493.235,1428.56L493.048,1428.92L486.335,1428.92C486.335,1422.98 484.229,1418.1 480.017,1414.27C475.81,1410.45 470.098,1408.53 462.898,1408.53C455.773,1408.53 450.217,1410.12 446.204,1413.3C442.198,1416.47 440.192,1420.42 440.192,1425.14C440.192,1429.62 442.042,1433.35 445.748,1436.34C449.454,1439.33 455.835,1441.96 464.91,1444.24C474.479,1446.68 481.748,1449.98 486.735,1454.13C491.717,1458.28 494.21,1463.75 494.21,1470.55C494.21,1477.63 491.31,1483.27 485.51,1487.45C479.717,1491.65 472.317,1493.74 463.323,1493.74C454.46,1493.74 446.71,1491.52 440.104,1487.06C433.492,1482.6 430.285,1476.1 430.492,1467.56L430.61,1467.19L437.323,1467.19C437.323,1474.09 439.904,1479.2 445.079,1482.52C450.248,1485.86 456.323,1487.52 463.323,1487.52C470.36,1487.52 476.054,1485.97 480.385,1482.88C484.717,1479.8 486.885,1475.71 486.885,1470.64" style="fill:rgb(213,213,213);fill-rule:nonzero;"/>
            <path d="M708.248,1409.82L677.667,1409.82L677.667,1492.46L670.348,1492.46L670.348,1409.82L639.767,1409.82L639.767,1403.6L708.248,1403.6L708.248,1409.82Z" style="fill:rgb(213,213,213);fill-rule:nonzero;"/>
            <path d="M887.373,1452.97L914.898,1403.6L923.386,1403.6L890.973,1459.99L890.973,1492.46L883.711,1492.46L883.711,1459.56L851.548,1403.6L860.03,1403.6L887.373,1452.97Z" style="fill:rgb(213,213,213);fill-rule:nonzero;"/>
            <path d="M1140.05,1492.46L1132.79,1492.46L1082.31,1416.04L1081.94,1416.1L1081.94,1492.46L1074.62,1492.46L1074.62,1403.59L1081.94,1403.59L1132.42,1479.88L1132.79,1479.83L1132.79,1403.59L1140.05,1403.59L1140.05,1492.46Z" style="fill:rgb(213,213,213);fill-rule:nonzero;"/>
            <path d="M1311.42,1461.15L1347.31,1461.15L1329.61,1413.06L1329.25,1413.06L1311.42,1461.15ZM1349.69,1467.68L1308.98,1467.68L1299.83,1492.46L1292.26,1492.46L1326.01,1403.59L1332.91,1403.59L1366.41,1492.46L1358.85,1492.46L1349.69,1467.68Z" style="fill:rgb(213,213,213);fill-rule:nonzero;"/>
            <path d="M1704.89,1450.72L1692.68,1450.72L1692.68,1492.47L1685.42,1492.47L1685.42,1403.6L1692.68,1403.6L1692.68,1444.5L1704.83,1444.5L1739.8,1403.6L1748.04,1403.6L1748.16,1403.91L1711.42,1447.33L1750.79,1492.16L1750.66,1492.47L1742,1492.47L1704.89,1450.72Z" style="fill:rgb(213,213,213);fill-rule:nonzero;"/>
            <path d="M1909.84,1446.08L1931.75,1446.08C1939.77,1446.08 1945.63,1444.46 1949.33,1441.23C1953.03,1437.99 1954.88,1433.63 1954.88,1428.14C1954.88,1422.27 1953.04,1417.77 1949.36,1414.62C1945.68,1411.46 1940.12,1409.89 1932.66,1409.89L1909.84,1409.89L1909.84,1446.08ZM1909.84,1452.31L1909.84,1492.47L1902.58,1492.47L1902.58,1403.66L1932.66,1403.66C1942.19,1403.66 1949.5,1405.75 1954.58,1409.92C1959.66,1414.09 1962.21,1420.18 1962.21,1428.2C1962.21,1432.92 1960.85,1437.14 1958.12,1440.86C1955.39,1444.59 1951.55,1447.3 1946.58,1449.01C1952.08,1450.39 1956.03,1452.87 1958.45,1456.42C1960.88,1459.99 1962.08,1464.45 1962.08,1469.82L1962.08,1478.19C1962.08,1480.95 1962.41,1483.44 1963.07,1485.63C1963.72,1487.83 1964.79,1489.62 1966.3,1491L1966.3,1492.47L1958.85,1492.47C1957.35,1491 1956.29,1488.94 1955.68,1486.31C1955.07,1483.66 1954.76,1480.91 1954.76,1478.06L1954.76,1469.94C1954.76,1464.49 1953,1460.19 1949.48,1457.04C1945.96,1453.88 1941.05,1452.31 1934.74,1452.31L1909.84,1452.31Z" style="fill:rgb(213,213,213);fill-rule:nonzero;"/>
            <path d="M2145.78,1452.97L2173.3,1403.6L2181.79,1403.6L2149.38,1459.99L2149.38,1492.46L2142.12,1492.46L2142.12,1459.56L2109.95,1403.6L2118.44,1403.6L2145.78,1452.97Z" style="fill:rgb(213,213,213);fill-rule:nonzero;"/>
            <path d="M2335.9,1486.24L2390.41,1486.24L2390.41,1492.46L2327.18,1492.46L2327.18,1486.8L2379.54,1409.82L2328.82,1409.82L2328.82,1403.6L2388.45,1403.6L2388.45,1408.91L2335.9,1486.24Z" style="fill:rgb(213,213,213);fill-rule:nonzero;"/>
            <path d="M2555.49,1461.15L2591.38,1461.15L2573.68,1413.06L2573.32,1413.06L2555.49,1461.15ZM2593.76,1467.68L2553.05,1467.68L2543.9,1492.46L2536.33,1492.46L2570.08,1403.59L2576.98,1403.59L2610.48,1492.46L2602.91,1492.46L2593.76,1467.68Z" style="fill:rgb(213,213,213);fill-rule:nonzero;"/>
            <path d="M666.463,1672.92L678.119,1672.92C681.782,1672.92 684.538,1671.99 686.382,1670.13C688.213,1668.26 689.138,1665.92 689.138,1663.1C689.138,1660.25 688.219,1657.88 686.388,1656C684.563,1654.11 681.8,1653.18 678.119,1653.18L666.463,1653.18L666.463,1672.92ZM666.463,1676.03L666.463,1694.5L662.832,1694.5L662.832,1650.06L678.119,1650.06C682.775,1650.06 686.388,1651.25 688.944,1653.61C691.494,1655.99 692.769,1659.13 692.769,1663.03C692.769,1666.98 691.494,1670.13 688.944,1672.5C686.388,1674.86 682.775,1676.03 678.119,1676.03L666.463,1676.03Z" style="fill:rgb(213,213,213);fill-rule:nonzero;"/>
            <path d="M769.02,1672.98L747.627,1672.98L747.627,1691.38L772.133,1691.38L772.133,1694.49L743.995,1694.49L743.995,1650.06L771.983,1650.06L771.983,1653.17L747.627,1653.17L747.627,1669.87L769.02,1669.87L769.02,1672.98Z" style="fill:rgb(213,213,213);fill-rule:nonzero;"/>
            <path d="M826.052,1671.3L837.002,1671.3C841.014,1671.3 843.939,1670.49 845.789,1668.87C847.645,1667.26 848.577,1665.08 848.577,1662.33C848.577,1659.4 847.645,1657.14 845.808,1655.56C843.97,1653.99 841.189,1653.2 837.464,1653.2L826.052,1653.2L826.052,1671.3ZM826.052,1674.41L826.052,1694.49L822.414,1694.49L822.414,1650.09L837.464,1650.09C842.227,1650.09 845.877,1651.13 848.414,1653.22C850.958,1655.3 852.233,1658.35 852.233,1662.36C852.233,1664.72 851.552,1666.83 850.183,1668.69C848.827,1670.56 846.902,1671.91 844.42,1672.76C847.17,1673.46 849.145,1674.69 850.358,1676.48C851.564,1678.25 852.177,1680.49 852.177,1683.17L852.177,1687.35C852.177,1688.74 852.333,1689.98 852.664,1691.08C852.989,1692.17 853.527,1693.07 854.277,1693.76L854.277,1694.49L850.552,1694.49C849.802,1693.76 849.27,1692.74 848.964,1691.41C848.658,1690.09 848.514,1688.71 848.514,1687.29L848.514,1683.23C848.514,1680.51 847.633,1678.36 845.87,1676.78C844.108,1675.2 841.652,1674.41 838.502,1674.41L826.052,1674.41Z" style="fill:rgb(213,213,213);fill-rule:nonzero;"/>
            <path d="M910.939,1650.06L927.258,1689.18L927.445,1689.18L943.839,1650.06L948.658,1650.06L948.658,1694.49L945.02,1694.49L945.02,1674.87L945.327,1655.43L945.145,1655.37L928.639,1694.49L926.102,1694.49L909.62,1655.55L909.439,1655.59L909.777,1674.87L909.777,1694.49L906.139,1694.49L906.139,1650.06L910.939,1650.06Z" style="fill:rgb(213,213,213);fill-rule:nonzero;"/>
            <path d="M1008.1,1678.84L1026.04,1678.84L1017.19,1654.79L1017.01,1654.79L1008.1,1678.84ZM1027.24,1682.1L1006.88,1682.1L1002.3,1694.5L998.519,1694.5L1015.39,1650.07L1018.84,1650.07L1035.59,1694.5L1031.81,1694.5L1027.24,1682.1Z" style="fill:rgb(213,213,213);fill-rule:nonzero;"/>
            <path d="M1117.61,1694.5L1113.98,1694.5L1088.74,1656.29L1088.56,1656.33L1088.56,1694.5L1084.9,1694.5L1084.9,1650.07L1088.56,1650.07L1113.8,1688.21L1113.98,1688.18L1113.98,1650.07L1117.61,1650.07L1117.61,1694.5Z" style="fill:rgb(213,213,213);fill-rule:nonzero;"/>
            <path d="M1196.79,1672.98L1175.4,1672.98L1175.4,1691.38L1199.9,1691.38L1199.9,1694.49L1171.77,1694.49L1171.77,1650.06L1199.75,1650.06L1199.75,1653.17L1175.4,1653.17L1175.4,1669.87L1196.79,1669.87L1196.79,1672.98Z" style="fill:rgb(213,213,213);fill-rule:nonzero;"/>
            <path d="M1282.99,1694.5L1279.37,1694.5L1254.13,1656.29L1253.95,1656.33L1253.95,1694.5L1250.28,1694.5L1250.28,1650.07L1253.95,1650.07L1279.18,1688.21L1279.37,1688.18L1279.37,1650.07L1282.99,1650.07L1282.99,1694.5Z" style="fill:rgb(213,213,213);fill-rule:nonzero;"/>
            <path d="M1366.05,1653.18L1350.76,1653.18L1350.76,1694.5L1347.1,1694.5L1347.1,1653.18L1331.81,1653.18L1331.81,1650.07L1366.05,1650.07L1366.05,1653.18Z" style="fill:rgb(213,213,213);fill-rule:nonzero;"/>
            <path d="M1478.27,1650.06L1494.6,1689.18L1494.78,1689.18L1511.17,1650.06L1515.99,1650.06L1515.99,1694.49L1512.36,1694.49L1512.36,1674.87L1512.66,1655.43L1512.48,1655.37L1495.97,1694.49L1493.44,1694.49L1476.96,1655.55L1476.78,1655.59L1477.11,1674.87L1477.11,1694.49L1473.48,1694.49L1473.48,1650.06L1478.27,1650.06Z" style="fill:rgb(213,213,213);fill-rule:nonzero;"/>
            <path d="M1575.43,1678.84L1593.37,1678.84L1584.52,1654.79L1584.34,1654.79L1575.43,1678.84ZM1594.57,1682.1L1574.21,1682.1L1569.63,1694.5L1565.85,1694.5L1582.72,1650.07L1586.17,1650.07L1602.92,1694.5L1599.14,1694.5L1594.57,1682.1Z" style="fill:rgb(213,213,213);fill-rule:nonzero;"/>
            <path d="M1661.97,1673.62L1655.86,1673.62L1655.86,1694.5L1652.23,1694.5L1652.23,1650.06L1655.86,1650.06L1655.86,1670.51L1661.94,1670.51L1679.43,1650.06L1683.55,1650.06L1683.61,1650.21L1665.23,1671.93L1684.92,1694.34L1684.86,1694.5L1680.53,1694.5L1661.97,1673.62Z" style="fill:rgb(213,213,213);fill-rule:nonzero;"/>
            <path d="M1759.68,1672.98L1738.29,1672.98L1738.29,1691.38L1762.79,1691.38L1762.79,1694.49L1734.65,1694.49L1734.65,1650.06L1762.64,1650.06L1762.64,1653.17L1738.29,1653.17L1738.29,1669.87L1759.68,1669.87L1759.68,1672.98Z" style="fill:rgb(213,213,213);fill-rule:nonzero;"/>
            <path d="M1844.23,1650.06L1844.23,1680.18C1844.23,1685.02 1842.75,1688.73 1839.79,1691.29C1836.82,1693.85 1832.97,1695.13 1828.21,1695.13C1823.51,1695.13 1819.7,1693.85 1816.79,1691.27C1813.89,1688.7 1812.43,1685 1812.43,1680.18L1812.43,1650.06L1816.09,1650.06L1816.09,1680.15C1816.09,1683.94 1817.21,1686.87 1819.45,1688.93C1821.69,1690.99 1824.61,1692.02 1828.21,1692.02C1831.87,1692.02 1834.85,1691 1837.15,1688.94C1839.45,1686.89 1840.6,1683.96 1840.6,1680.15L1840.6,1650.06L1844.23,1650.06Z" style="fill:rgb(213,213,213);fill-rule:nonzero;"/>
            <path d="M1901.22,1672.92L1912.88,1672.92C1916.54,1672.92 1919.3,1671.99 1921.13,1670.13C1922.97,1668.26 1923.89,1665.92 1923.89,1663.1C1923.89,1660.25 1922.98,1657.88 1921.14,1656C1919.32,1654.11 1916.56,1653.18 1912.88,1653.18L1901.22,1653.18L1901.22,1672.92ZM1901.22,1676.03L1901.22,1694.5L1897.59,1694.5L1897.59,1650.06L1912.88,1650.06C1917.53,1650.06 1921.14,1651.25 1923.69,1653.61C1926.25,1655.99 1927.53,1659.13 1927.53,1663.03C1927.53,1666.98 1926.25,1670.13 1923.69,1672.5C1921.14,1674.86 1917.53,1676.03 1912.88,1676.03L1901.22,1676.03Z" style="fill:rgb(213,213,213);fill-rule:nonzero;"/>
            <path d="M1300.44,952.467C1317.65,948.417 1333.02,947.686 1346.59,950.286C1360.15,952.886 1372.06,957.292 1382.28,963.486C1392.5,969.661 1400.95,976.792 1407.62,984.855C1414.29,992.924 1419.22,1000.33 1422.44,1007.07C1425.65,1013.84 1427.03,1019.09 1426.57,1022.85C1426.11,1026.59 1424.03,1027.28 1420.36,1024.92C1411.23,1020.86 1398.23,1018.69 1381.36,1018.39C1364.48,1018.08 1345.09,1018.97 1323.17,1021.03C1301.27,1023.1 1277.8,1026.04 1252.78,1029.9C1227.77,1033.74 1202.65,1038.17 1177.41,1043.17C1152.16,1048.17 1127.74,1053.23 1104.12,1058.37C1080.5,1063.5 1059.11,1068.29 1039.92,1072.78C1020.76,1077.27 1004.77,1081.06 991.965,1084.13C979.171,1087.23 970.94,1089.19 967.296,1089.99C948.59,1094.37 932.602,1095.22 919.34,1092.54C906.077,1089.89 895.084,1085.68 886.39,1079.97C877.684,1074.23 871.209,1068.11 866.946,1061.59C862.665,1055.06 860.202,1050.27 859.552,1047.26C858.89,1044.22 858.89,1040.89 859.515,1037.26C860.165,1033.63 860.977,1030.44 861.965,1027.7C863.115,1024.27 864.621,1020.95 866.446,1017.68C875.196,1021.49 885.577,1023.99 897.571,1025.2C909.571,1026.4 922.915,1026.51 937.609,1025.53C931.784,1022.05 926.99,1018.25 923.24,1014.15C919.502,1010.05 917.134,1005.72 916.146,1001.19C915.627,998.755 916.59,990.455 919.071,976.299C921.546,962.111 924.79,944.199 928.809,922.549C932.827,900.911 937.277,876.861 942.171,850.43C947.059,824.005 952.452,797.492 956.002,770.586C959.084,747.13 963.846,721.749 966.99,693.042C969.677,668.392 978.015,627.792 982.502,609.605C992.471,572.211 1065.07,628.786 1065.73,631.874C1065.95,632.786 1064.35,640.43 1060.96,654.799C1057.58,669.161 1053.33,687.53 1048.19,709.905C1043.05,732.274 1037.66,757.467 1032.02,785.48C1026.38,813.524 1021.43,841.549 1017.21,869.574C1012.99,897.617 1010.1,924.486 1008.55,950.199C1007,975.899 1007.67,997.642 1010.57,1015.4C1036.15,1010.49 1062.58,1005.15 1089.88,999.38C1117.18,993.611 1143.7,987.942 1169.45,982.342C1195.18,976.749 1219.37,971.349 1242.03,966.105C1264.67,960.867 1284.15,956.33 1300.44,952.467M686.077,486.199C687.496,483.986 690.677,480.367 695.621,475.324C700.546,470.305 706.071,464.017 712.215,456.486C718.352,448.98 724.484,440.667 730.577,431.574C736.702,422.48 741.659,412.761 745.421,402.424C741.177,398.917 736.746,396.38 732.115,394.842C727.509,393.311 722.94,393.042 718.396,394.03C702.034,397.58 685.159,403.449 667.759,411.686C650.34,419.899 633.64,430.261 617.652,442.78C601.652,455.286 586.815,469.849 573.146,486.449C559.459,503.055 548.202,521.28 539.346,541.136C530.496,560.98 524.69,582.442 521.94,605.561C519.19,628.692 520.602,653.117 526.196,678.861C527.971,687.042 530.759,693.249 534.521,697.517C538.315,701.761 542.59,704.724 547.402,706.38C552.19,708.017 557.459,708.549 563.196,707.942C568.927,707.324 574.677,706.392 580.427,705.149C601.327,700.611 620.165,693.111 636.921,682.649C653.684,672.186 668.552,660.399 681.559,647.28C694.565,634.136 705.821,620.586 715.321,606.636C724.821,592.68 732.734,579.861 739.09,568.174C745.427,556.486 750.309,546.867 753.74,539.299C757.177,531.736 759.352,527.861 760.246,527.642C761.765,527.324 763.634,528.267 765.865,530.467C768.09,532.705 770.284,535.474 772.427,538.811C774.571,542.142 776.465,545.705 778.071,549.474C779.69,553.249 780.459,556.417 780.384,558.967C780.152,571.074 777.771,584.58 773.24,599.524C768.715,614.461 762.584,629.667 754.846,645.155C747.109,660.63 738.127,675.899 727.921,690.955C717.715,706.011 706.796,719.649 695.165,731.842C683.552,744.049 671.527,754.424 659.121,762.992C646.702,771.555 634.59,777.111 622.777,779.68C616.421,781.061 607.627,781.142 596.421,779.936C585.215,778.711 572.927,776.155 559.559,772.242C546.165,768.324 532.346,763.074 518.084,756.499C503.796,749.936 490.446,741.736 478.002,731.899C465.565,722.08 454.702,710.799 445.459,698.067C436.184,685.324 429.796,670.93 426.309,654.874C420.859,629.742 420.984,604.424 426.709,578.911C432.427,553.405 441.746,528.792 454.677,505.049C467.596,481.311 483.19,458.88 501.452,437.811C519.69,416.711 538.465,397.961 557.752,381.561C577.015,365.167 595.884,351.649 614.334,340.967C632.784,330.299 648.84,323.492 662.465,320.536C671.859,318.486 680.996,318.574 689.884,320.761C698.752,322.949 707.052,326.48 714.759,331.311C722.471,336.136 729.359,341.924 735.434,348.705C741.496,355.461 746.715,362.342 751.09,369.317C751.202,365.492 750.877,361.742 750.071,358.117C749.634,355.999 751.94,355.011 757.052,355.186C762.165,355.349 768.127,356.886 774.959,359.861C781.777,362.817 788.521,367.542 795.165,374.017C801.802,380.499 806.284,389.055 808.584,399.655C810.552,408.736 808.959,418.592 803.834,429.236C798.671,439.861 791.915,449.974 783.527,459.574C775.146,469.155 766.027,477.574 756.184,484.78C746.315,491.98 737.465,496.442 729.59,498.149C725.952,498.949 721.477,499.136 716.152,498.686C710.821,498.274 705.715,497.392 700.821,496.074C695.94,494.761 692.021,493.155 689.077,491.255C686.127,489.355 685.121,487.686 686.077,486.199M1821.58,271.03C1824.21,268.549 1826.98,267.792 1829.88,268.749C1832.78,269.699 1835.53,271.399 1838.12,273.867C1840.71,276.299 1842.73,278.961 1844.13,281.824C1845.56,284.699 1846.1,286.792 1845.75,288.136C1843.77,293.649 1840.36,301.686 1835.52,312.242C1830.68,322.805 1824.9,334.53 1818.17,347.411C1811.47,360.286 1803.87,373.505 1795.39,387.08C1786.93,400.667 1778.23,413.255 1769.34,424.861C1764.44,431.249 1759.47,437.142 1754.49,442.499C1755.25,442.642 1756.09,442.805 1757.02,442.986C1761.18,443.83 1766.02,445.005 1771.58,446.492C1777.14,447.974 1783,449.811 1789.17,451.949C1795.35,454.086 1800.93,456.455 1805.94,459.011C1810.93,461.574 1815,464.255 1818.15,467.061C1821.3,469.874 1822.52,472.617 1821.83,475.299C1820.61,481.28 1819.21,488.011 1817.66,495.461C1816.12,502.949 1814.69,510.317 1813.4,517.567C1812.13,524.824 1811.23,531.599 1810.7,537.899C1810.16,544.205 1810.25,549.017 1810.98,552.355C1808.86,552.817 1803.81,552.555 1795.83,551.599C1787.85,550.624 1779.46,548.88 1770.66,546.349C1761.87,543.83 1753.71,540.605 1746.21,536.674C1738.7,532.761 1734.38,528.236 1733.27,523.08C1731.95,517.024 1732.12,509.761 1733.77,501.324C1735.41,492.874 1737.5,484.58 1740.02,476.424C1742.52,468.255 1744.83,461.011 1746.96,454.692C1747.77,452.28 1748.39,450.149 1748.82,448.342C1746.63,450.499 1744.45,452.567 1742.24,454.517C1733.07,462.705 1724.26,467.711 1715.77,469.549C1705.48,471.78 1693.82,472.567 1680.83,471.911C1667.85,471.23 1655.22,468.511 1642.91,463.73C1630.6,458.93 1619.7,451.805 1610.19,442.292C1602.59,434.699 1596.95,425.217 1593.29,413.849L1592.7,415.399C1588.44,426.474 1584.22,437.305 1580,447.886C1575.8,458.486 1571.91,467.961 1568.34,476.336C1564.77,484.742 1561.73,491.511 1559.19,496.649C1558.35,498.374 1557.6,499.811 1556.93,500.986C1559.38,501.211 1562.65,501.674 1566.78,502.367C1574.51,503.705 1582.75,505.811 1591.45,508.674C1600.16,511.542 1608.27,515.267 1615.76,519.805C1623.25,524.374 1627.64,529.686 1628.97,535.736C1629.56,538.461 1628.67,545.305 1626.3,556.299C1623.93,567.28 1620.76,580.811 1616.8,596.899C1612.85,612.98 1608.47,630.811 1603.68,650.405C1598.89,670.011 1594.38,689.767 1590.15,709.73C1597.52,695.436 1605.18,681.399 1613.12,667.636C1621.07,653.855 1629.02,641.505 1636.95,630.58C1644.88,619.661 1652.38,610.661 1659.4,603.58C1666.42,596.517 1672.5,592.405 1677.67,591.28C1683.12,590.105 1688.78,591.411 1694.67,595.199C1700.59,598.999 1706.03,603.524 1710.97,608.799C1715.73,613.811 1720.51,619.374 1725.31,625.486C1725.94,622.055 1726.57,618.73 1727.16,615.511C1729.38,603.767 1731.23,594.005 1732.7,586.236C1734.19,578.461 1734.8,573.961 1734.54,572.761C1735.44,572.555 1737.97,572.886 1742.12,573.717C1746.27,574.555 1751.11,575.736 1756.68,577.23C1762.23,578.705 1768.1,580.542 1774.27,582.686C1780.45,584.83 1786.03,587.186 1791.03,589.749C1796.02,592.305 1800.1,594.986 1803.25,597.786C1806.38,600.599 1807.62,603.367 1806.93,606.042C1806.04,610.661 1804.31,618.736 1801.73,630.23C1799.14,641.742 1796.66,655.136 1794.27,670.399C1791.87,685.667 1789.92,701.855 1788.41,719.005C1786.9,736.155 1786.58,752.536 1787.43,768.217L1842.22,649.011C1845.78,629.099 1851.22,611.111 1858.55,595.049C1866.18,578.342 1874.97,564.392 1884.9,553.167C1894.84,541.986 1904.01,535.324 1912.43,533.18C1914.85,532.642 1919.33,532.867 1925.87,533.824C1932.44,534.774 1939.58,536.236 1947.3,538.211C1955.02,540.167 1962.52,542.592 1969.81,545.455C1977.09,548.305 1982.82,551.349 1987.01,554.561C1989.13,554.111 1991.83,554.149 1995.12,554.699C1998.42,555.261 2001.83,556.736 2005.36,559.13C2008.9,561.542 2012.32,565.242 2015.62,570.236C2018.92,575.236 2021.51,581.961 2023.35,590.436C2024.85,600.261 2024.9,610.411 2023.52,620.849C2022.14,631.299 2019.1,641.092 2014.43,650.18C2009.75,659.28 2003.25,667.355 1994.93,674.38C1986.65,681.436 1976.28,686.299 1963.87,688.986C1950.24,691.942 1939.38,692.011 1931.32,689.161C1923.24,686.317 1917.27,681.824 1913.39,675.68C1913.21,679.217 1912.97,682.442 1912.65,685.361C1912.33,688.286 1912.15,691.111 1912.1,693.805C1912.06,696.511 1912.13,699.436 1912.34,702.561C1912.55,705.686 1912.94,709.405 1913.58,713.717C1914.65,720.124 1916.81,725.699 1920.05,730.38C1923.28,735.08 1927.27,738.799 1932,741.586C1936.72,744.367 1941.78,746.117 1947.17,746.855C1952.57,747.592 1957.95,747.192 1963.33,745.73C1969.33,744.099 1975.76,740.092 1982.6,733.68C1989.46,727.28 1996.54,719.317 2003.83,709.805C2011.12,700.299 2018.28,689.792 2025.29,678.267C2032.31,666.761 2038.9,655.174 2045.1,643.511C2051.28,631.874 2056.93,620.655 2062.05,609.861C2067.16,599.08 2071.23,589.705 2074.26,581.755C2076.9,579.286 2079.67,578.524 2082.58,579.474C2085.48,580.442 2088.22,582.136 2090.82,584.599C2093.41,587.036 2095.42,589.692 2096.83,592.567C2098.25,595.43 2098.77,597.53 2098.43,598.867C2096.47,604.38 2093.04,612.411 2088.21,622.974C2083.37,633.555 2077.59,645.261 2070.88,658.136C2064.15,671.03 2056.55,684.242 2048.08,697.824C2039.62,711.392 2030.93,723.974 2022.03,735.599C2013.14,747.192 2004.1,757.092 1994.94,765.255C1985.77,773.43 1976.95,778.436 1968.47,780.292C1958.17,782.53 1946.52,783.317 1933.53,782.636C1920.54,781.98 1907.9,779.23 1895.61,774.461C1883.32,769.686 1872.4,762.517 1862.88,753.03C1855.27,745.436 1849.65,735.955 1845.98,724.586L1845.37,726.136C1841.13,737.217 1836.9,748.042 1832.7,758.624C1828.49,769.211 1824.6,778.699 1821.03,787.086C1817.46,795.467 1814.4,802.242 1811.88,807.392C1809.35,812.53 1807.64,815.217 1806.73,815.405C1804.3,815.93 1801.83,815.842 1799.3,815.124C1796.76,814.392 1794.11,813.542 1791.36,812.561C1786.78,811.961 1780.33,810.355 1772,807.724C1763.65,805.092 1755.26,801.849 1746.81,797.98C1738.35,794.099 1730.85,789.855 1724.3,785.255C1717.75,780.655 1713.98,776.08 1713,771.53C1711.08,762.761 1710.3,751.824 1710.63,738.755C1710.97,725.674 1711.96,711.967 1713.61,697.667C1715.23,683.349 1717.37,669.011 1719.97,654.655C1721.35,647.017 1722.66,639.755 1723.93,632.867C1707.3,646.692 1693.61,659.805 1682.87,672.217C1671.21,685.699 1662.03,697.449 1655.32,707.48C1647.43,719.336 1641.56,730.28 1637.71,740.317C1639.03,746.361 1642.73,754.286 1648.82,764.067C1654.9,773.842 1662.57,784.317 1671.8,795.467C1681.05,806.617 1691.23,817.724 1702.36,828.792C1713.48,839.849 1724.65,849.724 1735.9,858.38C1747.14,867.049 1758.1,873.705 1768.78,878.355C1779.47,883.024 1788.76,884.486 1796.62,882.78C1799.03,882.255 1799.83,884.067 1799,888.211C1798.15,892.355 1795.97,897.261 1792.43,902.949C1788.91,908.63 1784.23,914.08 1778.39,919.317C1772.54,924.561 1765.83,927.992 1758.27,929.636C1747.67,931.961 1737.39,931.717 1727.43,928.974C1717.48,926.205 1707.95,921.78 1698.86,915.655C1689.77,909.555 1681.18,902.136 1673.1,893.424C1665.03,884.705 1657.6,875.699 1650.82,866.392C1634.95,844.467 1620.45,818.586 1607.32,788.767C1604.95,792.455 1602.59,798.042 1600.25,805.524C1597.92,813.017 1595.73,820.861 1593.72,829.067C1591.69,837.286 1589.91,845.199 1588.4,852.83C1586.88,860.436 1585.76,866.242 1585.03,870.205C1585.3,871.417 1585.57,872.311 1585.86,872.88C1586.15,873.461 1586.35,874.042 1586.47,874.655C1586.62,875.255 1586.9,875.824 1587.33,876.38C1584.9,876.886 1579.43,876.499 1570.89,875.186C1562.37,873.861 1553.41,871.674 1544.03,868.655C1534.65,865.617 1526.02,861.692 1518.16,856.899C1510.3,852.099 1505.69,846.517 1504.3,840.161C1501.87,828.955 1501.68,813.149 1503.75,792.705L1503.77,792.411C1492.2,800.961 1480.15,807.324 1467.63,811.492C1463.66,822.505 1459.03,833.649 1453.72,844.955C1448.41,856.255 1442.25,866.649 1435.27,876.092C1428.28,885.524 1420.6,893.624 1412.24,900.361C1403.86,907.086 1394.83,911.505 1385.14,913.605C1377.57,915.255 1368.44,914.474 1357.74,911.236C1347.05,908.005 1336.57,903.549 1326.29,897.836C1316.02,892.149 1306.94,885.786 1299.08,878.786C1291.2,871.774 1286.28,865.136 1284.31,858.924C1281.97,851.68 1280.2,844.28 1278.97,836.749C1277.39,838.086 1275.78,839.386 1274.15,840.667C1261.66,850.349 1248.62,857.474 1235.02,862.005C1231.05,873.011 1226.43,884.174 1221.12,895.48C1215.8,906.774 1209.63,917.155 1202.65,926.599C1195.68,936.042 1187.99,944.142 1179.62,950.861C1171.25,957.605 1162.21,962.017 1152.53,964.13C1144.95,965.767 1135.83,964.974 1125.13,961.736C1114.43,958.517 1103.96,954.061 1093.68,948.374C1083.4,942.661 1074.33,936.311 1066.46,929.292C1058.6,922.274 1053.67,915.655 1051.68,909.424C1045.8,891.036 1043.43,871.73 1044.57,851.505C1045.74,831.267 1049.33,812.405 1055.37,794.93C1061.4,777.436 1069.4,762.474 1079.38,749.992C1089.36,737.505 1100.11,730.024 1111.61,727.53C1116.46,726.48 1122.98,726.88 1131.16,728.742C1139.33,730.636 1147.71,733.08 1156.3,736.136C1164.89,739.186 1172.81,742.386 1180.03,745.717C1187.27,749.08 1192.32,751.549 1195.2,753.142C1199.95,753.074 1204.7,753.449 1209.48,754.324C1214.28,755.199 1218.95,757.017 1223.53,759.842C1228.12,762.649 1232.37,766.555 1236.32,771.574C1240.26,776.58 1243.6,783.224 1246.35,791.524C1248.67,799.255 1247.85,812.28 1243.89,830.586C1247.02,828.955 1249.75,827.249 1252.07,825.486C1254.37,823.711 1256.64,822.105 1258.87,820.667C1264.8,815.886 1270.4,810.236 1275.65,803.705C1276.13,803.074 1276.65,802.442 1277.15,801.817L1277.18,800.999C1278.35,780.755 1281.94,761.905 1287.98,744.411C1294.02,726.924 1302.02,711.955 1311.99,699.48C1321.96,687.011 1332.71,679.505 1344.23,677.017C1349.08,675.961 1355.58,676.374 1363.76,678.255C1371.93,680.117 1380.32,682.574 1388.91,685.636C1397.51,688.674 1405.41,691.88 1412.65,695.236C1419.87,698.567 1424.93,701.036 1427.8,702.63C1432.55,702.567 1437.32,702.949 1442.1,703.817C1446.89,704.68 1451.58,706.505 1456.14,709.324C1460.73,712.13 1464.98,716.061 1468.91,721.067C1472.87,726.08 1476.2,732.717 1478.96,740.986C1481.28,748.736 1480.46,761.774 1476.5,780.074C1479.64,778.436 1482.37,776.736 1484.67,774.974C1486.98,773.205 1489.24,771.605 1491.48,770.161C1497.42,765.386 1503.01,759.73 1508.25,753.192L1508.92,752.342C1510.25,743.667 1511.75,734.692 1513.4,725.442C1517.78,701.024 1522.64,676.024 1528.04,650.417C1532.5,629.236 1536.6,609.492 1540.38,591.161L1539.75,592.217C1536.22,597.892 1531.55,603.361 1525.69,608.586C1519.86,613.83 1513.15,617.261 1505.58,618.917C1494.99,621.217 1484.7,620.98 1474.74,618.23C1464.79,615.474 1455.26,611.036 1446.16,604.93C1437.07,598.824 1428.48,591.399 1420.4,582.686C1412.32,573.967 1404.9,564.961 1398.12,555.649C1382.27,533.736 1367.76,507.849 1354.63,478.036C1352.27,481.724 1349.9,487.311 1347.56,494.792C1345.23,502.28 1343.04,510.136 1341.02,518.33C1338.99,526.555 1337.23,534.474 1335.71,542.086C1334.19,549.711 1333.07,555.505 1332.34,559.467C1332.6,560.68 1332.88,561.58 1333.16,562.149C1333.45,562.724 1333.65,563.317 1333.79,563.917C1333.92,564.53 1334.2,565.099 1334.63,565.636C1332.21,566.155 1326.74,565.761 1318.19,564.442C1309.67,563.13 1300.71,560.942 1291.33,557.917C1281.95,554.88 1273.32,550.961 1265.48,546.149C1257.62,541.367 1252.99,535.799 1251.62,529.43C1249.16,518.236 1248.99,502.405 1251.05,481.967L1251.08,481.667C1239.51,490.224 1227.45,496.58 1214.93,500.767C1210.98,511.767 1206.35,522.917 1201.03,534.224C1195.72,545.536 1189.57,555.905 1182.57,565.355C1175.58,574.799 1167.91,582.886 1159.55,589.624C1151.16,596.349 1142.14,600.78 1132.45,602.88C1124.88,604.536 1115.74,603.724 1105.05,600.511C1094.37,597.286 1083.88,592.811 1073.6,587.117C1063.33,581.424 1054.25,575.055 1046.38,568.042C1038.52,561.03 1033.6,554.417 1031.6,548.186C1029.28,540.942 1027.5,533.561 1026.28,526.024C1024.68,527.349 1023.08,528.655 1021.45,529.936C1008.96,539.617 995.921,546.742 982.321,551.28C978.371,562.28 973.74,573.436 968.415,584.724C963.09,596.049 956.952,606.417 949.959,615.874C942.971,625.311 935.29,633.399 926.915,640.13C918.552,646.867 909.521,651.292 899.827,653.392C892.259,655.036 883.127,654.249 872.434,651.03C861.746,647.786 851.265,643.311 840.977,637.649C830.715,631.924 821.64,625.574 813.771,618.555C805.909,611.542 800.977,604.93 798.99,598.699C793.09,580.305 790.734,560.992 791.884,540.774C793.04,520.542 796.64,501.674 802.665,484.192C808.709,466.699 816.715,451.717 826.69,439.255C836.665,426.774 847.415,419.292 858.921,416.786C863.777,415.742 870.277,416.142 878.452,418.017C886.64,419.899 895.021,422.355 903.602,425.399C912.209,428.449 920.109,431.655 927.34,434.986C934.559,438.342 939.627,440.824 942.502,442.411C947.24,442.33 952.009,442.717 956.809,443.586C961.571,444.461 966.265,446.286 970.846,449.099C975.415,451.911 979.677,455.83 983.609,460.842C987.552,465.849 990.921,472.505 993.659,480.786C995.977,488.517 995.152,501.555 991.196,519.842C994.321,518.217 997.059,516.505 999.365,514.73C1001.67,512.974 1003.95,511.38 1006.17,509.936C1012.12,505.161 1017.7,499.499 1022.94,492.967C1023.45,492.349 1023.95,491.692 1024.46,491.08L1024.5,490.255C1025.65,470.042 1029.25,451.167 1035.29,433.674C1041.33,416.199 1049.33,401.205 1059.29,388.73C1069.28,376.274 1080.02,368.774 1091.53,366.28C1096.38,365.224 1102.89,365.63 1111.07,367.511C1119.25,369.38 1127.63,371.842 1136.21,374.899C1144.82,377.936 1152.72,381.142 1159.95,384.486C1167.18,387.836 1172.23,390.305 1175.12,391.911C1179.85,391.824 1184.62,392.211 1189.4,393.074C1194.2,393.936 1198.88,395.786 1203.45,398.599C1208.02,401.399 1212.29,405.317 1216.22,410.33C1220.18,415.342 1223.52,421.98 1226.27,430.255C1228.58,438.017 1227.76,451.03 1223.81,469.342C1226.94,467.705 1229.68,466.017 1231.98,464.242C1234.29,462.467 1236.55,460.861 1238.79,459.424C1244.71,454.642 1250.32,448.999 1255.55,442.467L1256.23,441.611C1257.55,432.917 1259.05,423.949 1260.71,414.711C1265.08,390.274 1269.96,365.28 1275.34,339.686C1280.73,314.086 1285.62,290.592 1290,269.174C1294.39,247.774 1297.71,229.849 1299.98,215.392C1302.23,200.967 1302.15,192.567 1299.74,190.249C1301.56,189.842 1306.34,190.317 1314.08,191.642C1321.83,192.974 1330.04,195.08 1338.77,197.942C1347.46,200.805 1355.57,204.511 1363.07,209.08C1370.55,213.642 1374.96,218.942 1376.27,224.999C1376.87,227.717 1375.98,234.567 1373.6,245.567C1371.23,256.542 1368.07,270.074 1364.1,286.161C1360.13,302.242 1355.77,320.08 1350.98,339.667C1346.21,359.267 1341.7,379.036 1337.46,398.98C1344.82,384.705 1352.48,370.674 1360.43,356.899C1368.38,343.111 1376.32,330.767 1384.26,319.83C1392.2,308.917 1399.68,299.924 1406.7,292.842C1413.73,285.767 1419.83,281.674 1424.96,280.561C1430.42,279.367 1436.11,280.674 1442,284.48C1447.89,288.267 1453.32,292.792 1458.26,298.055C1463.05,303.074 1467.82,308.636 1472.61,314.736C1473.25,311.317 1473.87,307.992 1474.48,304.774C1476.68,293.024 1478.53,283.274 1480,275.505C1481.49,267.724 1482.1,263.224 1481.83,262.017C1482.75,261.824 1485.28,262.142 1489.43,262.986C1493.58,263.836 1498.43,264.999 1503.97,266.499C1509.53,267.967 1515.41,269.805 1521.58,271.955C1527.75,274.086 1533.35,276.455 1538.35,279.011C1543.33,281.574 1547.4,284.255 1550.56,287.061C1553.7,289.867 1554.93,292.611 1554.24,295.305C1553.35,299.936 1551.62,308.005 1549.03,319.505C1546.46,331.011 1543.98,344.392 1541.58,359.661C1539.18,374.936 1537.22,391.124 1535.72,408.28C1534.2,425.411 1533.89,441.805 1534.74,457.486L1589.53,338.286C1593.09,318.367 1598.53,300.386 1605.86,284.33C1613.48,267.605 1622.27,253.649 1632.22,242.442C1642.14,231.249 1651.33,224.586 1659.73,222.436C1662.16,221.905 1666.65,222.13 1673.2,223.092C1679.75,224.042 1686.88,225.505 1694.6,227.474C1702.33,229.442 1709.85,231.867 1717.1,234.717C1724.39,237.58 1730.13,240.617 1734.32,243.836C1736.45,243.361 1739.15,243.417 1742.43,243.967C1745.72,244.517 1749.13,246.005 1752.66,248.399C1756.21,250.811 1759.63,254.505 1762.94,259.492C1766.22,264.499 1768.82,271.224 1770.65,279.705C1772.15,289.536 1772.21,299.661 1770.83,310.117C1769.47,320.567 1766.42,330.336 1761.73,339.449C1757.07,348.549 1750.57,356.624 1742.25,363.649C1733.95,370.699 1723.6,375.567 1711.18,378.255C1697.55,381.224 1686.7,381.267 1678.63,378.417C1670.55,375.586 1664.59,371.086 1660.72,364.961C1660.53,368.48 1660.27,371.705 1659.96,374.63C1659.63,377.555 1659.46,380.367 1659.42,383.067C1659.37,385.78 1659.44,388.692 1659.65,391.817C1659.85,394.949 1660.26,398.667 1660.88,402.961C1661.95,409.399 1664.11,414.967 1667.37,419.642C1670.6,424.324 1674.57,428.08 1679.3,430.855C1684.03,433.63 1689.1,435.386 1694.47,436.117C1699.87,436.842 1705.26,436.461 1710.65,434.974C1716.64,433.355 1723.06,429.355 1729.92,422.942C1736.77,416.555 1743.86,408.58 1751.13,399.074C1758.42,389.555 1765.58,379.049 1772.58,367.536C1779.62,356.03 1786.21,344.436 1792.4,332.78C1798.59,321.124 1804.24,309.924 1809.37,299.13C1814.47,288.342 1818.54,278.986 1821.58,271.03M1553.97,504.686C1551.57,505.199 1549.1,505.099 1546.6,504.399C1544.07,503.667 1541.43,502.824 1538.66,501.824C1534.1,501.23 1527.65,499.617 1519.31,496.992C1510.97,494.355 1502.56,491.124 1494.12,487.23C1485.66,483.367 1478.16,479.13 1471.61,474.517C1465.07,469.905 1461.3,465.349 1460.31,460.799C1458.4,452.011 1457.62,441.086 1457.94,428.011C1458.27,414.936 1459.27,401.242 1460.91,386.93C1462.56,372.617 1464.68,358.274 1467.28,343.917C1468.65,336.28 1469.98,329.024 1471.25,322.13C1454.6,335.949 1440.92,349.067 1430.17,361.48C1418.51,374.961 1409.33,386.711 1402.62,396.736C1394.73,408.605 1388.85,419.542 1385.02,429.586C1386.33,435.642 1390.04,443.555 1396.13,453.33C1402.2,463.117 1409.87,473.586 1419.12,484.724C1428.36,495.88 1438.54,506.999 1449.66,518.061C1460.78,529.124 1471.97,538.986 1483.21,547.655C1494.45,556.299 1505.4,562.974 1516.08,567.617C1526.78,572.286 1536.05,573.749 1543.92,572.042C1544.06,572.005 1544.19,571.992 1544.32,571.986C1547.91,554.042 1550.7,538.767 1552.65,526.136C1554.25,516.011 1554.69,508.855 1553.97,504.686M1722.75,256.336C1719.73,256.999 1715.44,259.499 1709.9,263.88C1704.35,268.261 1698.51,274.286 1692.4,281.955C1686.3,289.624 1680.49,299.042 1674.99,310.23C1669.49,321.411 1665.46,334.274 1662.9,348.767C1664.76,349.955 1667.13,350.711 1670.05,351.036C1672.98,351.349 1676.57,351.042 1680.8,350.13C1689.58,348.205 1697.12,343.805 1703.38,336.899C1709.65,329.98 1714.79,321.892 1718.8,312.617C1722.82,303.33 1725.8,293.736 1727.77,283.792C1729.73,273.849 1730.85,265.042 1731.08,257.374C1728.87,255.961 1726.09,255.617 1722.75,256.336M1558.28,241.611C1556.16,242.074 1551.12,241.824 1543.13,240.861C1535.16,239.899 1526.77,238.155 1517.96,235.63C1509.17,233.08 1501.03,229.867 1493.51,225.955C1486,222.036 1481.68,217.486 1480.55,212.349C1479.25,206.28 1479.41,199.03 1481.07,190.592C1482.74,182.142 1484.82,173.849 1487.33,165.68C1489.84,157.524 1492.15,150.286 1494.27,143.961C1496.38,137.624 1497.2,133.405 1496.74,131.292C1497.66,131.092 1500.17,131.417 1504.33,132.255C1508.48,133.092 1513.33,134.267 1518.88,135.755C1524.45,137.236 1530.31,139.061 1536.48,141.211C1542.66,143.355 1548.25,145.717 1553.23,148.274C1558.24,150.836 1562.3,153.517 1565.45,156.324C1568.59,159.136 1569.83,161.874 1569.15,164.561C1567.9,170.542 1566.5,177.274 1564.97,184.736C1563.41,192.217 1562.01,199.58 1560.73,206.842C1559.45,214.099 1558.53,220.855 1558,227.167C1557.47,233.474 1557.57,238.286 1558.28,241.611M1118.89,577.749C1123.75,576.705 1128.44,573.861 1132.98,569.217C1137.53,564.58 1141.83,558.811 1145.88,551.905C1149.91,544.999 1153.71,537.217 1157.21,528.511C1160.71,519.83 1163.85,510.911 1166.62,501.742C1161.86,500.236 1156.95,498.142 1151.92,495.424C1146.88,492.699 1142.1,489.617 1137.56,486.167C1134.47,483.655 1131.3,480.786 1128.06,477.53C1124.81,474.261 1121.79,470.567 1118.99,466.411C1112.45,483.049 1108.16,500.161 1106.1,517.724C1104.06,535.299 1105.36,551.205 1110.03,565.405C1110.23,566.317 1110.57,567.505 1111.05,568.98C1111.53,570.48 1112.16,571.924 1112.95,573.342C1113.73,574.761 1114.62,575.911 1115.61,576.811C1116.58,577.699 1117.69,578.017 1118.89,577.749M1178.1,423.124C1175.67,416.361 1172.28,412.024 1167.9,410.13C1163.52,408.217 1159.29,407.392 1155.22,407.63C1148.03,413.955 1141.25,422.874 1134.88,434.405C1134.6,436.061 1134.6,437.561 1134.9,438.924C1135.2,440.292 1135.51,441.73 1135.84,443.242C1137,447.124 1139.01,450.886 1141.86,454.549C1144.72,458.199 1147.88,461.467 1151.37,464.374C1154.86,467.255 1158.49,469.805 1162.3,471.992C1166.12,474.18 1169.71,475.842 1173.13,477.017C1175.93,464.986 1177.85,454.105 1178.91,444.361C1179.96,434.617 1179.7,427.536 1178.1,423.124M886.296,628.261C891.134,627.211 895.834,624.355 900.377,619.73C904.915,615.092 909.215,609.336 913.271,602.424C917.315,595.517 921.109,587.717 924.602,579.036C928.115,570.336 931.246,561.411 934.009,552.242C929.234,550.736 924.34,548.642 919.309,545.93C914.284,543.211 909.496,540.124 904.94,536.68C901.859,534.18 898.696,531.292 895.44,528.042C892.202,524.767 889.171,521.08 886.371,516.917C879.827,533.555 875.54,550.674 873.502,568.236C871.434,585.817 872.746,601.699 877.427,615.917C877.627,616.824 877.959,618.005 878.434,619.505C878.921,620.992 879.559,622.43 880.334,623.855C881.115,625.261 882.009,626.424 882.99,627.311C883.971,628.199 885.071,628.53 886.296,628.261M945.484,473.642C943.059,466.874 939.665,462.53 935.29,460.63C930.902,458.724 926.684,457.905 922.615,458.155C915.415,464.467 908.64,473.399 902.271,484.93C901.984,486.567 901.996,488.074 902.29,489.436C902.584,490.799 902.902,492.23 903.227,493.761C904.39,497.63 906.384,501.392 909.246,505.061C912.102,508.73 915.277,511.992 918.765,514.88C922.24,517.78 925.89,520.305 929.696,522.505C933.49,524.68 937.096,526.361 940.527,527.524C943.315,515.499 945.234,504.617 946.277,494.861C947.34,485.13 947.084,478.049 945.484,473.642M1975.44,567.067C1972.41,567.724 1968.12,570.236 1962.58,574.617C1957.03,578.992 1951.19,585.017 1945.09,592.692C1938.99,600.349 1933.18,609.78 1927.69,620.974C1922.18,632.149 1918.15,645.005 1915.59,659.511C1917.44,660.705 1919.82,661.449 1922.74,661.761C1925.67,662.08 1929.24,661.78 1933.49,660.849C1942.28,658.955 1949.8,654.549 1956.07,647.63C1962.34,640.724 1967.48,632.617 1971.49,623.349C1975.51,614.074 1978.49,604.461 1980.46,594.524C1982.41,584.586 1983.52,575.774 1983.76,568.117C1981.56,566.686 1978.79,566.336 1975.44,567.067M1138.98,938.999C1143.82,937.949 1148.53,935.099 1153.07,930.474C1157.61,925.83 1161.91,920.061 1165.96,913.155C1170.01,906.255 1173.79,898.442 1177.3,889.767C1180.79,881.08 1183.93,872.149 1186.71,862.999C1181.94,861.486 1177.04,859.367 1172,856.667C1166.98,853.936 1162.19,850.867 1157.62,847.405C1154.55,844.917 1151.38,842.036 1148.14,838.774C1144.89,835.505 1141.87,831.811 1139.07,827.642C1132.53,844.305 1128.24,861.411 1126.18,878.986C1124.14,896.561 1125.44,912.449 1130.11,926.649C1130.31,927.561 1130.65,928.761 1131.12,930.236C1131.61,931.711 1132.24,933.167 1133.03,934.58C1133.82,935.992 1134.69,937.155 1135.68,938.042C1136.66,938.949 1137.77,939.261 1138.98,938.999M1198.17,784.374C1195.76,777.599 1192.35,773.261 1187.97,771.355C1183.61,769.467 1179.38,768.649 1175.31,768.892C1168.1,775.205 1161.33,784.136 1154.95,795.667C1154.67,797.299 1154.67,798.805 1154.98,800.174C1155.28,801.536 1155.59,802.974 1155.92,804.492C1157.08,808.367 1159.09,812.13 1161.95,815.799C1164.8,819.461 1167.96,822.73 1171.44,825.611C1174.92,828.517 1178.58,831.049 1182.38,833.236C1186.18,835.424 1189.8,837.092 1193.23,838.261C1196.01,826.236 1197.92,815.361 1198.98,805.611C1200.03,795.861 1199.78,788.78 1198.17,784.374M1371.59,888.492C1376.45,887.43 1381.12,884.599 1385.68,879.949C1390.21,875.33 1394.53,869.549 1398.57,862.649C1402.61,855.736 1406.4,847.942 1409.9,839.249C1413.41,830.574 1416.54,821.642 1419.32,812.474C1414.54,810.974 1409.64,808.861 1404.61,806.161C1399.58,803.424 1394.8,800.349 1390.24,796.899C1387.16,794.392 1383.99,791.517 1380.76,788.267C1377.51,784.999 1374.48,781.292 1371.67,777.142C1365.15,793.774 1360.85,810.899 1358.8,828.455C1356.75,846.036 1358.05,861.93 1362.73,876.142C1362.92,877.042 1363.26,878.242 1363.74,879.717C1364.22,881.211 1364.86,882.649 1365.62,884.074C1366.42,885.486 1367.31,886.642 1368.29,887.536C1369.28,888.436 1370.38,888.755 1371.59,888.492M1430.78,733.855C1428.36,727.086 1424.97,722.749 1420.59,720.849C1416.2,718.949 1411.99,718.124 1407.91,718.367C1400.73,724.705 1393.94,733.617 1387.55,745.149C1387.29,746.799 1387.29,748.305 1387.59,749.661C1387.89,751.03 1388.21,752.467 1388.53,753.967C1389.69,757.849 1391.69,761.624 1394.55,765.286C1397.41,768.942 1400.58,772.217 1404.06,775.117C1407.55,778.005 1411.18,780.542 1414.99,782.73C1418.8,784.917 1422.42,786.586 1425.84,787.749C1428.61,775.717 1430.53,764.836 1431.59,755.092C1432.65,745.342 1432.38,738.274 1430.78,733.855" style="fill:rgb(213,213,213);fill-rule:nonzero;"/>
        </g>
    </g>
</svg>
