<?xml version="1.0" encoding="UTF-8" standalone="no"?><!DOCTYPE svg PUBLIC "-//W3C//DTD SVG 1.1//EN" "http://www.w3.org/Graphics/SVG/1.1/DTD/svg11.dtd"><svg width="100%" height="100%" viewBox="0 0 3064 454" version="1.1" xmlns="http://www.w3.org/2000/svg" xmlns:xlink="http://www.w3.org/1999/xlink" xml:space="preserve" xmlns:serif="http://www.serif.com/" style="fill-rule:evenodd;clip-rule:evenodd;stroke-linejoin:round;stroke-miterlimit:2;"><g><g><path d="M842.071,100.117l6.344,0l0,55.142c0,7.016 -2.088,12.594 -6.266,16.733c-4.176,4.141 -9.579,6.213 -16.203,6.213c-7.229,0 -12.936,-1.866 -17.131,-5.605c-4.192,-3.736 -6.202,-9.2 -6.026,-16.389l0.106,-0.315l5.92,-0c0,5.549 1.48,9.757 4.44,12.624c2.963,2.859 7.192,4.293 12.691,4.293c4.688,0 8.547,-1.592 11.579,-4.781c3.029,-3.187 4.546,-7.459 4.546,-12.813l0,-55.102Z" style="fill:#fff;fill-rule:nonzero;"/></g><g><path d="M1041.06,100.117l-0,52.182c-0,8.389 -2.566,14.805 -7.694,19.245c-5.128,4.44 -11.816,6.661 -20.064,6.661c-8.141,0 -14.736,-2.232 -19.773,-6.688c-5.037,-4.456 -7.56,-10.864 -7.56,-19.218l0,-52.182l6.347,0l-0,52.144c-0,6.552 1.938,11.616 5.813,15.19c3.875,3.573 8.936,5.362 15.173,5.362c6.347,0 11.51,-1.778 15.491,-5.336c3.984,-3.557 5.976,-8.629 5.976,-15.216l0,-52.144l6.291,0Z" style="fill:#fff;fill-rule:nonzero;"/></g><g><path d="M1223.03,158.195c-0,-4.187 -1.571,-7.614 -4.707,-10.267c-3.133,-2.661 -8.6,-5.008 -16.389,-7.048c-8.422,-2.115 -14.803,-4.864 -19.139,-8.248c-4.336,-3.384 -6.501,-7.947 -6.501,-13.693c-0,-5.886 2.421,-10.68 7.266,-14.382c4.851,-3.698 11.08,-5.549 18.691,-5.549c7.931,0 14.328,2.203 19.192,6.608c4.864,4.405 7.227,9.781 7.085,16.125l-0.16,0.318l-5.816,-0c0,-5.144 -1.821,-9.374 -5.469,-12.691c-3.651,-3.315 -8.592,-4.968 -14.832,-4.968c-6.168,0 -10.987,1.373 -14.459,4.125c-3.474,2.747 -5.208,6.168 -5.208,10.256c0,3.875 1.603,7.11 4.811,9.702c3.211,2.589 8.739,4.874 16.6,6.845c8.285,2.115 14.581,4.971 18.901,8.565c4.32,3.595 6.478,8.339 6.478,14.222c-0,6.133 -2.512,11.013 -7.534,14.645c-5.024,3.632 -11.429,5.445 -19.218,5.445c-7.683,0 -14.392,-1.93 -20.118,-5.789c-5.725,-3.859 -8.501,-9.491 -8.325,-16.891l0.104,-0.317l5.816,-0c0,5.973 2.235,10.405 6.715,13.28c4.48,2.885 9.744,4.325 15.808,4.325c6.096,0 11.021,-1.338 14.778,-4.013c3.752,-2.675 5.63,-6.208 5.63,-10.605" style="fill:#fff;fill-rule:nonzero;"/></g><g><path d="M1414.78,105.509l-26.49,0l-0,71.587l-6.344,0l-0,-71.587l-26.486,0l0,-5.392l59.32,0l0,5.392Z" style="fill:#fff;fill-rule:nonzero;"/></g><g><path d="M1569.93,142.888l23.845,-42.771l7.349,0l-28.074,48.851l-0,28.128l-6.291,0l0,-28.499l-27.864,-48.48l7.349,0l23.686,42.771Z" style="fill:#fff;fill-rule:nonzero;"/></g><g><path d="M1788.8,177.096l-6.291,0l-43.722,-66.192l-0.318,0.051l0,66.141l-6.344,0l0,-76.979l6.344,0l43.72,66.088l0.32,-0.053l0,-66.035l6.291,0l0,76.979Z" style="fill:#fff;fill-rule:nonzero;"/></g><g><path d="M1937.25,149.973l31.085,0l-15.33,-41.661l-0.318,0l-15.437,41.661Zm33.149,5.659l-35.264,0l-7.933,21.464l-6.555,0l29.238,-76.979l5.976,0l29.024,76.979l-6.558,0l-7.928,-21.464Z" style="fill:#fff;fill-rule:nonzero;"/></g><g><path d="M2278.08,140.933l-10.576,0l0,36.163l-6.29,0l-0,-76.979l6.29,0l0,35.424l10.52,0l30.296,-35.424l7.139,0l0.107,0.264l-31.83,37.616l34.102,38.835l-0.107,0.264l-7.507,0l-32.144,-36.163Z" style="fill:#fff;fill-rule:nonzero;"/></g><g><path d="M2455.59,136.915l18.982,-0c6.941,-0 12.016,-1.4 15.226,-4.203c3.208,-2.803 4.811,-6.581 4.811,-11.341c0,-5.075 -1.597,-8.976 -4.784,-11.71c-3.189,-2.736 -8.011,-4.098 -14.461,-4.098l-19.774,-0l0,31.352Zm0,5.392l0,34.789l-6.29,0l-0,-76.925l26.064,-0c8.248,-0 14.576,1.808 18.978,5.418c4.408,3.611 6.611,8.894 6.611,15.835c0,4.088 -1.181,7.744 -3.541,10.971c-2.366,3.224 -5.696,5.576 -9.992,7.058c4.757,1.2 8.184,3.342 10.282,6.422c2.099,3.082 3.147,6.954 3.147,11.605l0,7.243c0,2.397 0.277,4.546 0.843,6.45c0.568,1.904 1.498,3.454 2.802,4.654l0,1.269l-6.448,0c-1.306,-1.269 -2.221,-3.051 -2.749,-5.341c-0.531,-2.288 -0.795,-4.67 -0.795,-7.136l0,-7.032c0,-4.723 -1.522,-8.451 -4.573,-11.182c-3.051,-2.733 -7.304,-4.098 -12.768,-4.098l-21.571,-0Z" style="fill:#fff;fill-rule:nonzero;"/></g><g><path d="M2659.99,142.888l23.843,-42.771l7.349,0l-28.072,48.851l0,28.128l-6.29,0l-0,-28.499l-27.864,-48.48l7.349,0l23.685,42.771Z" style="fill:#fff;fill-rule:nonzero;"/></g><g><path d="M2824.66,171.701l47.213,0l0,5.392l-54.773,0l0,-4.909l45.363,-66.675l-43.936,0l-0,-5.392l51.653,0l0,4.598l-45.52,66.986Z" style="fill:#fff;fill-rule:nonzero;"/></g><g><path d="M3014.87,149.973l31.088,0l-15.333,-41.661l-0.315,0l-15.44,41.661Zm33.152,5.659l-35.266,0l-7.931,21.464l-6.555,0l29.238,-76.979l5.973,0l29.024,76.979l-6.555,0l-7.928,-21.464Z" style="fill:#fff;fill-rule:nonzero;"/></g><g><path d="M1378.58,333.408l10.099,0c3.173,0 5.554,-0.811 7.152,-2.416c1.589,-1.619 2.389,-3.648 2.389,-6.096c0,-2.469 -0.792,-4.515 -2.379,-6.149c-1.586,-1.627 -3.976,-2.443 -7.162,-2.443l-10.099,0l0,17.104Zm0,2.696l0,15.992l-3.147,0l0,-38.488l13.246,0c4.034,0 7.157,1.024 9.373,3.077c2.211,2.056 3.315,4.774 3.315,8.158c-0,3.421 -1.104,6.149 -3.315,8.194c-2.216,2.046 -5.339,3.067 -9.373,3.067l-10.099,-0Z" style="fill:#fff;fill-rule:nonzero;"/></g><g><path d="M1467.41,333.461l-18.53,0l-0,15.942l21.229,-0l0,2.696l-24.376,-0l0,-38.491l24.243,-0l-0,2.696l-21.096,-0l-0,14.461l18.53,0l0,2.696Z" style="fill:#fff;fill-rule:nonzero;"/></g><g><path d="M1516.82,332.008l9.486,0c3.472,0 6.013,-0.699 7.613,-2.104c1.608,-1.395 2.411,-3.288 2.411,-5.669c-0,-2.536 -0.803,-4.488 -2.395,-5.856c-1.592,-1.366 -4.003,-2.046 -7.227,-2.046l-9.888,0l0,15.675Zm0,2.696l0,17.395l-3.152,-0l0,-38.464l13.04,-0c4.123,-0 7.283,0.904 9.486,2.712c2.202,1.802 3.309,4.44 3.309,7.914c0,2.048 -0.595,3.875 -1.776,5.483c-1.181,1.619 -2.848,2.792 -4.992,3.533c2.379,0.598 4.091,1.67 5.139,3.214c1.045,1.538 1.573,3.474 1.573,5.8l0,3.621c0,1.2 0.139,2.272 0.427,3.224c0.277,0.952 0.744,1.731 1.394,2.328l0,0.635l-3.226,-0c-0.648,-0.635 -1.11,-1.523 -1.376,-2.67c-0.262,-1.149 -0.39,-2.338 -0.39,-3.57l0,-3.515c0,-2.363 -0.76,-4.224 -2.29,-5.589c-1.528,-1.368 -3.654,-2.051 -6.379,-2.051l-10.787,0Z" style="fill:#fff;fill-rule:nonzero;"/></g><g><path d="M1590.35,313.608l14.138,33.891l0.158,-0l14.202,-33.891l4.176,0l0,38.491l-3.152,-0l0,-16.998l0.264,-16.84l-0.16,-0.053l-14.293,33.891l-2.2,-0l-14.277,-33.731l-0.155,0.024l0.293,16.709l0,16.998l-3.152,-0l0,-38.491l4.158,-0Z" style="fill:#fff;fill-rule:nonzero;"/></g><g><path d="M1674.51,338.536l15.541,0l-7.666,-20.832l-0.155,0l-7.72,20.832Zm16.573,2.829l-17.632,0l-3.965,10.731l-3.277,0l14.618,-38.488l2.987,0l14.512,38.488l-3.277,0l-3.966,-10.731Z" style="fill:#fff;fill-rule:nonzero;"/></g><g><path d="M1769.37,352.099l-3.146,-0l-21.862,-33.096l-0.16,0.026l0,33.07l-3.17,-0l-0,-38.491l3.17,-0l21.864,33.045l0.158,-0.026l-0,-33.019l3.146,-0l0,38.491Z" style="fill:#fff;fill-rule:nonzero;"/></g><g><path d="M1837.96,333.461l-18.531,0l0,15.942l21.227,-0l-0,2.696l-24.374,-0l0,-38.491l24.24,-0l0,2.696l-21.093,-0l0,14.461l18.531,0l-0,2.696Z" style="fill:#fff;fill-rule:nonzero;"/></g><g><path d="M1912.62,352.099l-3.141,-0l-21.861,-33.096l-0.16,0.026l-0,33.07l-3.171,-0l0,-38.491l3.171,-0l21.864,33.045l0.157,-0.026l0,-33.019l3.141,-0l0,38.491Z" style="fill:#fff;fill-rule:nonzero;"/></g><g><path d="M1984.58,316.304l-13.245,-0l0,35.792l-3.171,0l0,-35.792l-13.242,0l-0,-2.696l29.658,0l0,2.696Z" style="fill:#fff;fill-rule:nonzero;"/></g><g><path d="M2081.78,313.608l14.144,33.891l0.157,-0l14.197,-33.891l4.174,0l-0,38.491l-3.147,-0l0,-16.998l0.267,-16.84l-0.16,-0.053l-14.302,33.891l-2.192,-0l-14.277,-33.731l-0.157,0.024l0.29,16.709l0,16.998l-3.146,-0l-0,-38.491l4.152,-0Z" style="fill:#fff;fill-rule:nonzero;"/></g><g><path d="M2165.93,338.536l15.544,0l-7.666,-20.832l-0.158,0l-7.72,20.832Zm16.576,2.829l-17.632,0l-3.965,10.731l-3.277,0l14.616,-38.488l2.986,0l14.515,38.488l-3.277,0l-3.966,-10.731Z" style="fill:#fff;fill-rule:nonzero;"/></g><g><path d="M2240.89,334.016l-5.285,-0l0,18.08l-3.147,0l0,-38.488l3.147,0l0,17.712l5.259,0l15.149,-17.712l3.568,0l0.051,0.131l-15.912,18.808l17.05,19.416l-0.05,0.133l-3.758,0l-16.072,-18.08Z" style="fill:#fff;fill-rule:nonzero;"/></g><g><path d="M2325.53,333.461l-18.53,0l-0,15.942l21.226,-0l0,2.696l-24.373,-0l0,-38.491l24.24,-0l0,2.696l-21.093,-0l-0,14.461l18.53,0l0,2.696Z" style="fill:#fff;fill-rule:nonzero;"/></g><g><path d="M2398.78,313.608l0,26.091c0,4.192 -1.285,7.402 -3.842,9.624c-2.571,2.221 -5.912,3.33 -10.035,3.33c-4.072,0 -7.368,-1.114 -9.888,-3.346c-2.52,-2.227 -3.781,-5.43 -3.781,-9.608l-0,-26.091l3.173,0l0,26.069c0,3.28 0.968,5.814 2.907,7.598c1.941,1.786 4.469,2.682 7.589,2.682c3.171,0 5.749,-0.89 7.744,-2.672c1.992,-1.776 2.987,-4.312 2.987,-7.608l-0,-26.069l3.146,0Z" style="fill:#fff;fill-rule:nonzero;"/></g><g><path d="M2448.15,333.408l10.096,0c3.174,0 5.558,-0.811 7.15,-2.416c1.594,-1.619 2.394,-3.648 2.394,-6.096c0,-2.469 -0.794,-4.515 -2.378,-6.149c-1.587,-1.627 -3.979,-2.443 -7.166,-2.443l-10.096,0l0,17.104Zm0,2.696l0,15.992l-3.146,0l-0,-38.488l13.242,0c4.035,0 7.16,1.024 9.371,3.077c2.213,2.056 3.32,4.774 3.32,8.158c0,3.421 -1.107,6.149 -3.32,8.194c-2.211,2.046 -5.336,3.067 -9.371,3.067l-10.096,-0Z" style="fill:#fff;fill-rule:nonzero;"/></g><g><path d="M544.61,451.659l-451.656,-0l0,-147.766l6.864,0l0,140.899l437.928,-0l0,-107.691l6.864,0l0,114.558Z" style="fill:#fff;fill-rule:nonzero;"/></g><g><path d="M544.607,159.779l-6.866,-0l-0,-152.912l-437.92,-0l-0,77.456l-6.867,-0l0,-84.323l451.653,0l0,159.779Z" style="fill:#fff;fill-rule:nonzero;"/></g><g><path d="M321.581,348.779c6.298,-1.486 11.93,-1.75 16.898,-0.798c4.968,0.952 9.328,2.566 13.072,4.835c3.744,2.259 6.84,4.872 9.28,7.821c2.443,2.958 4.248,5.67 5.427,8.142c1.173,2.477 1.683,4.4 1.512,5.773c-0.165,1.373 -0.925,1.624 -2.275,0.757c-3.341,-1.482 -8.104,-2.28 -14.282,-2.389c-6.179,-0.112 -13.28,0.213 -21.31,0.968c-8.024,0.757 -16.616,1.835 -25.778,3.248c-9.155,1.405 -18.36,3.029 -27.6,4.859c-9.243,1.834 -18.19,3.685 -26.843,5.568c-8.651,1.877 -16.483,3.632 -23.504,5.274c-7.021,1.646 -12.875,3.032 -17.565,4.16c-4.686,1.136 -7.699,1.851 -9.035,2.144c-6.848,1.603 -12.704,1.915 -17.563,0.934c-4.853,-0.971 -8.882,-2.51 -12.066,-4.603c-3.19,-2.099 -5.558,-4.341 -7.12,-6.731c-1.568,-2.392 -2.47,-4.141 -2.71,-5.248c-0.242,-1.114 -0.242,-2.33 -0.01,-3.658c0.234,-1.334 0.53,-2.502 0.896,-3.504c0.421,-1.256 0.97,-2.472 1.64,-3.672c3.205,1.397 7.005,2.314 11.4,2.757c4.392,0.437 9.28,0.477 14.664,0.12c-2.136,-1.275 -3.891,-2.667 -5.264,-4.168c-1.368,-1.501 -2.238,-3.085 -2.598,-4.749c-0.192,-0.888 0.163,-3.928 1.072,-9.115c0.904,-5.195 2.091,-11.755 3.566,-19.68c1.469,-7.925 3.098,-16.733 4.893,-26.413c1.789,-9.678 3.765,-19.384 5.064,-29.24c1.128,-8.59 2.869,-17.886 4.027,-28.395c0.981,-9.029 4.037,-23.899 5.677,-30.557c3.651,-13.694 30.24,7.024 30.485,8.157c0.078,0.331 -0.512,3.131 -1.752,8.392c-1.24,5.261 -2.794,11.989 -4.677,20.181c-1.88,8.192 -3.853,17.419 -5.92,27.678c-2.067,10.269 -3.875,20.533 -5.424,30.797c-1.547,10.269 -2.603,20.109 -3.173,29.523c-0.566,9.413 -0.32,17.376 0.741,23.88c9.368,-1.798 19.048,-3.758 29.045,-5.87c9.995,-2.112 19.707,-4.186 29.139,-6.234c9.421,-2.051 18.28,-4.03 26.581,-5.95c8.291,-1.92 15.424,-3.578 21.39,-4.994m-224.987,-170.752c0.517,-0.811 1.685,-2.136 3.493,-3.982c1.803,-1.842 3.83,-4.144 6.078,-6.901c2.248,-2.749 4.49,-5.792 6.725,-9.123c2.24,-3.33 4.059,-6.888 5.435,-10.674c-1.555,-1.286 -3.179,-2.214 -4.872,-2.776c-1.688,-0.56 -3.363,-0.659 -5.027,-0.296c-5.989,1.298 -12.171,3.448 -18.541,6.461c-6.379,3.008 -12.494,6.805 -18.352,11.389c-5.856,4.582 -11.291,9.915 -16.299,15.992c-5.011,6.08 -9.136,12.755 -12.376,20.027c-3.243,7.267 -5.368,15.128 -6.373,23.592c-1.008,8.472 -0.494,17.416 1.557,26.845c0.651,2.998 1.672,5.27 3.048,6.832c1.389,1.552 2.957,2.64 4.717,3.246c1.755,0.6 3.683,0.794 5.787,0.573c2.099,-0.227 4.203,-0.568 6.307,-1.024c7.653,-1.661 14.554,-4.408 20.69,-8.24c6.139,-3.829 11.587,-8.149 16.347,-12.952c4.763,-4.813 8.885,-9.773 12.365,-14.885c3.478,-5.112 6.374,-9.806 8.702,-14.086c2.322,-4.28 4.109,-7.8 5.368,-10.573c1.258,-2.771 2.053,-4.189 2.381,-4.269c0.557,-0.118 1.24,0.229 2.059,1.037c0.816,0.816 1.616,1.829 2.4,3.053c0.786,1.219 1.48,2.526 2.069,3.904c0.592,1.384 0.875,2.542 0.848,3.478c-0.085,4.432 -0.957,9.378 -2.613,14.853c-1.662,5.469 -3.907,11.037 -6.742,16.709c-2.832,5.667 -6.12,11.262 -9.858,16.774c-3.739,5.512 -7.736,10.506 -11.995,14.973c-4.256,4.469 -8.656,8.272 -13.203,11.405c-4.544,3.136 -8.981,5.174 -13.306,6.112c-2.331,0.507 -5.55,0.536 -9.654,0.094c-4.104,-0.446 -8.602,-1.384 -13.498,-2.816c-4.907,-1.435 -9.963,-3.358 -15.187,-5.766c-5.235,-2.402 -10.123,-5.405 -14.68,-9.008c-4.555,-3.597 -8.536,-7.728 -11.92,-12.392c-3.395,-4.666 -5.733,-9.936 -7.013,-15.816c-1.998,-9.202 -1.95,-18.474 0.149,-27.818c2.093,-9.342 5.504,-18.355 10.24,-27.048c4.733,-8.694 10.443,-16.91 17.128,-24.624c6.683,-7.728 13.557,-14.592 20.621,-20.6c7.051,-6.003 13.963,-10.955 20.718,-14.867c6.76,-3.907 12.64,-6.4 17.629,-7.483c3.44,-0.746 6.787,-0.717 10.037,0.083c3.251,0.803 6.291,2.093 9.112,3.864c2.827,1.765 5.347,3.885 7.571,6.371c2.221,2.474 4.133,4.994 5.736,7.549c0.04,-1.403 -0.08,-2.776 -0.373,-4.101c-0.16,-0.776 0.685,-1.139 2.554,-1.075c1.875,0.059 4.056,0.621 6.558,1.709c2.496,1.083 4.968,2.816 7.4,5.187c2.432,2.373 4.074,5.504 4.914,9.387c0.723,3.328 0.139,6.938 -1.738,10.837c-1.891,3.888 -4.366,7.589 -7.435,11.107c-3.072,3.509 -6.411,6.592 -10.016,9.229c-3.616,2.64 -6.853,4.272 -9.741,4.896c-1.331,0.296 -2.968,0.363 -4.92,0.197c-1.95,-0.149 -3.822,-0.472 -5.616,-0.957c-1.784,-0.477 -3.219,-1.067 -4.299,-1.763c-1.08,-0.696 -1.448,-1.306 -1.096,-1.85m415.832,-78.8c0.965,-0.907 1.981,-1.184 3.043,-0.835c1.061,0.347 2.069,0.973 3.018,1.875c0.947,0.893 1.686,1.866 2.2,2.914c0.52,1.054 0.723,1.819 0.592,2.312c-0.725,2.016 -1.976,4.963 -3.749,8.827c-1.771,3.867 -3.888,8.163 -6.349,12.88c-2.456,4.715 -5.238,9.555 -8.342,14.525c-3.098,4.979 -6.285,9.587 -9.541,13.838c-1.792,2.341 -3.613,4.496 -5.44,6.461c0.277,0.048 0.589,0.112 0.928,0.176c1.523,0.309 3.296,0.741 5.333,1.285c2.038,0.544 4.184,1.216 6.443,1.998c2.261,0.784 4.307,1.65 6.139,2.584c1.826,0.941 3.317,1.922 4.472,2.952c1.149,1.029 1.6,2.034 1.349,3.016c-0.448,2.189 -0.963,4.653 -1.528,7.381c-0.568,2.744 -1.088,5.44 -1.56,8.096c-0.464,2.659 -0.795,5.139 -0.992,7.445c-0.195,2.312 -0.16,4.075 0.101,5.296c-0.773,0.168 -2.621,0.072 -5.546,-0.277c-2.918,-0.357 -5.995,-0.997 -9.216,-1.92c-3.222,-0.925 -6.208,-2.109 -8.952,-3.547c-2.752,-1.434 -4.334,-3.09 -4.744,-4.978c-0.48,-2.216 -0.419,-4.878 0.186,-7.966c0.603,-3.096 1.366,-6.133 2.286,-9.12c0.92,-2.989 1.765,-5.642 2.544,-7.954c0.296,-0.886 0.525,-1.667 0.68,-2.328c-0.8,0.786 -1.598,1.546 -2.406,2.261c-3.36,2.997 -6.589,4.832 -9.698,5.507c-3.766,0.813 -8.035,1.104 -12.792,0.864c-4.755,-0.251 -9.382,-1.246 -13.886,-2.998c-4.509,-1.757 -8.498,-4.368 -11.984,-7.85c-2.786,-2.779 -4.848,-6.254 -6.186,-10.416l-0.219,0.568c-1.56,4.056 -3.107,8.021 -4.648,11.896c-1.547,3.882 -2.965,7.352 -4.275,10.418c-1.306,3.08 -2.421,5.558 -3.349,7.44c-0.309,0.632 -0.587,1.158 -0.827,1.587c0.896,0.083 2.096,0.253 3.606,0.507c2.832,0.49 5.848,1.261 9.034,2.312c3.19,1.048 6.158,2.413 8.904,4.074c2.742,1.672 4.35,3.619 4.835,5.835c0.219,0.997 -0.109,3.501 -0.979,7.531c-0.864,4.021 -2.026,8.976 -3.477,14.866c-1.445,5.888 -3.048,12.419 -4.803,19.595c-1.757,7.179 -3.408,14.416 -4.954,21.725c2.698,-5.234 5.501,-10.376 8.41,-15.416c2.912,-5.048 5.824,-9.568 8.728,-13.568c2.907,-4 5.651,-7.296 8.222,-9.89c2.57,-2.587 4.797,-4.091 6.693,-4.504c1.989,-0.43 4.067,0.05 6.224,1.437c2.165,1.392 4.155,3.048 5.965,4.979c1.747,1.837 3.496,3.874 5.254,6.112c0.232,-1.256 0.461,-2.475 0.68,-3.654c0.808,-4.301 1.485,-7.874 2.026,-10.72c0.547,-2.848 0.766,-4.493 0.672,-4.936c0.328,-0.074 1.256,0.046 2.776,0.352c1.523,0.307 3.296,0.739 5.334,1.286c2.032,0.541 4.184,1.213 6.442,1.997c2.262,0.787 4.31,1.648 6.136,2.584c1.83,0.939 3.323,1.92 4.475,2.947c1.149,1.032 1.603,2.042 1.349,3.024c-0.325,1.69 -0.96,4.648 -1.901,8.858c-0.952,4.214 -1.859,9.12 -2.736,14.71c-0.88,5.589 -1.589,11.52 -2.144,17.797c-0.552,6.283 -0.672,12.283 -0.36,18.024l20.064,-43.653c1.307,-7.294 3.296,-13.88 5.981,-19.763c2.792,-6.12 6.011,-11.227 9.648,-15.336c3.64,-4.096 7,-6.536 10.083,-7.32c0.888,-0.197 2.531,-0.115 4.925,0.235c2.403,0.349 5.016,0.885 7.846,1.605c2.829,0.717 5.573,1.605 8.242,2.653c2.667,1.046 4.766,2.16 6.299,3.334c0.776,-0.163 1.765,-0.15 2.973,0.053c1.208,0.205 2.454,0.744 3.747,1.621c1.296,0.883 2.549,2.238 3.755,4.067c1.213,1.829 2.16,4.293 2.834,7.397c0.55,3.6 0.568,7.315 0.062,11.139c-0.507,3.829 -1.616,7.413 -3.326,10.741c-1.717,3.331 -4.096,6.291 -7.144,8.864c-3.034,2.582 -6.829,4.363 -11.376,5.347c-4.989,1.085 -8.968,1.109 -11.92,0.067c-2.957,-1.043 -5.146,-2.688 -6.562,-4.939c-0.07,1.296 -0.158,2.477 -0.275,3.544c-0.115,1.075 -0.179,2.104 -0.2,3.096c-0.016,0.989 0.013,2.059 0.088,3.205c0.077,1.142 0.219,2.507 0.453,4.086c0.398,2.346 1.184,4.386 2.368,6.101c1.187,1.72 2.643,3.083 4.376,4.104c1.731,1.019 3.584,1.659 5.558,1.928c1.976,0.269 3.949,0.128 5.922,-0.411c2.192,-0.597 4.547,-2.066 7.056,-4.413c2.51,-2.344 5.102,-5.259 7.774,-8.744c2.666,-3.48 5.288,-7.328 7.856,-11.547c2.57,-4.213 4.986,-8.458 7.253,-12.73c2.264,-4.259 4.339,-8.368 6.213,-12.323c1.87,-3.947 3.36,-7.381 4.47,-10.293c0.965,-0.904 1.978,-1.184 3.042,-0.835c1.067,0.355 2.07,0.976 3.022,1.875c0.944,0.893 1.685,1.869 2.2,2.92c0.52,1.05 0.712,1.818 0.586,2.306c-0.72,2.019 -1.973,4.96 -3.741,8.83c-1.776,3.874 -3.891,8.162 -6.349,12.877c-2.462,4.723 -5.246,9.56 -8.347,14.533c-3.101,4.971 -6.285,9.576 -9.541,13.835c-3.256,4.248 -6.568,7.872 -9.92,10.859c-3.36,2.994 -6.59,4.829 -9.699,5.506c-3.768,0.819 -8.035,1.11 -12.792,0.862c-4.757,-0.243 -9.387,-1.248 -13.891,-2.995c-4.498,-1.752 -8.493,-4.373 -11.984,-7.851c-2.784,-2.781 -4.842,-6.25 -6.186,-10.416l-0.224,0.568c-1.552,4.056 -3.104,8.024 -4.638,11.899c-1.544,3.875 -2.968,7.352 -4.274,10.421c-1.312,3.07 -2.427,5.552 -3.355,7.438c-0.923,1.882 -1.552,2.864 -1.885,2.936c-0.891,0.192 -1.792,0.157 -2.718,-0.102c-0.933,-0.269 -1.901,-0.581 -2.912,-0.941c-1.672,-0.221 -4.037,-0.811 -7.088,-1.773c-3.058,-0.963 -6.13,-2.15 -9.224,-3.566c-3.098,-1.421 -5.845,-2.976 -8.242,-4.661c-2.398,-1.685 -3.782,-3.36 -4.144,-5.027c-0.696,-3.21 -0.984,-7.216 -0.864,-12.005c0.122,-4.789 0.488,-9.808 1.093,-15.043c0.595,-5.242 1.376,-10.496 2.325,-15.752c0.507,-2.797 0.987,-5.456 1.454,-7.981c-6.091,5.067 -11.107,9.867 -15.04,14.413c-4.27,4.936 -7.632,9.24 -10.088,12.91c-2.891,4.344 -5.038,8.352 -6.448,12.026c0.482,2.216 1.837,5.118 4.069,8.702c2.229,3.578 5.035,7.413 8.413,11.496c3.39,4.085 7.118,8.152 11.19,12.205c4.074,4.051 8.168,7.664 12.285,10.835c4.117,3.176 8.131,5.616 12.043,7.314c3.912,1.71 7.317,2.246 10.194,1.622c0.886,-0.195 1.176,0.469 0.87,1.989c-0.31,1.517 -1.104,3.315 -2.403,5.397c-1.285,2.08 -3.005,4.078 -5.144,5.995c-2.141,1.92 -4.597,3.176 -7.365,3.776c-3.883,0.853 -7.646,0.763 -11.291,-0.24c-3.648,-1.013 -7.139,-2.635 -10.467,-4.877c-3.33,-2.238 -6.474,-4.95 -9.434,-8.142c-2.955,-3.194 -5.678,-6.493 -8.163,-9.901c-5.808,-8.029 -11.12,-17.507 -15.925,-28.427c-0.872,1.352 -1.736,3.398 -2.59,6.136c-0.853,2.747 -1.656,5.619 -2.397,8.624c-0.739,3.011 -1.389,5.907 -1.944,8.699c-0.555,2.789 -0.965,4.915 -1.232,6.365c0.099,0.446 0.197,0.771 0.301,0.979c0.104,0.213 0.182,0.427 0.222,0.651c0.056,0.221 0.16,0.429 0.317,0.634c-0.888,0.184 -2.893,0.04 -6.016,-0.44c-3.125,-0.485 -6.408,-1.285 -9.843,-2.392c-3.434,-1.114 -6.592,-2.549 -9.472,-4.304c-2.88,-1.757 -4.565,-3.802 -5.077,-6.13c-0.885,-4.104 -0.955,-9.894 -0.2,-17.376l0.008,-0.11c-4.24,3.128 -8.651,5.462 -13.235,6.99c-1.453,4.029 -3.149,8.112 -5.093,12.25c-1.947,4.142 -4.197,7.947 -6.755,11.406c-2.562,3.453 -5.376,6.418 -8.437,8.888c-3.069,2.464 -6.376,4.08 -9.923,4.848c-2.776,0.605 -6.114,0.317 -10.037,-0.867c-3.915,-1.184 -7.752,-2.816 -11.515,-4.907c-3.76,-2.082 -7.085,-4.413 -9.965,-6.976c-2.885,-2.568 -4.685,-4.997 -5.411,-7.274c-0.853,-2.654 -1.504,-5.36 -1.952,-8.12c-0.581,0.488 -1.173,0.965 -1.768,1.434c-4.573,3.547 -9.346,6.152 -14.33,7.814c-1.448,4.032 -3.142,8.12 -5.091,12.258c-1.947,4.139 -4.205,7.936 -6.763,11.398c-2.552,3.458 -5.365,6.424 -8.434,8.885c-3.064,2.469 -6.374,4.085 -9.918,4.859c-2.778,0.6 -6.117,0.309 -10.034,-0.878c-3.92,-1.178 -7.752,-2.81 -11.523,-4.893c-3.76,-2.093 -7.083,-4.419 -9.963,-6.989c-2.882,-2.568 -4.688,-4.992 -5.41,-7.275c-2.158,-6.736 -3.027,-13.803 -2.611,-21.211c0.432,-7.41 1.749,-14.317 3.957,-20.72c2.208,-6.405 5.139,-11.885 8.795,-16.456c3.653,-4.573 7.592,-7.312 11.8,-8.226c1.779,-0.384 4.168,-0.235 7.163,0.445c2.992,0.693 6.056,1.589 9.205,2.707c3.144,1.117 6.045,2.288 8.691,3.509c2.648,1.232 4.498,2.133 5.557,2.72c1.733,-0.027 3.48,0.112 5.229,0.432c1.758,0.32 3.464,0.987 5.144,2.021c1.678,1.03 3.235,2.459 4.683,4.296c1.443,1.835 2.667,4.267 3.672,7.304c0.851,2.835 0.549,7.606 -0.901,14.31c1.149,-0.6 2.146,-1.224 2.994,-1.87c0.846,-0.65 1.678,-1.237 2.494,-1.765c2.168,-1.749 4.221,-3.819 6.146,-6.211c0.176,-0.234 0.363,-0.464 0.55,-0.69l0.01,-0.302c0.427,-7.413 1.744,-14.317 3.952,-20.722c2.211,-6.406 5.144,-11.886 8.795,-16.454c3.653,-4.565 7.592,-7.314 11.808,-8.226c1.773,-0.39 4.157,-0.235 7.149,0.453c2.992,0.683 6.067,1.584 9.211,2.701c3.152,1.112 6.045,2.288 8.693,3.518c2.646,1.218 4.502,2.125 5.547,2.706c1.741,-0.021 3.491,0.118 5.24,0.435c1.752,0.317 3.469,0.987 5.141,2.016c1.683,1.029 3.238,2.467 4.68,4.301c1.446,1.838 2.67,4.267 3.68,7.296c0.846,2.838 0.55,7.614 -0.901,14.312c1.147,-0.597 2.144,-1.221 2.989,-1.866c0.843,-0.646 1.675,-1.235 2.496,-1.763c2.174,-1.747 4.222,-3.821 6.139,-6.213l0.248,-0.31c0.485,-3.181 1.035,-6.464 1.64,-9.856c1.603,-8.941 3.384,-18.096 5.363,-27.472c1.629,-7.757 3.136,-14.989 4.517,-21.698l-0.232,0.384c-1.291,2.077 -3.003,4.082 -5.147,5.994c-2.136,1.92 -4.594,3.179 -7.368,3.782c-3.874,0.845 -7.645,0.757 -11.29,-0.248c-3.648,-1.011 -7.134,-2.638 -10.467,-4.875c-3.328,-2.232 -6.472,-4.955 -9.432,-8.144c-2.963,-3.192 -5.68,-6.491 -8.16,-9.901c-5.808,-8.024 -11.12,-17.504 -15.931,-28.422c-0.864,1.35 -1.73,3.395 -2.586,6.136c-0.856,2.742 -1.654,5.619 -2.398,8.619c-0.741,3.013 -1.384,5.915 -1.941,8.701c-0.555,2.79 -0.973,4.912 -1.235,6.363c0.096,0.445 0.2,0.773 0.302,0.981c0.101,0.214 0.181,0.432 0.226,0.651c0.054,0.224 0.152,0.432 0.31,0.629c-0.888,0.19 -2.888,0.046 -6.019,-0.437c-3.123,-0.483 -6.4,-1.283 -9.837,-2.392c-3.438,-1.112 -6.595,-2.547 -9.47,-4.307c-2.877,-1.752 -4.573,-3.792 -5.077,-6.122c-0.896,-4.099 -0.957,-9.899 -0.203,-17.382l0.011,-0.109c-4.24,3.133 -8.656,5.459 -13.24,6.992c-1.448,4.029 -3.141,8.115 -5.093,12.251c-1.942,4.144 -4.195,7.941 -6.758,11.402c-2.56,3.459 -5.368,6.422 -8.432,8.888c-3.072,2.464 -6.373,4.086 -9.925,4.856c-2.771,0.606 -6.115,0.307 -10.032,-0.866c-3.912,-1.182 -7.755,-2.824 -11.517,-4.907c-3.763,-2.085 -7.086,-4.416 -9.968,-6.987c-2.88,-2.568 -4.683,-4.986 -5.411,-7.272c-0.848,-2.653 -1.501,-5.354 -1.952,-8.114c-0.584,0.485 -1.168,0.965 -1.765,1.432c-4.574,3.546 -9.35,6.154 -14.334,7.816c-1.442,4.029 -3.141,8.114 -5.09,12.248c-1.95,4.146 -4.198,7.946 -6.76,11.405c-2.56,3.459 -5.371,6.421 -8.438,8.885c-3.061,2.467 -6.37,4.088 -9.922,4.859c-2.771,0.6 -6.115,0.312 -10.03,-0.867c-3.914,-1.189 -7.754,-2.826 -11.52,-4.898c-3.76,-2.102 -7.082,-4.424 -9.965,-6.992c-2.877,-2.568 -4.683,-4.995 -5.411,-7.272c-2.162,-6.736 -3.024,-13.811 -2.605,-21.216c0.427,-7.408 1.741,-14.318 3.952,-20.72c2.213,-6.406 5.141,-11.894 8.797,-16.456c3.654,-4.571 7.59,-7.312 11.803,-8.227c1.776,-0.384 4.157,-0.235 7.155,0.448c2.997,0.688 6.064,1.587 9.208,2.704c3.154,1.117 6.048,2.291 8.693,3.512c2.643,1.229 4.499,2.136 5.555,2.717c1.733,-0.029 3.477,0.115 5.237,0.43c1.747,0.32 3.464,0.989 5.139,2.021c1.674,1.029 3.234,2.464 4.674,4.299c1.446,1.834 2.678,4.272 3.683,7.306c0.848,2.83 0.547,7.603 -0.901,14.302c1.144,-0.598 2.146,-1.222 2.989,-1.872c0.845,-0.643 1.677,-1.227 2.493,-1.755c2.176,-1.752 4.222,-3.824 6.142,-6.216c0.184,-0.227 0.365,-0.464 0.554,-0.691l0.014,-0.304c0.426,-7.402 1.741,-14.312 3.954,-20.717c2.211,-6.403 5.142,-11.893 8.79,-16.461c3.658,-4.563 7.589,-7.307 11.805,-8.222c1.779,-0.386 4.16,-0.237 7.155,0.451c2.994,0.685 6.069,1.587 9.208,2.707c3.152,1.112 6.048,2.285 8.693,3.509c2.651,1.229 4.499,2.131 5.557,2.72c1.731,-0.032 3.48,0.112 5.23,0.427c1.757,0.314 3.469,0.992 5.146,2.021c1.672,1.027 3.238,2.461 4.678,4.299c1.45,1.832 2.672,4.264 3.674,7.296c0.851,2.845 0.55,7.608 -0.898,14.314c1.146,-0.597 2.149,-1.218 2.994,-1.869c0.843,-0.651 1.672,-1.237 2.491,-1.763c2.171,-1.752 4.221,-3.818 6.139,-6.21l0.25,-0.315c0.483,-3.184 1.03,-6.469 1.64,-9.851c1.6,-8.949 3.384,-18.104 5.36,-27.474c1.968,-9.374 3.763,-17.982 5.366,-25.824c1.608,-7.835 2.826,-14.4 3.656,-19.694c0.821,-5.282 0.794,-8.357 -0.091,-9.208c0.667,-0.146 2.421,0.024 5.253,0.51c2.838,0.488 5.846,1.258 9.04,2.309c3.187,1.045 6.152,2.403 8.899,4.075c2.741,1.672 4.355,3.613 4.835,5.834c0.218,0.995 -0.104,3.502 -0.979,7.528c-0.864,4.024 -2.024,8.976 -3.48,14.867c-1.451,5.891 -3.045,12.424 -4.803,19.597c-1.744,7.176 -3.4,14.416 -4.946,21.72c2.69,-5.229 5.498,-10.365 8.408,-15.41c2.914,-5.051 5.821,-9.571 8.728,-13.576c2.906,-3.995 5.648,-7.288 8.218,-9.883c2.574,-2.592 4.808,-4.091 6.688,-4.496c2,-0.44 4.083,0.037 6.238,1.435c2.157,1.384 4.146,3.042 5.954,4.97c1.755,1.835 3.502,3.875 5.256,6.11c0.232,-1.254 0.459,-2.472 0.686,-3.648c0.808,-4.304 1.485,-7.875 2.021,-10.723c0.544,-2.845 0.771,-4.493 0.672,-4.936c0.333,-0.072 1.261,0.045 2.781,0.352c1.52,0.315 3.294,0.739 5.326,1.288c2.037,0.539 4.186,1.213 6.448,2c2.261,0.779 4.306,1.645 6.141,2.584c1.824,0.936 3.312,1.917 4.472,2.947c1.149,1.029 1.597,2.032 1.347,3.021c-0.328,1.693 -0.963,4.648 -1.904,8.859c-0.944,4.216 -1.856,9.114 -2.734,14.709c-0.877,5.589 -1.594,11.517 -2.144,17.803c-0.554,6.272 -0.669,12.277 -0.357,18.018l20.061,-43.65c1.304,-7.296 3.299,-13.88 5.982,-19.76c2.792,-6.126 6.01,-11.235 9.653,-15.339c3.632,-4.099 6.997,-6.541 10.077,-7.328c0.888,-0.192 2.534,-0.112 4.928,0.24c2.403,0.349 5.014,0.883 7.84,1.605c2.832,0.723 5.584,1.608 8.24,2.654c2.67,1.048 4.774,2.157 6.304,3.341c0.779,-0.176 1.768,-0.157 2.971,0.045c1.205,0.2 2.456,0.744 3.749,1.624c1.299,0.886 2.55,2.235 3.763,4.062c1.2,1.832 2.152,4.296 2.824,7.402c0.544,3.6 0.571,7.31 0.067,11.136c-0.502,3.83 -1.616,7.406 -3.334,10.742c-1.709,3.333 -4.09,6.29 -7.13,8.864c-3.043,2.581 -6.835,4.362 -11.384,5.349c-4.992,1.085 -8.966,1.104 -11.918,0.059c-2.962,-1.038 -5.141,-2.686 -6.557,-4.928c-0.075,1.288 -0.168,2.469 -0.28,3.541c-0.123,1.069 -0.184,2.101 -0.2,3.091c-0.021,0.992 0.011,2.058 0.083,3.202c0.077,1.15 0.226,2.507 0.453,4.083c0.392,2.357 1.181,4.397 2.376,6.107c1.181,1.717 2.64,3.09 4.371,4.106c1.73,1.019 3.586,1.659 5.554,1.928c1.976,0.264 3.952,0.128 5.926,-0.418c2.192,-0.592 4.544,-2.059 7.056,-4.406c2.509,-2.341 5.106,-5.261 7.77,-8.741c2.67,-3.488 5.288,-7.333 7.854,-11.549c2.576,-4.214 4.989,-8.462 7.256,-12.731c2.269,-4.267 4.338,-8.368 6.213,-12.323c1.869,-3.949 3.363,-7.373 4.472,-10.29m-98,85.57c-0.88,0.184 -1.781,0.15 -2.701,-0.106c-0.926,-0.267 -1.891,-0.579 -2.902,-0.942c-1.672,-0.221 -4.037,-0.808 -7.09,-1.77c-3.056,-0.966 -6.134,-2.15 -9.222,-3.576c-3.098,-1.414 -5.848,-2.968 -8.245,-4.656c-2.4,-1.688 -3.776,-3.358 -4.141,-5.024c-0.699,-3.219 -0.984,-7.219 -0.864,-12.006c0.12,-4.786 0.485,-9.802 1.082,-15.045c0.611,-5.243 1.384,-10.496 2.336,-15.752c0.504,-2.795 0.99,-5.453 1.451,-7.979c-6.093,5.062 -11.104,9.867 -15.043,14.411c-4.269,4.936 -7.632,9.243 -10.088,12.912c-2.89,4.347 -5.04,8.352 -6.442,12.029c0.477,2.216 1.837,5.115 4.064,8.694c2.229,3.586 5.029,7.418 8.421,11.501c3.384,4.085 7.112,8.152 11.184,12.208c4.072,4.048 8.173,7.661 12.291,10.837c4.112,3.166 8.122,5.608 12.034,7.307c3.918,1.712 7.312,2.248 10.195,1.624c0.051,-0.016 0.099,-0.019 0.144,-0.021c1.317,-6.574 2.339,-12.166 3.056,-16.792c0.581,-3.707 0.741,-6.328 0.48,-7.854m61.811,-90.952c-1.107,0.243 -2.678,1.16 -4.712,2.766c-2.03,1.602 -4.166,3.81 -6.403,6.618c-2.237,2.811 -4.363,6.259 -6.376,10.355c-2.016,4.096 -3.491,8.805 -4.429,14.115c0.682,0.432 1.552,0.709 2.621,0.826c1.072,0.118 2.384,0.006 3.933,-0.33c3.216,-0.702 5.979,-2.315 8.272,-4.846c2.294,-2.53 4.176,-5.496 5.646,-8.89c1.472,-3.403 2.565,-6.918 3.285,-10.558c0.717,-3.64 1.128,-6.866 1.213,-9.674c-0.81,-0.518 -1.829,-0.643 -3.05,-0.382m-60.232,-5.392c-0.776,0.168 -2.624,0.078 -5.55,-0.274c-2.92,-0.35 -5.992,-0.992 -9.216,-1.915c-3.218,-0.933 -6.202,-2.109 -8.954,-3.541c-2.752,-1.438 -4.331,-3.104 -4.744,-4.987c-0.478,-2.221 -0.419,-4.875 0.189,-7.965c0.611,-3.094 1.368,-6.134 2.291,-9.123c0.92,-2.989 1.765,-5.637 2.541,-7.955c0.773,-2.32 1.075,-3.864 0.907,-4.637c0.333,-0.075 1.256,0.043 2.781,0.349c1.52,0.31 3.293,0.739 5.328,1.286c2.037,0.541 4.181,1.21 6.443,1.997c2.264,0.784 4.309,1.648 6.136,2.587c1.832,0.936 3.322,1.917 4.474,2.946c1.15,1.032 1.603,2.032 1.355,3.016c-0.461,2.19 -0.971,4.656 -1.531,7.387c-0.573,2.744 -1.085,5.437 -1.554,8.099c-0.47,2.658 -0.803,5.13 -0.998,7.442c-0.197,2.31 -0.16,4.072 0.102,5.288m-160.912,123.099c1.781,-0.384 3.501,-1.424 5.162,-3.125c1.664,-1.696 3.243,-3.811 4.723,-6.339c1.477,-2.531 2.869,-5.379 4.149,-8.568c1.286,-3.176 2.435,-6.445 3.446,-9.803c-1.742,-0.552 -3.542,-1.32 -5.382,-2.314c-1.848,-0.998 -3.597,-2.126 -5.258,-3.39c-1.131,-0.92 -2.294,-1.968 -3.48,-3.162c-1.19,-1.198 -2.296,-2.552 -3.323,-4.07c-2.395,6.088 -3.963,12.358 -4.717,18.79c-0.752,6.434 -0.272,12.261 1.44,17.464c0.074,0.33 0.194,0.768 0.37,1.306c0.179,0.55 0.408,1.078 0.694,1.598c0.288,0.52 0.608,0.941 0.973,1.269c0.36,0.325 0.765,0.443 1.203,0.344m21.682,-56.624c-0.888,-2.477 -2.13,-4.067 -3.733,-4.76c-1.605,-0.699 -3.152,-1 -4.643,-0.915c-2.634,2.315 -5.117,5.582 -7.45,9.806c-0.102,0.605 -0.102,1.154 0.008,1.656c0.112,0.498 0.226,1.026 0.346,1.578c0.422,1.422 1.16,2.8 2.203,4.142c1.045,1.336 2.203,2.533 3.483,3.6c1.277,1.053 2.608,1.989 4,2.789c1.4,0.797 2.72,1.411 3.97,1.837c1.024,-4.402 1.726,-8.389 2.118,-11.957c0.381,-3.568 0.285,-6.163 -0.302,-7.776m-106.858,75.123c1.77,-0.384 3.49,-1.432 5.157,-3.123c1.661,-1.701 3.235,-3.808 4.717,-6.339c1.486,-2.53 2.872,-5.386 4.152,-8.565c1.286,-3.187 2.432,-6.456 3.446,-9.813c-1.75,-0.552 -3.539,-1.318 -5.384,-2.31c-1.84,-0.997 -3.592,-2.128 -5.262,-3.392c-1.128,-0.912 -2.288,-1.97 -3.477,-3.16c-1.187,-1.197 -2.296,-2.549 -3.323,-4.072c-2.397,6.091 -3.97,12.36 -4.712,18.792c-0.757,6.438 -0.277,12.254 1.435,17.462c0.075,0.33 0.197,0.762 0.371,1.312c0.176,0.546 0.41,1.074 0.696,1.594c0.285,0.515 0.61,0.942 0.97,1.267c0.363,0.325 0.766,0.445 1.214,0.347m21.674,-56.624c-0.888,-2.48 -2.13,-4.067 -3.733,-4.766c-1.608,-0.698 -3.149,-0.997 -4.643,-0.906c-2.634,2.312 -5.12,5.581 -7.45,9.808c-0.104,0.6 -0.099,1.152 0.005,1.648c0.109,0.501 0.224,1.024 0.347,1.586c0.424,1.414 1.154,2.795 2.202,4.136c1.048,1.344 2.208,2.539 3.486,3.595c1.274,1.064 2.61,1.987 4.002,2.792c1.39,0.797 2.715,1.413 3.968,1.84c1.022,-4.405 1.726,-8.389 2.104,-11.963c0.392,-3.565 0.299,-6.154 -0.288,-7.77m377.184,34.213c-1.109,0.243 -2.68,1.16 -4.709,2.765c-2.035,1.603 -4.171,3.808 -6.405,6.619c-2.235,2.805 -4.36,6.256 -6.368,10.36c-2.022,4.091 -3.499,8.797 -4.435,14.112c0.677,0.437 1.549,0.707 2.621,0.824c1.067,0.115 2.379,0.005 3.934,-0.336c3.221,-0.693 5.973,-2.307 8.269,-4.84c2.296,-2.531 4.176,-5.499 5.648,-8.893c1.472,-3.395 2.56,-6.915 3.285,-10.552c0.712,-3.643 1.12,-6.867 1.208,-9.672c-0.808,-0.526 -1.824,-0.654 -3.048,-0.387m-306.325,136.205c1.773,-0.384 3.499,-1.429 5.163,-3.12c1.664,-1.698 3.237,-3.813 4.72,-6.341c1.485,-2.528 2.866,-5.389 4.152,-8.565c1.28,-3.184 2.432,-6.451 3.445,-9.806c-1.747,-0.552 -3.539,-1.328 -5.384,-2.317c-1.843,-0.997 -3.595,-2.123 -5.267,-3.392c-1.122,-0.912 -2.285,-1.965 -3.472,-3.16c-1.186,-1.197 -2.296,-2.549 -3.322,-4.077c-2.398,6.101 -3.963,12.365 -4.72,18.802c-0.75,6.435 -0.27,12.254 1.437,17.456c0.077,0.331 0.2,0.774 0.376,1.312c0.173,0.539 0.405,1.075 0.693,1.592c0.291,0.518 0.608,0.942 0.974,1.27c0.36,0.33 0.762,0.445 1.205,0.346m21.68,-56.624c-0.883,-2.482 -2.133,-4.069 -3.739,-4.765c-1.597,-0.696 -3.146,-0.995 -4.637,-0.904c-2.637,2.309 -5.117,5.584 -7.451,9.805c-0.106,0.595 -0.106,1.147 0.008,1.651c0.11,0.496 0.224,1.027 0.344,1.581c0.424,1.419 1.16,2.798 2.208,4.139c1.043,1.341 2.203,2.541 3.48,3.595c1.272,1.066 2.611,1.992 4,2.792c1.395,0.802 2.72,1.413 3.974,1.84c1.021,-4.403 1.72,-8.387 2.106,-11.958c0.387,-3.568 0.291,-6.162 -0.293,-7.776m63.507,38.128c1.778,-0.389 3.493,-1.424 5.16,-3.125c1.661,-1.693 3.24,-3.811 4.722,-6.339c1.478,-2.528 2.867,-5.384 4.147,-8.568c1.288,-3.176 2.432,-6.448 3.451,-9.808c-1.752,-0.546 -3.544,-1.32 -5.387,-2.309c-1.84,-1.003 -3.595,-2.128 -5.264,-3.389c-1.128,-0.92 -2.285,-1.974 -3.472,-3.166c-1.189,-1.194 -2.301,-2.552 -3.325,-4.072c-2.392,6.091 -3.966,12.363 -4.715,18.792c-0.752,6.438 -0.277,12.256 1.44,17.464c0.069,0.328 0.189,0.768 0.365,1.31c0.179,0.544 0.414,1.072 0.694,1.592c0.29,0.52 0.616,0.941 0.978,1.272c0.36,0.328 0.763,0.442 1.206,0.346m21.674,-56.626c-0.885,-2.48 -2.125,-4.07 -3.733,-4.766c-1.605,-0.696 -3.147,-1 -4.64,-0.906c-2.632,2.32 -5.115,5.584 -7.453,9.805c-0.099,0.605 -0.094,1.157 0.016,1.651c0.109,0.504 0.224,1.029 0.341,1.578c0.424,1.422 1.157,2.806 2.203,4.147c1.048,1.339 2.208,2.539 3.48,3.6c1.282,1.056 2.61,1.987 4.005,2.787c1.397,0.802 2.72,1.413 3.976,1.837c1.016,-4.405 1.717,-8.389 2.107,-11.957c0.386,-3.571 0.285,-6.158 -0.302,-7.776" style="fill:#fff;fill-rule:nonzero;"/></g></g></svg>