<?xml version="1.0" encoding="UTF-8" standalone="no"?>
<!DOCTYPE svg PUBLIC "-//W3C//DTD SVG 1.1//EN" "http://www.w3.org/Graphics/SVG/1.1/DTD/svg11.dtd">
<svg width="100%" height="100%" viewBox="0 0 826 172" version="1.1" xmlns="http://www.w3.org/2000/svg" xmlns:xlink="http://www.w3.org/1999/xlink" xml:space="preserve" xmlns:serif="http://www.serif.com/" style="fill-rule:evenodd;clip-rule:evenodd;stroke-linejoin:round;stroke-miterlimit:2;">
    <g transform="matrix(2,0,0,2,0,0)">
        <g transform="matrix(1.33333,0,0,1.33333,0,0)">
            <g id="Layer-3" serif:id="Layer 3">
                <g transform="matrix(0.677485,-0.735537,-0.735537,-0.677485,212.975,19.3023)">
                    <path d="M-6.944,3.961L-3.86,3.961L9.033,15.836L7.618,17.373L-6.944,3.961Z" style="fill-rule:nonzero;"/>
                </g>
                <g transform="matrix(1,0,0,1,0,-60.7029)">
                    <rect x="191.878" y="61.294" width="29.047" height="2.089"/>
                </g>
                <g transform="matrix(-0.677485,0.735537,0.735537,0.677485,213.29,48.8435)">
                    <path d="M-9.348,-16.555L-6.265,-16.555L7.259,-4.099L5.844,-2.562L-9.348,-16.555Z" style="fill-rule:nonzero;"/>
                </g>
                <g transform="matrix(1,0,0,1,153.159,52.7633)">
                    <path d="M0,-52.763L0,-1.357L2.089,-1.357L2.089,-45.137L29.046,0L29.046,-52.173L26.956,-52.173L26.956,-7.662L0.021,-52.763L0,-52.763Z" style="fill-rule:nonzero;"/>
                </g>
                <g transform="matrix(1,0,0,1,309.413,51.4063)">
                    <path d="M0,-51.406L-18.021,-25.098L-36.043,-51.406L-36.068,-51.406L-36.068,0L-33.978,0L-33.978,-44.46L-18.021,-21.615L-2.064,-44.46L-2.064,0L0.025,0L0.025,-51.406L0,-51.406Z" style="fill-rule:nonzero;"/>
                </g>
                <g transform="matrix(1,0,0,1,91.2951,51.4057)">
                    <path d="M0,-50.815L0,-13.351C-0.003,-11.689 -0.315,-10.174 -0.94,-8.812C-1.566,-7.441 -2.437,-6.257 -3.552,-5.259C-4.666,-4.261 -5.979,-3.483 -7.487,-2.926C-8.997,-2.368 -10.634,-2.089 -12.398,-2.089C-14.163,-2.089 -15.8,-2.368 -17.31,-2.926C-18.818,-3.483 -20.131,-4.261 -21.245,-5.259C-22.36,-6.257 -23.231,-7.441 -23.857,-8.812C-24.484,-10.179 -24.797,-11.698 -24.798,-13.367L-24.798,-50.815L-26.887,-50.815L-26.887,-13.374C-26.887,-11.423 -26.517,-9.624 -25.773,-7.975C-25.03,-6.327 -24.008,-4.91 -22.708,-3.727C-21.408,-2.542 -19.875,-1.626 -18.111,-0.975C-16.347,-0.325 -14.442,0 -12.398,0C-10.354,0 -8.45,-0.325 -6.686,-0.975C-4.921,-1.626 -3.389,-2.542 -2.089,-3.727C-0.789,-4.91 0.233,-6.327 0.976,-7.975C1.72,-9.624 2.09,-11.423 2.09,-13.374L2.09,-50.815L0,-50.815Z" style="fill-rule:nonzero;"/>
                </g>
                <g transform="matrix(1,0,0,1,257.255,51.4057)">
                    <path d="M0,-50.815L0,-13.351C-0.003,-11.689 -0.315,-10.174 -0.94,-8.812C-1.566,-7.441 -2.438,-6.257 -3.552,-5.259C-4.666,-4.261 -5.979,-3.483 -7.488,-2.926C-8.997,-2.368 -10.634,-2.089 -12.399,-2.089C-14.164,-2.089 -15.801,-2.368 -17.31,-2.926C-18.819,-3.483 -20.132,-4.261 -21.246,-5.259C-22.36,-6.257 -23.231,-7.441 -23.857,-8.812C-24.484,-10.179 -24.798,-11.698 -24.799,-13.367L-24.799,-50.815L-26.888,-50.815L-26.888,-13.374C-26.888,-11.423 -26.517,-9.624 -25.773,-7.975C-25.03,-6.327 -24.009,-4.91 -22.709,-3.727C-21.408,-2.542 -19.876,-1.626 -18.111,-0.975C-16.347,-0.325 -14.443,0 -12.399,0C-10.355,0 -8.451,-0.325 -6.687,-0.975C-4.922,-1.626 -3.39,-2.542 -2.089,-3.727C-0.789,-4.91 0.232,-6.327 0.976,-7.975C1.719,-9.624 2.09,-11.423 2.09,-13.374L2.09,-50.815L0,-50.815Z" style="fill-rule:nonzero;"/>
                </g>
                <g transform="matrix(1,0,0,1,113.178,20.1997)">
                    <path d="M0,11.597L10.123,-14.155L20.118,11.597L0,11.597ZM10.124,-19.609L-9.793,31.206L-7.659,31.206L-0.761,13.564L20.877,13.564L27.774,31.206L30.041,31.206L10.124,-19.609Z" style="fill-rule:nonzero;"/>
                </g>
                <g transform="matrix(1,0,0,1,27.3357,13.604)">
                    <path d="M0,36.766L0,17.143L-2.081,19.402L-2.081,36.767C-14.919,36.232 -25.164,25.66 -25.164,12.69C-25.164,-0.279 -14.919,-10.851 -2.081,-11.386L-2.081,8.122L0,5.864L0,-11.385C12.818,-10.829 23.041,-0.265 23.041,12.69C23.041,25.646 12.818,36.21 0,36.766M23.167,2.474C21.783,-0.709 19.885,-3.519 17.527,-5.877C15.169,-8.234 12.36,-10.132 9.177,-11.516C5.995,-12.901 2.557,-13.604 -1.041,-13.604C-4.638,-13.604 -8.075,-12.901 -11.258,-11.516C-14.439,-10.132 -17.261,-8.235 -19.645,-5.877C-22.024,-3.522 -23.922,-0.712 -25.284,2.473C-26.646,5.656 -27.335,9.094 -27.335,12.691C-27.335,16.287 -26.646,19.724 -25.284,22.908C-23.923,26.092 -22.025,28.914 -19.644,31.295C-17.262,33.677 -14.44,35.574 -11.258,36.935C-8.384,38.163 -5.301,38.839 -2.081,38.96L-2.081,50.37L0,48.112L0,38.96C3.22,38.839 6.303,38.163 9.178,36.935C12.361,35.573 15.17,33.676 17.527,31.295C19.886,28.911 21.784,26.089 23.167,22.907C24.552,19.724 25.254,16.287 25.254,12.691C25.254,9.094 24.552,5.656 23.167,2.474" style="fill-rule:nonzero;"/>
                </g>
            </g>
        </g>
    </g>
</svg>
